<?xml version="1.0" encoding="UTF-8"?>
<svg width="117px" height="227px" viewBox="0 0 117 227" version="1.1" xmlns="http://www.w3.org/2000/svg" xmlns:xlink="http://www.w3.org/1999/xlink">
    <!-- Generator: Sketch 48.2 (47327) - http://www.bohemiancoding.com/sketch -->
    <title>1 month</title>
    <desc>Created with Sketch.</desc>
    <defs></defs>
    <g id="1-month" stroke="none" stroke-width="1" fill="none" fill-rule="evenodd" transform="translate(-143.000000, -46.000000)">
        <g transform="translate(142.000000, 46.000000)" fill-rule="nonzero">
            <path d="M22.7428571,10 C22.7428571,10 19.5714286,21.9148936 19.5714286,24.4680851 C19.5714286,27.0212766 21.8857143,28.7234043 17.6,31.8723404 C13.3142857,35.0212766 11.0857143,35.4468085 11.9428571,36.9787234 C12.8,38.5106383 14.6857143,39.7021277 14,40.212766 C13.3142857,40.7234043 11.3428571,42 12.5428571,43.3617021 C13.7428571,44.7234043 15.4571429,44.893617 14.6857143,45.5744681 C13.9142857,46.2553191 12.3714286,46.0851064 12.8,47.4468085 C13.2285714,48.8085106 14.8571429,48.893617 14.5142857,49.6595745 C14.1714286,50.4255319 11.7714286,52.893617 13.0571429,54.5957447 C14.3428571,56.2978723 18.2,58.5106383 22.2285714,58.3404255 C26.2571429,58.1702128 28.4,56.7234043 29.2571429,59.7021277 C30.1142857,62.6808511 35,73.0638298 34.1428571,78.2553191 C33.2857143,83.4468085 32,89.3191489 32,89.3191489 C32,89.3191489 44,77.3191489 47,77.3191489 C50,77.3191489 52.4,75.1914894 52.4,75.1914894 L44.3428571,56.4680851 C44.3428571,56.4680851 43.4857143,47.0212766 43.5714286,46.8510638 C43.6571429,46.6808511 48.5428571,43.1914894 48.5428571,43.1914894 L52.9142857,34.6808511 L52.9142857,25.0638298 L40.7428571,22.4255319 L33.4571429,20.0425532 L29.8571429,11.787234 L27.1142857,11.106383 L22.7428571,10 Z" id="XMLID_2_" fill="#00A2D6"></path>
            <path d="M36.6040748,82.0983623 C32.881368,80.857067 29.5208165,77.9538192 28.9497952,72.804782 C27.6464258,61.0519859 32.9049399,61.3137602 37.4584257,56.5178089 C37.144424,48.6160106 41.9216656,46.1691299 44.4115016,43.5197593 C47.2038093,40.5485363 50.5038093,36.388824 48.2191939,33.8420614 C45.9345785,31.2952989 43.9038093,32.9082485 42.97304,34.6909823 C42.0422708,36.4737161 41.196117,38.2564499 41.196117,38.2564499 C41.196117,38.2564499 41.7038093,34.6909823 37.0499631,32.1442197 C32.396117,29.5974571 21.5653477,26.1168816 19.1115016,18.7312701 C16.6576554,11.3456586 19.87304,8.6291118 33.496117,3.70537079 C47.1191939,-1.21837021 62.4345785,-0.709017694 69.2884247,2.17731324 C76.2268862,5.14853626 88.6653477,13.5528528 88.8345785,21.9571694 C89.0038093,30.3614859 85.3653477,35.2852269 83.0807324,39.1902629 C80.7115016,43.1801909 75.1268862,48.6981766 79.4422708,50.9053708 C83.7576554,53.112565 87.9884247,52.7729967 88.9191939,48.5283924 C89.8499631,44.2837881 88.07304,42.8406226 84.6038093,45.3024931 C81.1345785,47.7643636 83.0807324,42.6708384 85.7038093,41.5672413 C88.3268862,40.4636442 97.6345785,38.1715578 99.496117,44.1140039 C101.357655,50.0564499 98.5653477,59.0550111 90.5268862,61.0924212 C90.5268862,61.0924212 84.0115016,63.4693996 84.6884247,67.2046514 C85.3653477,70.9399032 85.1115016,73.6564499 92.47304,75.5240758 C99.8345785,77.3917017 111.257655,76.5427809 115.911502,91.1442197 C120.565348,105.745659 111.934579,116.951414 105.67304,116.696738 C99.4115016,116.442061 89.3422708,117.715443 89.3422708,106.594579 C89.3422708,95.4737161 98.0576554,102.180191 98.0576554,102.180191 C98.0576554,102.180191 94.7576554,101.925515 96.0268862,104.472277 C97.296117,107.01904 101.442271,109.05645 102.034579,103.962925 C102.626886,98.8693996 101.442271,92.3327089 91.9653477,92.417601 C82.4884247,92.5024931 78.7653477,100.482349 79.3576554,105.40609 C79.3576554,105.40609 78.9345785,114.829112 84.6884247,117.970119 C90.4422708,121.111126 95.77304,120.347097 97.0422708,119.2435 C98.3115016,118.139903 98.7345785,124.846378 91.5422708,127.562925 C84.3499631,130.279472 75.3807324,132.571558 65.9884247,117.290982 C65.1422708,118.055011 59.5576554,126.119759 57.4422708,134.2694 C55.3268862,142.41904 52.3807324,148.021918 58.1345785,158.208968 C63.8884247,168.396018 69.67304,172.810407 72.0422708,186.138464 C74.4115016,199.466522 77.0038093,208.142781 72.9422708,225.20609 C64.9422708,225.20609 4.94227081,225.20609 0.942270814,225.20609 C0.511501583,224.311126 5.8268862,231.745676 5.8268862,210.645233 C5.8268862,189.54479 5.8268862,195.591963 5.8268862,181.456598 C5.8268862,167.321233 4.94227081,163.755382 11.8268862,151.589486 C18.7115016,139.423591 17.8422708,137.240623 17.8422708,137.240623 C17.8422708,137.240623 3.88073235,131.807529 5.8268862,118.479472 C7.77304004,105.151414 21.2268862,102.774436 27.3191939,95.0492557 C32.5059878,88.4722871 32.0502828,86.8794164 36.6040748,82.0983623 Z M42.6209387,76.674564 C42.8704588,76.4947691 43.1123597,76.3277447 43.3468104,76.1726918 C44.2552319,74.9808902 40.8321068,73.3379464 40.483629,72.3633307 C42.0615242,72.1868587 44.5609855,73.0224219 46.1900234,74.6919418 C48.8350383,73.7503386 49.8268862,74.8449391 49.8268862,74.8449391 C49.8268862,74.8449391 45.947283,73.0285372 42.5446088,69.1751894 C34.3496263,72.9336744 40.0699519,77.7623895 42.6209387,76.674564 Z" id="Combined-Shape" fill="#FFFFFF"></path>
            <path d="M21.9398234,209.235948 C20.122591,210.002238 18.1105643,211.79335 17.2203432,211.978711 C15.5294518,212.330787 16.0835559,210.286074 16.6546832,209.019862 C17.2367383,207.729423 20.5119419,204.932975 26.4802941,200.630519 C26.8555715,200.052505 27.2076988,199.574034 27.516903,199.249778 C29.2973378,197.382672 31.2264827,183.034296 31.8244818,175.14102 C32.422481,167.247745 34.5147893,158.84512 34.9543478,156.901573 C35.3939063,154.958026 36.5652174,150.29533 36.5652174,150.29533 L36.5652174,106.733553 C36.7347826,99.9440789 36.1413043,87.3835526 40.6347826,82.5460526 C45.1282609,77.7085526 59.7108696,79.1513158 61.4065217,92.7302632 C63.1021739,106.309211 52.4742761,153.457964 52.4742761,156.901573 C52.4742761,160.345183 47.4042753,173.581166 43.8665918,182.826575 C40.3289083,192.071984 39.9088525,199.641119 39.8240699,200.65954 C39.7392873,201.677961 40.6347826,205.749862 38.5950365,208.9 C36.5552903,212.050138 36.258655,211.40806 34.9543478,216.132102 C33.6500406,220.856144 33.3858268,226.155615 31.8244818,226.155615 C30.4577061,226.155615 30.8462283,225.162211 30.4577061,225.281016 C29.1852433,225.67012 28.3173063,227.233153 27.516903,225.525481 C26.6463333,223.668108 26.9293342,224.841271 25.4922491,225.525481 C25.2046546,225.662408 24.8870544,226.44527 24.4100788,226.44527 C21.5496975,226.44527 20.3566672,223.02099 20.3566672,221.919197 C20.3566672,221.413431 19.8362817,217.878305 19.8428978,215.678927 C19.8506948,213.087038 21.2202875,210.648228 21.6810794,209.752655 C21.7518255,209.615156 21.8387944,209.440927 21.9398234,209.235948 Z" id="Combined-Shape" fill="#00A2D6"></path>
        </g>
    </g>
</svg>
