<?xml version="1.0" encoding="UTF-8"?>
<svg width="123px" height="226px" viewBox="0 0 123 226" version="1.1" xmlns="http://www.w3.org/2000/svg" xmlns:xlink="http://www.w3.org/1999/xlink">
    <!-- Generator: Sketch 48.2 (47327) - http://www.bohemiancoding.com/sketch -->
    <title>3 month</title>
    <desc>Created with Sketch.</desc>
    <defs></defs>
    <g id="3-month" stroke="none" stroke-width="1" fill="none" fill-rule="evenodd" transform="translate(-137.000000, -46.000000)">
        <g transform="translate(137.000000, 46.000000)" fill-rule="nonzero">
            <path d="M27.7428571,10 C27.7428571,10 24.5714286,21.9148936 24.5714286,24.4680851 C24.5714286,27.0212766 26.8857143,28.7234043 22.6,31.8723404 C18.3142857,35.0212766 16.0857143,35.4468085 16.9428571,36.9787234 C17.8,38.5106383 19.6857143,39.7021277 19,40.212766 C18.3142857,40.7234043 16.3428571,42 17.5428571,43.3617021 C18.7428571,44.7234043 20.4571429,44.893617 19.6857143,45.5744681 C18.9142857,46.2553191 17.3714286,46.0851064 17.8,47.4468085 C18.2285714,48.8085106 19.8571429,48.893617 19.5142857,49.6595745 C19.1714286,50.4255319 16.7714286,52.893617 18.0571429,54.5957447 C19.3428571,56.2978723 23.2,58.5106383 27.2285714,58.3404255 C31.2571429,58.1702128 33.4,56.7234043 34.2571429,59.7021277 C35.1142857,62.6808511 40,73.0638298 39.1428571,78.2553191 C38.2857143,83.4468085 37,89.3191489 37,89.3191489 C37,89.3191489 49,77.3191489 52,77.3191489 C55,77.3191489 57.4,75.1914894 57.4,75.1914894 L49.3428571,56.4680851 C49.3428571,56.4680851 48.4857143,47.0212766 48.5714286,46.8510638 C48.6571429,46.6808511 53.5428571,43.1914894 53.5428571,43.1914894 L57.9142857,34.6808511 L57.9142857,25.0638298 L45.7428571,22.4255319 L38.4571429,20.0425532 L34.8571429,11.787234 L32.1142857,11.106383 L27.7428571,10 Z" id="XMLID_2_" fill="#00A2D6"></path>
            <path d="M41.6040748,82.0983623 C37.881368,80.857067 34.5208165,77.9538192 33.9497952,72.804782 C32.6464258,61.0519859 37.9049399,61.3137602 42.4584257,56.5178089 C42.144424,48.6160106 46.9216656,46.1691299 49.4115016,43.5197593 C52.2038093,40.5485363 55.5038093,36.388824 53.2191939,33.8420614 C50.9345785,31.2952989 48.9038093,32.9082485 47.97304,34.6909823 C47.0422708,36.4737161 46.196117,38.2564499 46.196117,38.2564499 C46.196117,38.2564499 46.7038093,34.6909823 42.0499631,32.1442197 C37.396117,29.5974571 26.5653477,26.1168816 24.1115016,18.7312701 C21.6576554,11.3456586 24.87304,8.6291118 38.496117,3.70537079 C52.1191939,-1.21837021 67.4345785,-0.709017694 74.2884247,2.17731324 C81.2268862,5.14853626 93.6653477,13.5528528 93.8345785,21.9571694 C94.0038093,30.3614859 90.3653477,35.2852269 88.0807324,39.1902629 C85.7115016,43.1801909 80.1268862,48.6981766 84.4422708,50.9053708 C88.7576554,53.112565 92.9884247,52.7729967 93.9191939,48.5283924 C94.8499631,44.2837881 93.07304,42.8406226 89.6038093,45.3024931 C86.1345785,47.7643636 88.0807324,42.6708384 90.7038093,41.5672413 C93.3268862,40.4636442 102.634579,38.1715578 104.496117,44.1140039 C106.357655,50.0564499 103.565348,59.0550111 95.5268862,61.0924212 C95.5268862,61.0924212 89.0115016,63.4693996 89.6884247,67.2046514 C90.3653477,70.9399032 90.1115016,73.6564499 97.47304,75.5240758 C104.834579,77.3917017 116.257655,76.5427809 120.911502,91.1442197 C125.565348,105.745659 116.934579,116.951414 110.67304,116.696738 C104.411502,116.442061 94.3422708,117.715443 94.3422708,106.594579 C94.3422708,95.4737161 103.057655,102.180191 103.057655,102.180191 C103.057655,102.180191 99.7576554,101.925515 101.026886,104.472277 C102.296117,107.01904 106.442271,109.05645 107.034579,103.962925 C107.626886,98.8693996 106.442271,92.3327089 96.9653477,92.417601 C87.4884247,92.5024931 83.7653477,100.482349 84.3576554,105.40609 C84.3576554,105.40609 83.9345785,114.829112 89.6884247,117.970119 C95.4422708,121.111126 100.77304,120.347097 102.042271,119.2435 C103.311502,118.139903 103.734579,124.846378 96.5422708,127.562925 C89.3499631,130.279472 80.3807324,132.571558 70.9884247,117.290982 C70.1422708,118.055011 64.5576554,126.119759 62.4422708,134.2694 C60.3268862,142.41904 58.3807324,148.021918 64.1345785,158.208968 C69.8884247,168.396018 77.67304,172.810407 80.0422708,186.138464 C82.4115016,199.466522 85.0038093,208.142781 80.9422708,225.20609 C72.9422708,225.20609 9.94227081,225.20609 5.94227081,225.20609 C5.51150158,224.311126 11.5038093,223.915443 8.11919389,208.804651 C4.73457851,193.69386 2.18394853,189.649223 4.95112788,178.043485 C7.71830724,166.437746 9.94227081,163.755382 16.8268862,151.589486 C23.7115016,139.423591 22.8422708,137.240623 22.8422708,137.240623 C22.8422708,137.240623 8.88073235,131.807529 10.8268862,118.479472 C12.77304,105.151414 26.2268862,102.774436 32.3191939,95.0492557 C37.5059878,88.4722871 37.0502828,86.8794164 41.6040748,82.0983623 Z M47.6209387,76.674564 C47.8704588,76.4947691 48.1123597,76.3277447 48.3468104,76.1726918 C49.2552319,74.9808902 45.8321068,73.3379464 45.483629,72.3633307 C47.0615242,72.1868587 49.5609855,73.0224219 51.1900234,74.6919418 C53.8350383,73.7503386 54.8268862,74.8449391 54.8268862,74.8449391 C54.8268862,74.8449391 50.947283,73.0285372 47.5446088,69.1751894 C39.3496263,72.9336744 45.0699519,77.7623895 47.6209387,76.674564 Z" id="Combined-Shape" fill="#FFFFFF"></path>
            <path d="M41.5652174,106.733553 C41.7347826,99.9440789 41.1413043,87.3835526 45.6347826,82.5460526 C50.1282609,77.7085526 64.7108696,79.1513158 66.4065217,92.7302632 C68.1021739,106.309211 56.6565217,155.702632 55.2152174,158.078947 C53.773913,160.455263 22.15,191.177632 16.9782609,196.1 C11.8065217,201.022368 12.4053293,200.366128 12.3205467,201.384549 C12.2357641,202.402971 10.1729297,206.558822 7.9308488,207.762921 C5.68876786,208.967019 1.94084625,204.195102 1.09302017,198.084576 C0.797535493,195.954933 0.320773294,193.40943 0.329543917,192.410327 C0.345938604,190.542729 1.09302017,191.184403 1.09302017,189.673433 C1.09302017,187.354144 1.01485965,188.195993 1.5978025,184.752014 C1.5978025,183.723331 3.10692581,182.744365 3.96959843,182.744365 C4.83227105,182.744365 3.64527506,183.998864 3.96959843,185.138927 C4.2939218,186.278991 4.04411205,190.410327 5.04411205,192.410327 C6.04411205,194.410327 6.15041402,194.277432 7.9308488,192.410327 C9.71128358,190.543221 17.9108696,178.3625 21.2173913,173.609868 C24.523913,168.857237 37.8347826,149.507237 39.1913043,148.573684 C40.5478261,147.640132 39.9543478,147.894737 39.9543478,147.894737 L41.5652174,106.733553 Z" id="XMLID_4_" fill="#00A2D6"></path>
        </g>
    </g>
</svg>