<?xml version="1.0" encoding="UTF-8"?>
<svg width="122px" height="226px" viewBox="0 0 122 226" version="1.1" xmlns="http://www.w3.org/2000/svg" xmlns:xlink="http://www.w3.org/1999/xlink">
    <!-- Generator: Sketch 48.2 (47327) - http://www.bohemiancoding.com/sketch -->
    <title>6 month</title>
    <desc>Created with Sketch.</desc>
    <defs></defs>
    <g id="6-month" stroke="none" stroke-width="1" fill="none" fill-rule="evenodd" transform="translate(-138.000000, -46.000000)">
        <g transform="translate(138.000000, 46.000000)" fill-rule="nonzero">
            <path d="M26.7428571,10 C26.7428571,10 23.5714286,21.9148936 23.5714286,24.4680851 C23.5714286,27.0212766 25.8857143,28.7234043 21.6,31.8723404 C17.3142857,35.0212766 15.0857143,35.4468085 15.9428571,36.9787234 C16.8,38.5106383 18.6857143,39.7021277 18,40.212766 C17.3142857,40.7234043 15.3428571,42 16.5428571,43.3617021 C17.7428571,44.7234043 19.4571429,44.893617 18.6857143,45.5744681 C17.9142857,46.2553191 16.3714286,46.0851064 16.8,47.4468085 C17.2285714,48.8085106 18.8571429,48.893617 18.5142857,49.6595745 C18.1714286,50.4255319 15.7714286,52.893617 17.0571429,54.5957447 C18.3428571,56.2978723 22.2,58.5106383 26.2285714,58.3404255 C30.2571429,58.1702128 32.4,56.7234043 33.2571429,59.7021277 C34.1142857,62.6808511 39,73.0638298 38.1428571,78.2553191 C37.2857143,83.4468085 36,89.3191489 36,89.3191489 C36,89.3191489 48,77.3191489 51,77.3191489 C54,77.3191489 56.4,75.1914894 56.4,75.1914894 L48.3428571,56.4680851 C48.3428571,56.4680851 47.4857143,47.0212766 47.5714286,46.8510638 C47.6571429,46.6808511 52.5428571,43.1914894 52.5428571,43.1914894 L56.9142857,34.6808511 L56.9142857,25.0638298 L44.7428571,22.4255319 L37.4571429,20.0425532 L33.8571429,11.787234 L31.1142857,11.106383 L26.7428571,10 Z" id="XMLID_2_" fill="#00A2D6"></path>
            <path d="M45.196117,38.2564499 C45.196117,38.2564499 45.7038093,34.6909823 41.0499631,32.1442197 C36.396117,29.5974571 25.5653477,26.1168816 23.1115016,18.7312701 C20.6576554,11.3456586 23.87304,8.6291118 37.496117,3.70537079 C51.1191939,-1.21837021 66.4345785,-0.709017694 73.2884247,2.17731324 C80.2268862,5.14853626 92.6653477,13.5528528 92.8345785,21.9571694 C93.0038093,30.3614859 89.3653477,35.2852269 87.0807324,39.1902629 C84.7115016,43.1801909 79.1268862,48.6981766 83.4422708,50.9053708 C87.7576554,53.112565 91.9884247,52.7729967 92.9191939,48.5283924 C93.8499631,44.2837881 92.07304,42.8406226 88.6038093,45.3024931 C85.1345785,47.7643636 87.0807324,42.6708384 89.7038093,41.5672413 C92.3268862,40.4636442 101.634579,38.1715578 103.496117,44.1140039 C105.357655,50.0564499 102.565348,59.0550111 94.5268862,61.0924212 C94.5268862,61.0924212 88.0115016,63.4693996 88.6884247,67.2046514 C89.3653477,70.9399032 89.1115016,73.6564499 96.47304,75.5240758 C103.834579,77.3917017 115.257655,76.5427809 119.911502,91.1442197 C124.565348,105.745659 115.934579,116.951414 109.67304,116.696738 C103.411502,116.442061 93.3422708,117.715443 93.3422708,106.594579 C93.3422708,95.4737161 102.057655,102.180191 102.057655,102.180191 C102.057655,102.180191 98.7576554,101.925515 100.026886,104.472277 C101.296117,107.01904 105.442271,109.05645 106.034579,103.962925 C106.626886,98.8693996 105.442271,92.3327089 95.9653477,92.417601 C86.4884247,92.5024931 82.7653477,100.482349 83.3576554,105.40609 C83.3576554,105.40609 82.9345785,114.829112 88.6884247,117.970119 C94.4422708,121.111126 99.77304,120.347097 101.042271,119.2435 C102.311502,118.139903 102.734579,124.846378 95.5422708,127.562925 C88.3499631,130.279472 79.3807324,132.571558 69.9884247,117.290982 C69.1422708,118.055011 63.5576554,126.119759 61.4422708,134.2694 C59.3268862,142.41904 57.3807324,148.021918 63.1345785,158.208968 C68.8884247,168.396018 76.67304,172.810407 79.0422708,186.138464 C81.4115016,199.466522 84.0038093,208.142781 79.9422708,225.20609 C71.9422708,225.20609 8.94227081,225.20609 4.94227081,225.20609 C4.51150158,224.311126 10.5038093,223.915443 7.11919389,208.804651 C3.73457851,193.69386 0.951127883,186.554979 0.951127883,177.043485 C0.951127883,167.531991 2.19223394,164.589486 9.8268862,153.589486 C17.4615385,142.589486 21.8422708,137.240623 21.8422708,137.240623 C21.8422708,137.240623 7.88073235,131.807529 9.8268862,118.479472 C11.77304,105.151414 25.2268862,102.774436 31.3191939,95.0492557 C37.4115016,87.3240758 35.7191939,86.475155 43.5038093,79.2593276 C51.2884247,72.0435003 53.8268862,74.8449391 53.8268862,74.8449391 C53.8268862,74.8449391 43.67304,70.0909823 41.8115016,59.6492557 C39.9499631,49.2075291 45.6191939,46.4909823 48.4115016,43.5197593 C51.2038093,40.5485363 54.5038093,36.388824 52.2191939,33.8420614 C49.9345785,31.2952989 47.9038093,32.9082485 46.97304,34.6909823 C46.0422708,36.4737161 45.196117,38.2564499 45.196117,38.2564499 Z" id="XMLID_1_" fill="#FFFFFF"></path>
            <path d="M8.57665229,141.781881 C6.55165229,143.868837 3.17665229,150.825359 3.09227729,152.30362 C3.00790229,153.781881 1.48915229,156.129707 5.28602729,156.999272 C9.08290229,157.868837 14.5672773,158.30362 15.7485273,156.999272 C16.9297773,155.694924 16.7610273,155.347098 15.7485273,155.260142 C14.7360273,155.173185 20.9797773,153.694924 21.5704023,152.825359 C22.1610273,151.955794 18.2797773,151.260142 16.3391523,149.781881 C14.3141523,148.30362 13.9766523,146.56449 14.8204023,146.738403 C15.6641523,146.912316 26.5485273,150.999272 27.9829023,150.390577 C29.4172773,149.781881 29.1641523,148.912316 26.9704023,147.694924 C24.7766523,146.477533 19.2079023,144.216664 20.0516523,143.521011 C20.8954023,142.825359 25.8735273,140.04275 25.6204023,139.347098 C25.3672773,138.651446 24.7766523,137.955794 22.7516523,139.173185 C20.7266523,140.390577 19.7141523,141.955794 18.4485273,141.781881 C17.1829023,141.607968 13.4704023,139.955794 11.6985273,140.04275 C9.92665229,140.129707 8.57665229,141.781881 8.57665229,141.781881 Z" id="XMLID_5_" fill="#00A2D6" transform="translate(15.800404, 148.165298) rotate(-12.000000) translate(-15.800404, -148.165298) "></path>
            <path d="M78.6295391,182.196159 C78.6425193,182.353268 78.6416608,182.500824 78.6269635,182.638826 C78.3358699,185.372103 71.8371432,183.937488 70.0398815,183.685179 C68.2426199,183.43287 66.5480083,184.04842 61.302725,187.407256 C56.0574418,190.766093 54.7923212,191.487988 54.1617574,190.720635 C53.5311937,189.953283 58.9026626,185.183185 60.8360578,182.638826 C57.5322708,181.490717 50.0772724,187.946905 48.6956205,187.407256 C47.3139686,186.867607 48.6956205,185.679045 47.9286849,185.947201 C47.1617492,186.215357 47.0312158,184.310738 47.9286849,182.137128 C48.8261539,179.963518 58.5199408,174.86938 59.1970925,174.567444 C59.8742443,174.265507 55.9104041,172.46473 52.7805226,173.851804 C49.650641,175.238877 47.4732777,173.851804 47.0312158,173.433096 C46.5891539,173.014389 50.9584769,171.587817 52.7805226,170.295511 C54.6025682,169.003205 57.4638763,169 59.1970925,170.295511 C60.9303088,171.591022 65.4401916,171.493478 67.1731505,171.587817 C67.3176451,171.595683 67.4590154,171.589072 67.5972615,171.567983 C67.3930118,168.596237 67.7552132,168.088212 67.3685167,166.763014 C66.8674616,165.045914 66.1939921,164.321382 65.0291438,161.39285 C65.0291438,160.364167 64.5438491,159.613588 65.4065217,159.613588 C66.2691944,159.613588 67.474595,161.569662 68.4072037,162.503215 C69.3398124,163.436767 70.912204,167.261524 71.912204,169.261524 C72.912204,171.261524 73.8507007,171.423466 75.6311354,169.556361 C77.4115702,167.689256 83.4672003,155.210265 85.7957763,151.049277 C88.1243522,146.88829 94.9751545,132.841878 96.3316763,131.908326 C97.688198,130.974773 94.3886833,129.814562 92.5461954,128.907745 C61.1766736,113.78125 44.6330602,105.013832 42.9153551,102.605493 C40.3387975,98.9929831 40.1413043,87.3835526 44.6347826,82.5460526 C49.1282609,77.7085526 60.0661544,81.7256679 67.9611121,89.5 C74.4667944,95.9062831 94.5508955,109.787927 111.277286,122.700419 C117.078227,127.178649 112.552066,130.466061 111.277286,134.193897 C109.238826,140.154962 92.3886734,163.16729 87.7957763,168.83196 C83.2028791,174.496631 79.4789615,177.682019 79.3941789,178.70044 C79.3403457,179.347092 79.0884338,180.993445 78.6295391,182.196159 Z" id="Combined-Shape" fill="#00A2D6"></path>
        </g>
    </g>
</svg>