<?xml version="1.0" encoding="UTF-8"?>
<svg width="119px" height="226px" viewBox="0 0 119 226" version="1.1" xmlns="http://www.w3.org/2000/svg" xmlns:xlink="http://www.w3.org/1999/xlink">
    <!-- Generator: Sketch 48.2 (47327) - http://www.bohemiancoding.com/sketch -->
    <title>4 month</title>
    <desc>Created with Sketch.</desc>
    <defs></defs>
    <g id="4-month" stroke="none" stroke-width="1" fill="none" fill-rule="evenodd" transform="translate(-141.000000, -46.000000)">
        <g transform="translate(141.000000, 46.000000)" fill-rule="nonzero">
            <path d="M23.7428571,10 C23.7428571,10 20.5714286,21.9148936 20.5714286,24.4680851 C20.5714286,27.0212766 22.8857143,28.7234043 18.6,31.8723404 C14.3142857,35.0212766 12.0857143,35.4468085 12.9428571,36.9787234 C13.8,38.5106383 15.6857143,39.7021277 15,40.212766 C14.3142857,40.7234043 12.3428571,42 13.5428571,43.3617021 C14.7428571,44.7234043 16.4571429,44.893617 15.6857143,45.5744681 C14.9142857,46.2553191 13.3714286,46.0851064 13.8,47.4468085 C14.2285714,48.8085106 15.8571429,48.893617 15.5142857,49.6595745 C15.1714286,50.4255319 12.7714286,52.893617 14.0571429,54.5957447 C15.3428571,56.2978723 19.2,58.5106383 23.2285714,58.3404255 C27.2571429,58.1702128 29.4,56.7234043 30.2571429,59.7021277 C31.1142857,62.6808511 36,73.0638298 35.1428571,78.2553191 C34.2857143,83.4468085 33,89.3191489 33,89.3191489 C33,89.3191489 45,77.3191489 48,77.3191489 C51,77.3191489 53.4,75.1914894 53.4,75.1914894 L45.3428571,56.4680851 C45.3428571,56.4680851 44.4857143,47.0212766 44.5714286,46.8510638 C44.6571429,46.6808511 49.5428571,43.1914894 49.5428571,43.1914894 L53.9142857,34.6808511 L53.9142857,25.0638298 L41.7428571,22.4255319 L34.4571429,20.0425532 L30.8571429,11.787234 L28.1142857,11.106383 L23.7428571,10 Z" id="XMLID_2_" fill="#00A2D6"></path>
            <path d="M37.6040748,82.0983623 C33.881368,80.857067 30.5208165,77.9538192 29.9497952,72.804782 C28.6464258,61.0519859 33.9049399,61.3137602 38.4584257,56.5178089 C38.144424,48.6160106 42.9216656,46.1691299 45.4115016,43.5197593 C48.2038093,40.5485363 51.5038093,36.388824 49.2191939,33.8420614 C46.9345785,31.2952989 44.9038093,32.9082485 43.97304,34.6909823 C43.0422708,36.4737161 42.196117,38.2564499 42.196117,38.2564499 C42.196117,38.2564499 42.7038093,34.6909823 38.0499631,32.1442197 C33.396117,29.5974571 22.5653477,26.1168816 20.1115016,18.7312701 C17.6576554,11.3456586 20.87304,8.6291118 34.496117,3.70537079 C48.1191939,-1.21837021 63.4345785,-0.709017694 70.2884247,2.17731324 C77.2268862,5.14853626 89.6653477,13.5528528 89.8345785,21.9571694 C90.0038093,30.3614859 86.3653477,35.2852269 84.0807324,39.1902629 C81.7115016,43.1801909 76.1268862,48.6981766 80.4422708,50.9053708 C84.7576554,53.112565 88.9884247,52.7729967 89.9191939,48.5283924 C90.8499631,44.2837881 89.07304,42.8406226 85.6038093,45.3024931 C82.1345785,47.7643636 84.0807324,42.6708384 86.7038093,41.5672413 C89.3268862,40.4636442 98.6345785,38.1715578 100.496117,44.1140039 C102.357655,50.0564499 99.5653477,59.0550111 91.5268862,61.0924212 C91.5268862,61.0924212 85.0115016,63.4693996 85.6884247,67.2046514 C86.3653477,70.9399032 86.1115016,73.6564499 93.47304,75.5240758 C100.834579,77.3917017 112.257655,76.5427809 116.911502,91.1442197 C121.565348,105.745659 112.934579,116.951414 106.67304,116.696738 C100.411502,116.442061 90.3422708,117.715443 90.3422708,106.594579 C90.3422708,95.4737161 99.0576554,102.180191 99.0576554,102.180191 C99.0576554,102.180191 95.7576554,101.925515 97.0268862,104.472277 C98.296117,107.01904 102.442271,109.05645 103.034579,103.962925 C103.626886,98.8693996 102.442271,92.3327089 92.9653477,92.417601 C83.4884247,92.5024931 79.7653477,100.482349 80.3576554,105.40609 C80.3576554,105.40609 79.9345785,114.829112 85.6884247,117.970119 C91.4422708,121.111126 96.77304,120.347097 98.0422708,119.2435 C99.3115016,118.139903 99.7345785,124.846378 92.5422708,127.562925 C85.3499631,130.279472 76.3807324,132.571558 66.9884247,117.290982 C66.1422708,118.055011 60.5576554,126.119759 58.4422708,134.2694 C56.3268862,142.41904 54.3807324,148.021918 60.1345785,158.208968 C65.8884247,168.396018 73.67304,172.810407 76.0422708,186.138464 C78.4115016,199.466522 81.0038093,208.142781 76.9422708,225.20609 C68.9422708,225.20609 5.94227081,225.20609 1.94227081,225.20609 C1.51150158,224.311126 7.50380928,223.915443 4.11919389,208.804651 C0.734578506,193.69386 0.0571378958,188.132652 0.951127883,177.043485 C1.84511787,165.954317 2.94227081,163.755382 9.8268862,151.589486 C16.7115016,139.423591 18.8422708,137.240623 18.8422708,137.240623 C18.8422708,137.240623 4.88073235,131.807529 6.8268862,118.479472 C8.77304004,105.151414 22.2268862,102.774436 28.3191939,95.0492557 C33.5059878,88.4722871 33.0502828,86.8794164 37.6040748,82.0983623 Z M43.6209387,76.674564 C43.8704588,76.4947691 44.1123597,76.3277447 44.3468104,76.1726918 C45.2552319,74.9808902 41.8321068,73.3379464 41.483629,72.3633307 C43.0615242,72.1868587 45.5609855,73.0224219 47.1900234,74.6919418 C49.8350383,73.7503386 50.8268862,74.8449391 50.8268862,74.8449391 C50.8268862,74.8449391 46.947283,73.0285372 43.5446088,69.1751894 C35.3496263,72.9336744 41.0699519,77.7623895 43.6209387,76.674564 Z" id="Combined-Shape" fill="#FFFFFF"></path>
            <path d="M37.5652174,106.733553 C37.7347826,99.9440789 37.8465561,87.7300049 42.3400343,82.8925049 C46.8335126,78.0550049 60.7108696,79.1513158 62.4065217,92.7302632 C64.1021739,106.309211 49.8455749,159.124706 48.4042705,161.501022 C46.9629662,163.877337 44.9565621,167.879792 39.0523934,166.419286 C33.1482247,164.95878 28.8841505,157.467586 27.5406718,154.031332 C26.1971932,150.595078 18.0407295,134.47517 16.7108561,130.37398 C15.3809826,126.272789 12.8780346,108.206892 12.0302085,102.096366 C11.1823824,95.9858398 12.0846564,95.6156451 13.3371594,93.4072254 C14.5896624,91.1988058 17.5337227,85.5595402 20.1523715,82.8925049 C22.7710202,80.2254695 36.0360216,73.3172443 39.9108077,74.9935995 C40.2739055,75.1506871 38.6434323,78.7822903 37.5652174,79.3914415 C35.2751139,80.6852646 35.450979,78.8996087 32.6557412,81.0968492 C28.2916996,84.5272726 25.0232402,87.9993432 27.8769122,89.5 C28.6873868,89.9262032 29.8022502,89.610562 30.4731249,89.5 C32.1643923,89.2212746 33.1963715,88.0690296 35.3250511,87.3765212 C38.1962294,86.4424609 36.5667213,88.7921769 35.9982825,89.5 C33.3313302,92.8209034 28.6273077,96.1498658 27.8769122,96.6298517 C25.7347548,98.0000695 21.1238789,98.1711438 22.1238789,100.171144 C23.1238789,102.171144 24.6728635,110.333278 26.4742542,115.957147 C28.2756449,121.581016 31.5966918,127.037572 34.1137967,130.37398 C36.6309015,133.710387 39.624704,140.694894 39.0523934,136.318723 L37.5652174,106.733553 Z" id="XMLID_4_" fill="#00A2D6"></path>
        </g>
    </g>
</svg>