<?xml version="1.0" encoding="UTF-8"?>
<svg width="120px" height="226px" viewBox="0 0 120 226" version="1.1" xmlns="http://www.w3.org/2000/svg" xmlns:xlink="http://www.w3.org/1999/xlink">
    <!-- Generator: Sketch 48.2 (47327) - http://www.bohemiancoding.com/sketch -->
    <title>5 month</title>
    <desc>Created with Sketch.</desc>
    <defs></defs>
    <g id="5-month" stroke="none" stroke-width="1" fill="none" fill-rule="evenodd" transform="translate(-140.000000, -46.000000)">
        <g transform="translate(140.000000, 46.000000)" fill-rule="nonzero">
            <path d="M24.7428571,10 C24.7428571,10 21.5714286,21.9148936 21.5714286,24.4680851 C21.5714286,27.0212766 23.8857143,28.7234043 19.6,31.8723404 C15.3142857,35.0212766 13.0857143,35.4468085 13.9428571,36.9787234 C14.8,38.5106383 16.6857143,39.7021277 16,40.212766 C15.3142857,40.7234043 13.3428571,42 14.5428571,43.3617021 C15.7428571,44.7234043 17.4571429,44.893617 16.6857143,45.5744681 C15.9142857,46.2553191 14.3714286,46.0851064 14.8,47.4468085 C15.2285714,48.8085106 16.8571429,48.893617 16.5142857,49.6595745 C16.1714286,50.4255319 13.7714286,52.893617 15.0571429,54.5957447 C16.3428571,56.2978723 20.2,58.5106383 24.2285714,58.3404255 C28.2571429,58.1702128 30.4,56.7234043 31.2571429,59.7021277 C32.1142857,62.6808511 37,73.0638298 36.1428571,78.2553191 C35.2857143,83.4468085 34,89.3191489 34,89.3191489 C34,89.3191489 46,77.3191489 49,77.3191489 C52,77.3191489 54.4,75.1914894 54.4,75.1914894 L46.3428571,56.4680851 C46.3428571,56.4680851 45.4857143,47.0212766 45.5714286,46.8510638 C45.6571429,46.6808511 50.5428571,43.1914894 50.5428571,43.1914894 L54.9142857,34.6808511 L54.9142857,25.0638298 L42.7428571,22.4255319 L35.4571429,20.0425532 L31.8571429,11.787234 L29.1142857,11.106383 L24.7428571,10 Z" id="XMLID_2_" fill="#00A2D6"></path>
            <path d="M43.196117,38.2564499 C43.196117,38.2564499 43.7038093,34.6909823 39.0499631,32.1442197 C34.396117,29.5974571 23.5653477,26.1168816 21.1115016,18.7312701 C18.6576554,11.3456586 21.87304,8.6291118 35.496117,3.70537079 C49.1191939,-1.21837021 64.4345785,-0.709017694 71.2884247,2.17731324 C78.2268862,5.14853626 90.6653477,13.5528528 90.8345785,21.9571694 C91.0038093,30.3614859 87.3653477,35.2852269 85.0807324,39.1902629 C82.7115016,43.1801909 77.1268862,48.6981766 81.4422708,50.9053708 C85.7576554,53.112565 89.9884247,52.7729967 90.9191939,48.5283924 C91.8499631,44.2837881 90.07304,42.8406226 86.6038093,45.3024931 C83.1345785,47.7643636 85.0807324,42.6708384 87.7038093,41.5672413 C90.3268862,40.4636442 99.6345785,38.1715578 101.496117,44.1140039 C103.357655,50.0564499 100.565348,59.0550111 92.5268862,61.0924212 C92.5268862,61.0924212 86.0115016,63.4693996 86.6884247,67.2046514 C87.3653477,70.9399032 87.1115016,73.6564499 94.47304,75.5240758 C101.834579,77.3917017 113.257655,76.5427809 117.911502,91.1442197 C122.565348,105.745659 113.934579,116.951414 107.67304,116.696738 C101.411502,116.442061 91.3422708,117.715443 91.3422708,106.594579 C91.3422708,95.4737161 100.057655,102.180191 100.057655,102.180191 C100.057655,102.180191 96.7576554,101.925515 98.0268862,104.472277 C99.296117,107.01904 103.442271,109.05645 104.034579,103.962925 C104.626886,98.8693996 103.442271,92.3327089 93.9653477,92.417601 C84.4884247,92.5024931 80.7653477,100.482349 81.3576554,105.40609 C81.3576554,105.40609 80.9345785,114.829112 86.6884247,117.970119 C92.4422708,121.111126 97.77304,120.347097 99.0422708,119.2435 C100.311502,118.139903 100.734579,124.846378 93.5422708,127.562925 C86.3499631,130.279472 77.3807324,132.571558 67.9884247,117.290982 C67.1422708,118.055011 61.5576554,126.119759 59.4422708,134.2694 C57.3268862,142.41904 55.3807324,148.021918 61.1345785,158.208968 C66.8884247,168.396018 74.67304,172.810407 77.0422708,186.138464 C79.4115016,199.466522 82.0038093,208.142781 77.9422708,225.20609 C69.9422708,225.20609 6.94227081,225.20609 2.94227081,225.20609 C2.51150158,224.311126 8.50380928,223.915443 5.11919389,208.804651 C1.73457851,193.69386 0.0571378958,188.132652 0.951127883,177.043485 C1.84511787,165.954317 2.94227081,163.755382 9.8268862,151.589486 C16.7115016,139.423591 19.8422708,137.240623 19.8422708,137.240623 C19.8422708,137.240623 5.88073235,131.807529 7.8268862,118.479472 C9.77304004,105.151414 23.2268862,102.774436 29.3191939,95.0492557 C35.4115016,87.3240758 33.7191939,86.475155 41.5038093,79.2593276 C49.2884247,72.0435003 51.8268862,74.8449391 51.8268862,74.8449391 C51.8268862,74.8449391 41.67304,70.0909823 39.8115016,59.6492557 C37.9499631,49.2075291 43.6191939,46.4909823 46.4115016,43.5197593 C49.2038093,40.5485363 52.5038093,36.388824 50.2191939,33.8420614 C47.9345785,31.2952989 45.9038093,32.9082485 44.97304,34.6909823 C44.0422708,36.4737161 43.196117,38.2564499 43.196117,38.2564499 Z" id="XMLID_1_" fill="#FFFFFF"></path>
            <path d="M76.6295391,182.196159 C76.6425193,182.353268 76.6416608,182.500824 76.6269635,182.638826 C76.3358699,185.372103 69.8371432,183.937488 68.0398815,183.685179 C66.2426199,183.43287 64.5480083,184.04842 59.302725,187.407256 C54.0574418,190.766093 52.7923212,191.487988 52.1617574,190.720635 C51.5311937,189.953283 56.9026626,185.183185 58.8360578,182.638826 C55.5322708,181.490717 48.0772724,187.946905 46.6956205,187.407256 C45.3139686,186.867607 46.6956205,185.679045 45.9286849,185.947201 C45.1617492,186.215357 45.0312158,184.310738 45.9286849,182.137128 C46.8261539,179.963518 56.5199408,174.86938 57.1970925,174.567444 C57.8742443,174.265507 53.9104041,172.46473 50.7805226,173.851804 C47.650641,175.238877 45.4732777,173.851804 45.0312158,173.433096 C44.5891539,173.014389 48.9584769,171.587817 50.7805226,170.295511 C52.6025682,169.003205 55.4638763,169 57.1970925,170.295511 C58.9303088,171.591022 63.4401916,171.493478 65.1731505,171.587817 C65.3176451,171.595683 65.4590154,171.589072 65.5972615,171.567983 C65.3930118,168.596237 65.7552132,168.088212 65.3685167,166.763014 C64.8674616,165.045914 64.1939921,164.321382 63.0291438,161.39285 C63.0291438,160.364167 62.5438491,159.613588 63.4065217,159.613588 C64.2691944,159.613588 65.474595,161.569662 66.4072037,162.503215 C67.3398124,163.436767 68.912204,167.261524 69.912204,169.261524 C70.912204,171.261524 71.8507007,171.423466 73.6311354,169.556361 C75.4115702,167.689256 82.1882037,154.969374 84.5167796,150.808386 C86.8453555,146.647399 92.9751545,132.841878 94.3316763,131.908326 C95.688198,130.974773 92.3886833,129.814562 90.5461954,128.907745 C59.1766736,113.78125 42.6330602,105.013832 40.9153551,102.605493 C38.3387975,98.9929831 38.1413043,87.3835526 42.6347826,82.5460526 C47.1282609,77.7085526 58.0661544,81.7256679 65.9611121,89.5 C72.4667944,95.9062831 92.5508955,109.787927 109.277286,122.700419 C115.078227,127.178649 110.552066,130.466061 109.277286,134.193897 C107.238826,140.154962 90.2022935,163.89169 85.6093963,169.556361 C81.0164991,175.221031 77.4789615,177.682019 77.3941789,178.70044 C77.3403457,179.347092 77.0884338,180.993445 76.6295391,182.196159 Z" id="Combined-Shape" fill="#00A2D6"></path>
        </g>
    </g>
</svg>