<?xml version="1.0" encoding="UTF-8"?>
<svg width="127px" height="226px" viewBox="0 0 127 226" version="1.1" xmlns="http://www.w3.org/2000/svg" xmlns:xlink="http://www.w3.org/1999/xlink">
    <!-- Generator: Sketch 48.2 (47327) - http://www.bohemiancoding.com/sketch -->
    <title>7 month</title>
    <desc>Created with Sketch.</desc>
    <defs></defs>
    <g id="7-month" stroke="none" stroke-width="1" fill="none" fill-rule="evenodd" transform="translate(-133.000000, -46.000000)">
        <g transform="translate(133.000000, 46.000000)" fill-rule="nonzero">
            <path d="M31.7428571,10 C31.7428571,10 28.5714286,21.9148936 28.5714286,24.4680851 C28.5714286,27.0212766 30.8857143,28.7234043 26.6,31.8723404 C22.3142857,35.0212766 20.0857143,35.4468085 20.9428571,36.9787234 C21.8,38.5106383 23.6857143,39.7021277 23,40.212766 C22.3142857,40.7234043 20.3428571,42 21.5428571,43.3617021 C22.7428571,44.7234043 24.4571429,44.893617 23.6857143,45.5744681 C22.9142857,46.2553191 21.3714286,46.0851064 21.8,47.4468085 C22.2285714,48.8085106 23.8571429,48.893617 23.5142857,49.6595745 C23.1714286,50.4255319 20.7714286,52.893617 22.0571429,54.5957447 C23.3428571,56.2978723 27.2,58.5106383 31.2285714,58.3404255 C35.2571429,58.1702128 37.4,56.7234043 38.2571429,59.7021277 C39.1142857,62.6808511 44,73.0638298 43.1428571,78.2553191 C42.2857143,83.4468085 41,89.3191489 41,89.3191489 C41,89.3191489 53,77.3191489 56,77.3191489 C59,77.3191489 61.4,75.1914894 61.4,75.1914894 L53.3428571,56.4680851 C53.3428571,56.4680851 52.4857143,47.0212766 52.5714286,46.8510638 C52.6571429,46.6808511 57.5428571,43.1914894 57.5428571,43.1914894 L61.9142857,34.6808511 L61.9142857,25.0638298 L49.7428571,22.4255319 L42.4571429,20.0425532 L38.8571429,11.787234 L36.1142857,11.106383 L31.7428571,10 Z" id="XMLID_2_" fill="#00A2D6"></path>
            <path d="M50.196117,38.2564499 C50.196117,38.2564499 50.7038093,34.6909823 46.0499631,32.1442197 C41.396117,29.5974571 30.5653477,26.1168816 28.1115016,18.7312701 C25.6576554,11.3456586 28.87304,8.6291118 42.496117,3.70537079 C56.1191939,-1.21837021 71.4345785,-0.709017694 78.2884247,2.17731324 C85.2268862,5.14853626 97.6653477,13.5528528 97.8345785,21.9571694 C98.0038093,30.3614859 94.3653477,35.2852269 92.0807324,39.1902629 C89.7115016,43.1801909 84.1268862,48.6981766 88.4422708,50.9053708 C92.7576554,53.112565 96.9884247,52.7729967 97.9191939,48.5283924 C98.8499631,44.2837881 97.07304,42.8406226 93.6038093,45.3024931 C90.1345785,47.7643636 92.0807324,42.6708384 94.7038093,41.5672413 C97.3268862,40.4636442 106.634579,38.1715578 108.496117,44.1140039 C110.357655,50.0564499 107.565348,59.0550111 99.5268862,61.0924212 C99.5268862,61.0924212 93.0115016,63.4693996 93.6884247,67.2046514 C94.3653477,70.9399032 94.1115016,73.6564499 101.47304,75.5240758 C108.834579,77.3917017 120.257655,76.5427809 124.911502,91.1442197 C129.565348,105.745659 120.934579,116.951414 114.67304,116.696738 C108.411502,116.442061 98.3422708,117.715443 98.3422708,106.594579 C98.3422708,95.4737161 107.057655,102.180191 107.057655,102.180191 C107.057655,102.180191 103.757655,101.925515 105.026886,104.472277 C106.296117,107.01904 110.442271,109.05645 111.034579,103.962925 C111.626886,98.8693996 110.442271,92.3327089 100.965348,92.417601 C91.4884247,92.5024931 87.7653477,100.482349 88.3576554,105.40609 C88.3576554,105.40609 87.9345785,114.829112 93.6884247,117.970119 C99.4422708,121.111126 104.77304,120.347097 106.042271,119.2435 C107.311502,118.139903 107.734579,124.846378 100.542271,127.562925 C93.3499631,130.279472 84.3807324,132.571558 74.9884247,117.290982 C74.1422708,118.055011 68.5576554,126.119759 66.4422708,134.2694 C64.3268862,142.41904 62.3807324,148.021918 68.1345785,158.208968 C73.8884247,168.396018 81.67304,172.810407 84.0422708,186.138464 C86.4115016,199.466522 89.0038093,208.142781 84.9422708,225.20609 C76.9422708,225.20609 13.9422708,225.20609 9.94227081,225.20609 C9.51150158,224.311126 15.5038093,223.915443 12.1191939,208.804651 C8.73457851,193.69386 3.30380928,193 1.36534774,183.676594 C-0.573113802,174.353188 1.36534774,166 9,155 C16.6346523,144 26.8422708,137.240623 26.8422708,137.240623 C26.8422708,137.240623 12.8807324,131.807529 14.8268862,118.479472 C16.77304,105.151414 30.2268862,102.774436 36.3191939,95.0492557 C42.4115016,87.3240758 40.7191939,86.475155 48.5038093,79.2593276 C56.2884247,72.0435003 58.8268862,74.8449391 58.8268862,74.8449391 C58.8268862,74.8449391 48.67304,70.0909823 46.8115016,59.6492557 C44.9499631,49.2075291 50.6191939,46.4909823 53.4115016,43.5197593 C56.2038093,40.5485363 59.5038093,36.388824 57.2191939,33.8420614 C54.9345785,31.2952989 52.9038093,32.9082485 51.97304,34.6909823 C51.0422708,36.4737161 50.196117,38.2564499 50.196117,38.2564499 Z" id="XMLID_1_" fill="#FFFFFF"></path>
            <path d="M45.5652174,106.733553 C45.7347826,99.9440789 45.1413043,87.3835526 49.6347826,82.5460526 C54.1282609,77.7085526 68.7108696,79.1513158 70.4065217,92.7302632 C72.1021739,106.309211 60.6565217,155.702632 59.2152174,158.078947 C57.773913,160.455263 26.15,191.177632 20.9782609,196.1 C15.8065217,201.022368 12.8478261,201.125658 12.7630435,202.144079 C12.6782609,203.1625 12.1021739,206.660526 11,207 C9.89782609,207.339474 2.17780277,204.489939 1.32997669,198.379413 C0.482150601,192.268886 1.23843629,191.923754 0.737381248,190.206654 C0.236326206,188.489553 0.154438398,188.877743 0.737381248,185.433764 C0.737381248,184.40508 0.737381248,183.270095 1.60005387,183.270095 C2.46272649,183.270095 2.0673913,183.902937 3,184.836489 C3.9326087,185.770042 4.28106857,190.705163 5.28106857,192.705163 C6.28106857,194.705163 7.21956522,194.867105 9,193 C10.7804348,191.132895 21.9108696,178.3625 25.2173913,173.609868 C28.523913,168.857237 41.8347826,149.507237 43.1913043,148.573684 C44.5478261,147.640132 43.9543478,147.894737 43.9543478,147.894737 L45.5652174,106.733553 Z" id="XMLID_4_" fill="#00A2D6"></path>
        </g>
    </g>
</svg>