<?xml version="1.0" encoding="UTF-8"?>
<svg width="134px" height="226px" viewBox="0 0 134 226" version="1.1" xmlns="http://www.w3.org/2000/svg" xmlns:xlink="http://www.w3.org/1999/xlink">
    <!-- Generator: Sketch 48.2 (47327) - http://www.bohemiancoding.com/sketch -->
    <title>8 month</title>
    <desc>Created with Sketch.</desc>
    <defs></defs>
    <g id="8-month" stroke="none" stroke-width="1" fill="none" fill-rule="evenodd" transform="translate(-126.000000, -45.000000)">
        <g transform="translate(126.000000, 45.000000)" fill-rule="nonzero">
            <path d="M38.7428571,11 C38.7428571,11 35.5714286,22.9148936 35.5714286,25.4680851 C35.5714286,28.0212766 37.8857143,29.7234043 33.6,32.8723404 C29.3142857,36.0212766 27.0857143,36.4468085 27.9428571,37.9787234 C28.8,39.5106383 30.6857143,40.7021277 30,41.212766 C29.3142857,41.7234043 27.3428571,43 28.5428571,44.3617021 C29.7428571,45.7234043 31.4571429,45.893617 30.6857143,46.5744681 C29.9142857,47.2553191 28.3714286,47.0851064 28.8,48.4468085 C29.2285714,49.8085106 30.8571429,49.893617 30.5142857,50.6595745 C30.1714286,51.4255319 27.7714286,53.893617 29.0571429,55.5957447 C30.3428571,57.2978723 34.2,59.5106383 38.2285714,59.3404255 C42.2571429,59.1702128 44.4,57.7234043 45.2571429,60.7021277 C46.1142857,63.6808511 51,74.0638298 50.1428571,79.2553191 C49.2857143,84.4468085 48,90.3191489 48,90.3191489 C48,90.3191489 60,78.3191489 63,78.3191489 C66,78.3191489 68.4,76.1914894 68.4,76.1914894 L60.3428571,57.4680851 C60.3428571,57.4680851 59.4857143,48.0212766 59.5714286,47.8510638 C59.6571429,47.6808511 64.5428571,44.1914894 64.5428571,44.1914894 L68.9142857,35.6808511 L68.9142857,26.0638298 L56.7428571,23.4255319 L49.4571429,21.0425532 L45.8571429,12.787234 L43.1142857,12.106383 L38.7428571,11 Z" id="XMLID_2_" fill="#00A2D6"></path>
            <path d="M57.2538462,39.0503597 C57.2538462,39.0503597 57.7615385,35.4848921 53.1076923,32.9381295 C48.4538462,30.3913669 37.6230769,26.9107914 35.1692308,19.5251799 C32.7153846,12.1395683 35.9307692,9.42302158 49.5538462,4.49928058 C63.1769231,-0.424460432 78.4923077,0.0848920863 85.3461538,2.97122302 C92.2846154,5.94244604 104.723077,14.3467626 104.892308,22.7510791 C105.061538,31.1553957 101.423077,36.0791367 99.1384615,39.9841727 C96.7692308,43.9741007 91.1846154,49.4920863 95.5,51.6992806 C99.8153846,53.9064748 104.046154,53.5669065 104.976923,49.3223022 C105.907692,45.0776978 104.130769,43.6345324 100.661538,46.0964029 C97.1923077,48.5582734 99.1384615,43.4647482 101.761538,42.3611511 C104.384615,41.257554 113.692308,38.9654676 115.553846,44.9079137 C117.415385,50.8503597 114.623077,59.8489209 106.584615,61.8863309 C106.584615,61.8863309 100.069231,64.2633094 100.746154,67.9985612 C101.423077,71.7338129 101.169231,74.4503597 108.530769,76.3179856 C115.892308,78.1856115 127.315385,77.3366906 131.969231,91.9381295 C136.623077,106.539568 127.992308,117.745324 121.730769,117.490647 C115.469231,117.235971 105.4,118.509353 105.4,107.388489 C105.4,96.2676259 114.115385,102.974101 114.115385,102.974101 C114.115385,102.974101 110.815385,102.719424 112.084615,105.266187 C113.353846,107.81295 117.5,109.85036 118.092308,104.756835 C118.684615,99.6633094 117.5,93.1266187 108.023077,93.2115108 C98.5461538,93.2964029 94.8230769,101.276259 95.4153846,106.2 C95.4153846,106.2 94.9923077,115.623022 100.746154,118.764029 C106.5,121.905036 111.830769,121.141007 113.1,120.03741 C114.369231,118.933813 114.792308,125.640288 107.6,128.356835 C100.407692,131.073381 91.4384615,133.365468 82.0461538,118.084892 C81.2,118.848921 75.6153846,126.913669 73.5,135.063309 C71.3846154,143.21295 69.4384615,148.815827 75.1923077,159.002878 C80.9461538,169.189928 88.7307692,173.604317 91.1,186.932374 C93.4692308,200.260432 96.0615385,208.936691 92,226 C84,226 21,226 17,226 C16.5692308,225.105036 22.5615385,224.709353 19.1769231,209.598561 C15.7923077,194.48777 3.18461538,190.158273 2.42307692,184.470504 C1.66153846,178.782734 1.23846154,169.699281 9.36153846,158.069065 C17.4846154,146.438849 33.9,138.034532 33.9,138.034532 C33.9,138.034532 19.9384615,132.601439 21.8846154,119.273381 C23.8307692,105.945324 37.2846154,103.568345 43.3769231,95.8431655 C49.4692308,88.1179856 47.7769231,87.2690647 55.5615385,80.0532374 C63.3461538,72.8374101 65.8846154,75.6388489 65.8846154,75.6388489 C65.8846154,75.6388489 55.7307692,70.8848921 53.8692308,60.4431655 C52.0076923,50.0014388 57.6769231,47.2848921 60.4692308,44.3136691 C63.2615385,41.342446 66.5615385,37.1827338 64.2769231,34.6359712 C61.9923077,32.0892086 59.9615385,33.7021583 59.0307692,35.4848921 C58.1,37.2676259 57.2538462,39.0503597 57.2538462,39.0503597 Z" id="XMLID_1_" fill="#FFFFFF"></path>
            <path d="M52.5652174,107.733553 C52.7347826,100.944079 52.1413043,88.3835526 56.6347826,83.5460526 C61.1282609,78.7085526 75.7108696,80.1513158 77.4065217,93.7302632 C79.1021739,107.309211 67.6565217,156.702632 66.2152174,159.078947 C64.773913,161.455263 33.15,192.177632 27.9782609,197.1 C22.8065217,202.022368 20.4326087,202.955921 20.3478261,203.974342 C20.2630435,204.992763 20.6869565,209.490789 19.5847826,209.830263 C18.4826087,210.169737 6.69782609,206.435526 5.85,200.325 C5.00217391,194.214474 3.39130435,193.705263 2.28913043,192.177632 C1.18695652,190.65 -0.339130435,188.273684 1.78043478,183.351316 C2.37391304,182.332895 2.8826087,183.181579 2.8826087,184.030263 C2.8826087,184.878947 4.0673913,187.066447 5,188 C5.9326087,188.933553 11.1043478,192.413158 11.4434783,193.431579 C11.7826087,194.45 11.4434783,196.656579 13.223913,194.789474 C15.0043478,192.922368 28.9108696,179.3625 32.2173913,174.609868 C35.523913,169.857237 48.8347826,150.507237 50.1913043,149.573684 C51.5478261,148.640132 50.9543478,148.894737 50.9543478,148.894737 L52.5652174,107.733553 Z" id="XMLID_4_" fill="#00A2D6"></path>
            <path d="M17.665625,140.478261 C15.640625,142.565217 12.265625,149.521739 12.18125,151 C12.096875,152.478261 10.578125,154.826087 14.375,155.695652 C18.171875,156.565217 23.65625,157 24.8375,155.695652 C26.01875,154.391304 25.85,154.043478 24.8375,153.956522 C23.825,153.869565 30.06875,152.391304 30.659375,151.521739 C31.25,150.652174 27.36875,149.956522 25.428125,148.478261 C23.403125,147 23.065625,145.26087 23.909375,145.434783 C24.753125,145.608696 35.6375,149.695652 37.071875,149.086957 C38.50625,148.478261 38.253125,147.608696 36.059375,146.391304 C33.865625,145.173913 28.296875,142.913043 29.140625,142.217391 C29.984375,141.521739 34.9625,138.73913 34.709375,138.043478 C34.45625,137.347826 33.865625,136.652174 31.840625,137.869565 C29.815625,139.086957 28.803125,140.652174 27.5375,140.478261 C26.271875,140.304348 22.559375,138.652174 20.7875,138.73913 C19.015625,138.826087 17.665625,140.478261 17.665625,140.478261 Z" id="XMLID_5_" fill="#00A2D6"></path>
        </g>
    </g>
</svg>