<?xml version="1.0" encoding="UTF-8"?>
<svg width="143px" height="226px" viewBox="0 0 143 226" version="1.1" xmlns="http://www.w3.org/2000/svg" xmlns:xlink="http://www.w3.org/1999/xlink">
    <!-- Generator: Sketch 48.2 (47327) - http://www.bohemiancoding.com/sketch -->
    <title>9 month</title>
    <desc>Created with Sketch.</desc>
    <defs></defs>
    <g id="9-month" stroke="none" stroke-width="1" fill="none" fill-rule="evenodd" transform="translate(-117.000000, -45.000000)">
        <g transform="translate(111.000000, 45.000000)" fill-rule="nonzero">
            <path d="M53.7428571,11 C53.7428571,11 50.5714286,22.9148936 50.5714286,25.4680851 C50.5714286,28.0212766 52.8857143,29.7234043 48.6,32.8723404 C44.3142857,36.0212766 42.0857143,36.4468085 42.9428571,37.9787234 C43.8,39.5106383 45.6857143,40.7021277 45,41.212766 C44.3142857,41.7234043 42.3428571,43 43.5428571,44.3617021 C44.7428571,45.7234043 46.4571429,45.893617 45.6857143,46.5744681 C44.9142857,47.2553191 43.3714286,47.0851064 43.8,48.4468085 C44.2285714,49.8085106 45.8571429,49.893617 45.5142857,50.6595745 C45.1714286,51.4255319 42.7714286,53.893617 44.0571429,55.5957447 C45.3428571,57.2978723 49.2,59.5106383 53.2285714,59.3404255 C57.2571429,59.1702128 59.4,57.7234043 60.2571429,60.7021277 C61.1142857,63.6808511 66,74.0638298 65.1428571,79.2553191 C64.2857143,84.4468085 63,90.3191489 63,90.3191489 C63,90.3191489 75,78.3191489 78,78.3191489 C81,78.3191489 83.4,76.1914894 83.4,76.1914894 L75.3428571,57.4680851 C75.3428571,57.4680851 74.4857143,48.0212766 74.5714286,47.8510638 C74.6571429,47.6808511 79.5428571,44.1914894 79.5428571,44.1914894 L83.9142857,35.6808511 L83.9142857,26.0638298 L71.7428571,23.4255319 L64.4571429,21.0425532 L60.8571429,12.787234 L58.1142857,12.106383 L53.7428571,11 Z" id="XMLID_2_" fill="#00A2D6"></path>
            <path d="M72.2538462,39.0503597 C72.2538462,39.0503597 72.7615385,35.4848921 68.1076923,32.9381295 C63.4538462,30.3913669 52.6230769,26.9107914 50.1692308,19.5251799 C47.7153846,12.1395683 50.9307692,9.42302158 64.5538462,4.49928058 C78.1769231,-0.424460432 93.4923077,0.0848920863 100.346154,2.97122302 C107.284615,5.94244604 119.723077,14.3467626 119.892308,22.7510791 C120.061538,31.1553957 116.423077,36.0791367 114.138462,39.9841727 C111.769231,43.9741007 106.184615,49.4920863 110.5,51.6992806 C114.815385,53.9064748 119.046154,53.5669065 119.976923,49.3223022 C120.907692,45.0776978 119.130769,43.6345324 115.661538,46.0964029 C112.192308,48.5582734 114.138462,43.4647482 116.761538,42.3611511 C119.384615,41.257554 128.692308,38.9654676 130.553846,44.9079137 C132.415385,50.8503597 129.623077,59.8489209 121.584615,61.8863309 C121.584615,61.8863309 115.069231,64.2633094 115.746154,67.9985612 C116.423077,71.7338129 116.169231,74.4503597 123.530769,76.3179856 C130.892308,78.1856115 142.315385,77.3366906 146.969231,91.9381295 C151.623077,106.539568 142.992308,117.745324 136.730769,117.490647 C130.469231,117.235971 120.4,118.509353 120.4,107.388489 C120.4,96.2676259 129.115385,102.974101 129.115385,102.974101 C129.115385,102.974101 125.815385,102.719424 127.084615,105.266187 C128.353846,107.81295 132.5,109.85036 133.092308,104.756835 C133.684615,99.6633094 132.5,93.1266187 123.023077,93.2115108 C113.546154,93.2964029 109.823077,101.276259 110.415385,106.2 C110.415385,106.2 109.992308,115.623022 115.746154,118.764029 C121.5,121.905036 126.830769,121.141007 128.1,120.03741 C129.369231,118.933813 129.792308,125.640288 122.6,128.356835 C115.407692,131.073381 106.438462,133.365468 97.0461538,118.084892 C96.2,118.848921 90.6153846,126.913669 88.5,135.063309 C86.3846154,143.21295 84.4384615,148.815827 90.1923077,159.002878 C95.9461538,169.189928 103.730769,173.604317 106.1,186.932374 C108.469231,200.260432 111.061538,208.936691 107,226 C99,226 36,226 32,226 C31.5692308,225.105036 31.5615385,224.709353 28.1769231,209.598561 C24.7923077,194.48777 15.1846154,191.158273 14.4230769,185.470504 C13.6615385,179.782734 11.2384615,166.699281 19.3615385,155.069065 C27.4846154,143.438849 46.9,138.034532 47.9,137.034532 C48.9,136.034532 34.9384615,132.601439 36.8846154,119.273381 C38.8307692,105.945324 52.2846154,103.568345 58.3769231,95.8431655 C64.4692308,88.1179856 62.7769231,87.2690647 70.5615385,80.0532374 C78.3461538,72.8374101 80.8846154,75.6388489 80.8846154,75.6388489 C80.8846154,75.6388489 70.7307692,70.8848921 68.8692308,60.4431655 C67.0076923,50.0014388 72.6769231,47.2848921 75.4692308,44.3136691 C78.2615385,41.342446 81.5615385,37.1827338 79.2769231,34.6359712 C76.9923077,32.0892086 74.9615385,33.7021583 74.0307692,35.4848921 C73.1,37.2676259 72.2538462,39.0503597 72.2538462,39.0503597 Z" id="XMLID_1_" fill="#FFFFFF"></path>
            <path d="M67.5652174,107.733553 C67.7347826,100.944079 67.1413043,88.3835526 71.6347826,83.5460526 C76.1282609,78.7085526 90.7108696,80.1513158 92.4065217,93.7302632 C94.1021739,107.309211 82.6565217,156.702632 81.2152174,159.078947 C79.773913,161.455263 48.15,192.177632 42.9782609,197.1 C37.8065217,202.022368 33.0847826,202.981579 33,204 C32.9152174,205.018421 31.1021739,206.660526 30,207 C28.8978261,207.339474 21.223913,208 19,202 C16.776087,196 15.1673913,195.388158 14.6586957,193 C14.15,190.611842 12.5391304,190.922368 14.6586957,186 C15.2521739,184.981579 15.7608696,185.830263 15.7608696,186.678947 C15.7608696,187.527632 15.8434783,188.276974 16.776087,189.210526 C17.7086957,190.144079 22.8804348,193.623684 23.2195652,194.642105 C23.5586957,195.660526 25.2195652,196.509211 27,194.642105 C28.7804348,192.775 43.9108696,179.3625 47.2173913,174.609868 C50.523913,169.857237 63.8347826,150.507237 65.1913043,149.573684 C66.5478261,148.640132 65.9543478,148.894737 65.9543478,148.894737 L67.5652174,107.733553 Z" id="XMLID_4_" fill="#00A2D6"></path>
            <path d="M8.89247604,166.648371 C6.86747604,168.735328 3.49247604,175.69185 3.40810104,177.17011 C3.32372604,178.648371 1.80497604,180.996197 5.60185104,181.865763 C9.39872604,182.735328 14.883101,183.17011 16.064351,181.865763 C17.245601,180.561415 17.076851,180.213589 16.064351,180.126632 C15.051851,180.039676 21.295601,178.561415 21.886226,177.69185 C22.476851,176.822284 18.595601,176.126632 16.654976,174.648371 C14.629976,173.17011 14.292476,171.43098 15.136226,171.604893 C15.979976,171.778806 26.864351,175.865763 28.298726,175.257067 C29.733101,174.648371 29.479976,173.778806 27.286226,172.561415 C25.092476,171.344023 19.523726,169.083154 20.367476,168.387502 C21.211226,167.69185 26.189351,164.909241 25.936226,164.213589 C25.683101,163.517937 25.092476,162.822284 23.067476,164.039676 C21.042476,165.257067 20.029976,166.822284 18.764351,166.648371 C17.498726,166.474458 13.786226,164.822284 12.014351,164.909241 C10.242476,164.996197 8.89247604,166.648371 8.89247604,166.648371 Z" id="XMLID_5_" fill="#00A2D6" transform="translate(16.116228, 173.031788) rotate(-46.000000) translate(-16.116228, -173.031788) "></path>
        </g>
    </g>
</svg>