<svg width="133" height="227" viewBox="0 0 133 227" version="1.1" xmlns="http://www.w3.org/2000/svg" xmlns:xlink="http://www.w3.org/1999/xlink">
  <g id="Canvas" fill="none">
    <g id="Birth">
      <g id="Combined Shape">
        <path d="M 35.1589 78.8356C 34.158 77.441 33.4577 75.7106 33.2242 73.6045C 32.8075 69.8472 33.0615 67.3178 33.7486 65.4586C 33.0032 63.963 32.4149 62.2949 32.0859 60.449C 30.2243 50.0072 35.8936 47.2907 38.6859 44.3195C 41.4782 41.3483 44.7782 37.1885 42.4936 34.6418C 40.2089 32.095 38.1782 33.708 37.2474 35.4907C 36.3166 37.2734 35.4705 39.0562 35.4705 39.0562C 35.4705 39.0562 35.9782 35.4907 31.3243 32.9439C 26.6705 30.3972 15.8397 26.9166 13.3859 19.531C 10.932 12.1454 7.97048 7.90077 21.5936 2.97703C 35.2166 -1.94671 44.8628 0.0906966 51.7166 2.97703C 58.6551 5.94825 69.9089 11.3545 73.632 19.531C 77.3551 27.7075 79.6397 36.0849 77.3551 39.99C 74.9859 43.9799 69.4012 49.4979 73.7166 51.7051C 78.032 53.9123 82.2628 53.5727 83.1936 49.3281C 84.1243 45.0835 82.3474 43.6403 78.8782 46.1022C 75.4089 48.5641 77.3551 43.4706 79.9782 42.367C 82.6012 41.2634 91.9089 38.9713 93.7705 44.9137C 95.632 50.8562 92.8397 59.8547 84.8012 61.8921C 84.8012 61.8921 78.2859 64.2691 78.9628 68.0044C 79.6397 71.7396 79.3859 74.4562 86.7474 76.3238C 94.1089 78.1914 105.532 77.3425 110.186 91.9439C 114.84 106.545 106.209 117.751 99.9474 117.496C 93.6859 117.242 83.6166 118.515 83.6166 107.394C 83.6166 96.2734 92.332 102.98 92.332 102.98C 92.332 102.98 89.032 102.725 90.3012 105.272C 91.5705 107.819 95.7166 109.856 96.3089 104.763C 96.9012 99.6691 95.7166 93.1324 86.2397 93.2173C 76.7628 93.3022 73.0397 101.282 73.632 106.206C 73.632 106.206 73.2089 115.629 78.9628 118.77C 84.7166 121.911 90.0474 121.147 91.3166 120.043C 92.5859 118.94 93.0089 125.646 85.8166 128.363C 78.6243 131.079 69.6551 133.371 60.2628 118.091C 59.4166 118.855 63.832 126.919 61.7166 135.069C 59.6012 143.219 56.6551 148.822 62.4089 159.009C 68.1628 169.196 73.9474 173.61 76.3166 186.938C 78.6859 200.266 81.2782 208.942 77.2166 226.006C 69.2166 226.006 9.21663 226.006 5.21663 226.006C 4.78586 225.111 10.1012 218.437 10.1012 204.302C 10.1012 190.166 9.77562 180.855 13.0285 167.437C 16.2814 154.018 24.9103 150.552 24.9103 150.552C 24.9103 150.552 -1.84491 132.607 0.101248 119.279C 2.0474 105.951 15.5012 103.574 21.5936 95.849C 27.6859 88.1238 25.9936 87.2749 33.7782 80.059C 34.2581 79.6142 34.7181 79.2073 35.1589 78.8356ZM 42.6675 75.1174C 43.6836 75.1837 44.1012 75.6447 44.1012 75.6447C 44.1012 75.6447 43.5152 75.3703 42.5989 74.8086C 42.6156 74.9134 42.6387 75.0164 42.6675 75.1174Z" transform="translate(21.2338 0)" fill="white"/>
      </g>
      <g id="path0 fill">
        <path d="M 28.6305 -6.22461e-07C 28.6305 -6.22461e-07 31.9078 14.6222 28.6305 23.8133C 25.3532 33.0044 7.8131 44.1799 7.8131 44.1799L 4.01331e-07 27.9388C 4.01331e-07 27.9388 2.93646 24.0221 5.45342 20.0533C 7.97041 16.0844 7.23629 13.4733 9.38617 11.6978C 11.5361 9.92219 12.5324 8.30334 12.9257 5.56164C 13.319 2.82 28.6305 -6.22461e-07 28.6305 -6.22461e-07Z" transform="translate(44.8032 89.2602) scale(-1 1)" fill="#5EA7D6"/>
      </g>
      <g id="path1 fill">
        <path d="M 40.2214 9.70339C 38.462 15.8549 38.2809 18.4287 39.4969 24.9663C 40.713 31.4782 45.9395 44.5275 27.9314 47.6162C 9.92315 50.7048 -1.12497 38.2731 0.0910934 25.8157C 1.30716 13.3583 23.7139 -1.23276e-06 23.7139 -1.23276e-06L 40.2214 9.70339Z" transform="translate(83.1387 60.0473) scale(-1 1)" fill="white"/>
      </g>
      <g id="path2 fill">
        <path d="M 16.3055 7.43262e-07C 16.3055 7.43262e-07 21.7525 0.215229 26.829 9.19029C 31.9056 18.1653 28.5067 38.526 12.0787 30.993C 12.0787 30.993 2.20885 26.3225 0.160796 18.2299C -1.88725 10.1373 16.3055 7.43262e-07 16.3055 7.43262e-07Z" transform="translate(43.6727 19.2129) scale(-1 1)" fill="white"/>
      </g>
      <g id="path3 fill">
        <path d="M 10.2669 1.49925C 10.2669 1.49925 6.28119 3.35012 4.79632 6.69197C 3.31146 10.0339 3.75432 15.0981 3.05096 16.3319C 2.34761 17.5659 0.107288 18.7227 0.0030878 19.9823C -0.0750626 21.2163 1.3577 21.9874 1.17535 22.6815C 0.992993 23.3756 0.367796 23.5813 0.341745 23.9926C 0.315695 24.4039 0.758545 25.3293 0.966948 25.5607C 0.966948 25.5607 0.445945 25.972 0.445945 26.1519C 0.445945 26.3319 0.315691 26.846 0.810645 27.3601C 1.3056 27.8486 1.12325 28.7483 0.940898 29.3652C 0.732494 29.9565 0.836701 31.2418 2.29551 31.8845C 3.75432 32.5271 14.7214 35.612 19.7231 29.0568C 24.7247 22.5016 27.8768 23.4527 29.1793 17.1546C 30.4818 10.8565 28.997 4.24986 23.3962 1.26789C 17.7954 -1.71408 10.2669 1.49925 10.2669 1.49925Z" transform="translate(37.3966 62.9852) scale(-1 1)" fill="#00A2D6"/>
      </g>
      <g id="path4 fill">
        <path d="M 13.9746 26.5927C 13.9746 26.5927 13.6369 27.9431 12.0265 28.1249C 10.416 28.3066 9.87053 27.7353 9.87053 27.7353C 9.87053 27.7353 11.7667 27.0861 11.9226 25.502C 9.8965 23.3465 8.80554 20.5678 9.55882 16.4906C 9.09127 15.9193 8.96139 14.4909 9.55882 13.3483C 9.55882 13.3483 8.72761 14.4649 6.98732 14.4649C 6.98732 14.4649 7.8964 14.1533 8.31201 13.4522C 8.31201 13.4522 5.37685 14.387 2.72738 11.6862C 2.72738 11.6862 3.53261 11.842 4.15602 11.6862C 4.15602 11.6862 1.35071 11.5045 0.181829 9.34899L -8.06378e-09 2.41515L 6.67561 -9.85205e-07C 6.67561 -9.85205e-07 10.1303 2.38918 13.2213 2.51903C 13.2213 2.51903 11.2732 2.12949 9.50687 0.389541C 13.5331 1.50622 21.2736 -0.0519412 26.3387 3.06439C 31.4039 6.18074 31.7156 10.6475 31.5338 11.3746C 35.482 12.8029 37.3262 16.3607 36.9366 20.2562C 36.5469 24.1516 34.391 26.9563 32.6507 27.7094C 30.9104 28.4625 16.3643 29.3714 16.3643 29.3714C 16.3643 29.3714 16.8578 26.1771 13.9746 26.5927Z" transform="translate(36.9877 55.8517) scale(-1 1)" fill="white"/>
      </g>
      <g id="path6 fill">
        <path d="M 29.6191 18.9488C 29.6191 18.9488 19.8502 21.034 17.1671 28.8012C 17.1671 28.8012 22.846 40.9733 25.425 50.4347L 1.41479e-06 21.3728L 17.5057 -5.25586e-07L 29.6191 18.9488Z" transform="translate(79.5542 54.1183) scale(-1 1)" fill="#00A2D6"/>
      </g>
      <g id="path8 fill">
        <path d="M 26.9873 1.67148e-06C 26.9873 1.67148e-06 32.5401 2.72264 39.6239 12.576C 46.7076 22.4294 52.7015 30.2084 56.5157 34.8757C 60.3304 39.5431 66.1164 47.7111 66.3239 51.7302C 66.5319 55.7491 64.0406 63.1392 62.6397 67.0286C 62.6397 67.0286 71.0986 87.3839 77.0666 112.588L 19.9295 112.588C 19.9295 112.588 17.5424 107.843 19.9295 103.175C 18.0536 98.192 19.7314 87.5835 15.9345 78.8698C 11.4336 68.5404 1.47885 59.4699 0.49363 45.7145C -1.32271 20.355 0.702259 0.155581 26.9873 1.67148e-06Z" transform="translate(109.053 74.9712) scale(-1 1)" fill="white"/>
      </g>
      <g id="path9 fill">
        <path d="M 20.4007 1.86117C 20.658 2.16745 21.6613 3.6478 22.0729 4.59216C 22.4845 5.53651 22.5617 6.68507 22.0729 7.96121C 21.5841 9.23739 20.5036 14.8014 20.0405 17.5579C 19.5775 20.3145 19.0372 23.4793 18.4712 23.9387C 17.9053 24.3981 13.9435 26.7463 11.551 27.9969C 9.15843 29.2476 8.77254 29.758 7.71782 29.7836C 6.66304 29.8091 5.89478e-08 30.4216 5.89478e-08 30.4216L 8.95263 9.08425C 8.95263 9.08425 13.0431 9.95202 14.2007 9.95202C 15.3584 9.95202 16.5418 9.33949 16.8248 8.98217C 17.1078 8.6248 17.7509 6.12353 17.4422 5.61308C 17.1335 5.10261 15.487 4.43902 14.8953 3.316C 14.3036 2.19297 14.9211 0.202177 15.3841 0.0235148C 15.8472 -0.155147 17.8024 0.738149 18.5742 0.89129C 19.3459 1.04443 20.0663 1.47832 20.4007 1.86117Z" transform="translate(33.4012 123.26) scale(-1 1)" fill="#00A2D6"/>
      </g>
      <g id="path11 fill">
        <path d="M 10.557 9.8227C 10.557 9.8227 11.1206 7.72204 9.99344 4.67353C 8.86629 1.62503 7.17561 0.190442 4.81884 0.0111188C 2.46209 -0.168205 -0.432616 1.85559 0.0541042 3.62321C 0.540827 5.39083 6.86821 10.2838 7.99531 10.6424C 9.12246 11.0011 10.557 9.8227 10.557 9.8227Z" transform="translate(52.5012 91.9999) scale(-1 1)" fill="#D1E0EB"/>
      </g>
      <g id="path12 fill">
        <path d="M 29.8023 3.16029C 29.8023 3.16029 28.4969 3.44686 26.6285 2.24851C 24.7601 1.05016 23.0964 -0.226342 20.2554 0.0341682C 17.4143 0.294678 15.4691 1.46699 14.7268 5.58305C 14.0101 9.69912 13.831 12.0437 13.831 12.0437C 13.831 12.0437 12.8839 11.4445 11.5274 9.49072C 10.1709 7.53688 8.32803 4.72336 6.2804 5.32254C 4.23282 5.9217 2.87627 7.48478 2.87627 7.48478C 2.87627 7.48478 3.13223 10.142 1.92926 12.6168C 0.726287 15.0917 0.316762 15.2219 0.316762 15.2219C 0.316762 15.2219 -0.937394 19.1817 1.54533 21.0053C 4.02806 22.8288 7.8929 23.2717 10.1197 25.3557C 12.3464 27.4398 13.1911 29.9929 17.2095 29.7063C 21.228 29.3937 30.0583 15.5606 30.4934 10.0899C 30.9285 4.61916 29.8023 3.16029 29.8023 3.16029Z" transform="translate(49.5815 94.2904) scale(-1 1)" fill="#77BFED"/>
      </g>
      <g id="path13 fill">
        <path d="M 21.948 4.15527e-07C 22.7553 3.60224 23.7139 9.26289 24.723 11.8874C 25.7321 14.5119 27.3971 20.4298 21.948 22.231L 19.5513 29.4869L 13.0679 32.1371L -1.59021e-07 29.7956L 2.52275 23.0543L 21.948 4.15527e-07Z" transform="translate(30.7102 102.223) scale(-1 1)" fill="#77BFED"/>
      </g>
      <g id="path14 fill">
        <path d="M 25.2405 8.41444C 28.2773 8.95628 35.441 11.1753 38.5557 22.2704C 41.6703 33.3655 55.0895 67.6052 57.8406 74.3143C 57.8406 74.3143 63.2913 65.0251 69.8583 59.3486C 76.4248 53.6722 86.5995 38.526 86.8331 33.3654C 87.0666 28.2049 86.1579 27.3535 86.8331 23.0445C 87.5077 18.7354 89.6622 15.0973 89.7403 11.4075C 89.8178 7.71774 89.3507 7.79514 89.7403 5.60192C 90.1293 3.40873 90.3109 2.22181 90.3109 1.42194C 90.3109 0.622056 91.012 -0.0488118 92.0763 0.00279327C 93.166 0.0543982 94.7494 2.1186 94.7234 5.42131C 94.6974 8.72406 94.8534 11.3559 95.7101 13.1105C 96.5663 14.865 97.2669 15.7165 98.8763 15.923C 100.486 16.1294 104.846 15.8972 107.312 14.22C 107.312 14.22 108.428 15.8456 107.883 18.0388C 107.338 20.232 105.469 22.1156 104.639 26.0375C 103.808 29.9595 103.912 32.1011 103.289 33.4428C 102.692 34.7846 97.6305 39.3 95.8136 42.6027C 93.9967 45.9055 90.83 54.5491 85.8469 65.8508C 80.8633 77.1525 77.3335 87.8347 70.922 94.3627C 64.5111 100.891 57.192 105.148 53.1686 105.148C 49.1196 105.148 43.4872 95.6529 38.4259 88.2473C 33.3646 80.8423 18.3533 60.4778 12.8248 50.1565C 12.8248 50.1565 8.48626 48.891 3.77474 42.6027C -0.936794 36.3145 -0.299819 41.2868 0.738406 29.9337C 1.77663 18.5806 11.5619 5.9632 25.2405 8.41444Z" transform="translate(109.782 67.11) scale(-1 1)" fill="#00A2D6"/>
      </g>
      <g id="path16 fill">
        <path d="M 39.1022 1.38671C 39.1022 1.38671 44.949 12.7837 43.0001 21.0322C 41.0511 29.2807 38.897 27.5893 39.1022 33.2097C 39.3073 38.8302 39.8459 41.2241 39.7433 42.0047C 39.6407 42.7853 39.1022 43.2537 37.9995 43.3057C 36.8968 43.3578 35.0504 43.4358 34.7684 43.9302C 34.4863 44.4246 34.794 45.0231 34.5632 45.4394C 34.3324 45.8557 31.8706 46.6103 31.1013 46.5322C 31.1013 46.5322 31.2039 48.4578 30.4858 48.744C 29.7678 49.0302 27.7932 49.1343 26.5367 49.9409C 25.2801 50.7476 24.8442 54.052 23.4337 54.4165C 22.0233 54.7805 17.2535 55.0151 11.6375 49.9409C 6.63692 45.4134 2.35439 40.9639 1.20041 32.5332C -0.00485408 23.6342 -1.723 11.1444 4.14947 4.04079C 10.0476 -3.08882 39.1022 1.38671 39.1022 1.38671Z" transform="translate(65.0226 20.9144) scale(-1 1)" fill="#00A2D6"/>
      </g>
      <g id="path17 fill">
        <path d="M 99.2361 13.4428C 102.615 19.3426 105.604 30.6483 97.6243 38.7053C 89.6442 46.7622 68.3548 47.0221 60.6607 42.1359C 60.6607 42.1359 60.3486 56.3005 57.4637 64.5396C 54.5783 72.8042 49.717 75.7151 39.3195 75.4031C 28.9218 75.0917 20.2138 86.1115 18.3162 100.614C 16.4187 115.116 21.3736 114.998 20.8537 116.428C 20.3338 117.857 -1.53418e-07 110.39 -1.53418e-07 100.614C -1.53418e-07 90.8381 18.3162 75.4031 28.4654 62.1865C 38.6145 48.9699 37.5519 46.0345 39.1116 35.2485C 40.6712 24.4627 43.5304 5.61974 62.5063 1.20144C 81.4822 -3.21689 94.6092 5.38584 99.2361 13.4428Z" transform="translate(119.177 0.799713) scale(-1 1)" fill="white"/>
      </g>
      <g id="path18 fill">
        <path d="M 7.39988 7.22792C 7.39988 7.22792 8.33227 3.73982 6.58403 1.27764C 4.83583 -1.18455 0.950876 -0.158638 0.13504 4.97093C -0.6808 10.1005 2.34945 16.2559 5.2049 16.3585C 6.19553 16.379 7.39988 7.22792 7.39988 7.22792Z" transform="translate(60.37 36.8568) scale(-1 1)" fill="#00A2D6"/>
      </g>
      <g id="path23 fill">
        <path d="M 13.4038 7.77395C 13.4038 7.77395 12.9561 4.37118 10.7703 2.22481C 8.58436 0.0784264 4.89735 -0.759184 2.63247 0.811338C 0.367584 2.38185 -0.238143 5.02557 0.0778875 7.06723C 0.393918 9.10892 1.9214 10.1821 3.71224 11.517C 5.50309 12.852 6.74089 13.5064 7.16226 14.2393C 7.58359 14.9722 9.9275 16.0192 11.0863 15.6004C 12.2451 15.1816 13.9305 11.0197 13.4038 7.77395Z" transform="translate(59.0887 94.041) scale(-1 1)" fill="#5EA7D6"/>
      </g>
    </g>
  </g>
</svg>

