<?xml version="1.0" encoding="UTF-8"?>
<svg width="48px" height="54px" viewBox="0 0 48 54" version="1.1" xmlns="http://www.w3.org/2000/svg" xmlns:xlink="http://www.w3.org/1999/xlink">
    <!-- Generator: Sketch 48.2 (47327) - http://www.bohemiancoding.com/sketch -->
    <title>4mom</title>
    <desc>Created with Sketch.</desc>
    <defs></defs>
    <g id="Checklist-InnerPage" stroke="none" stroke-width="1" fill="none" fill-rule="evenodd" transform="translate(-47.000000, -750.000000)">
        <g id="Group-2" transform="translate(0.000000, 725.000000)" fill="#F176AF" fill-rule="nonzero">
            <g id="4mom" transform="translate(47.000000, 25.000000)">
                <path d="M39.0763261,36.1852446 C32.1702261,33.7432887 29.9634189,34.9736821 29.9634189,30.5613258 C29.9634189,30.3507119 29.9770172,29.954928 30.0022711,29.5500651 L30.3401714,29.5500651 C35.0596901,29.8876751 39.6066592,30.2102652 40.6185315,29.5163265 C42.2346704,28.408894 36.6406334,26.7023495 36.6406334,12.3757823 C36.6406334,5.13689511 31.7770186,0.000112088309 24.3970356,0.000112088309 C24.3343007,0.000112088309 24.2727084,0.00381100251 24.2108877,0.0049318856 C24.0671344,-5.75171421e-14 24.0586783,0.000448353236 24.0498794,0.000448353236 C23.8967559,-5.75171421e-14 23.8691022,0.00201758956 23.8413343,0.00201758956 C23.7274058,0.00381100251 23.6658136,0.000112088309 23.6031929,0.000112088309 C16.2234385,0.000112088309 11.3595951,5.13689511 11.3595951,12.3757823 C11.3595951,26.7022374 5.76590097,28.4090061 7.38169707,29.5163265 C8.39368365,30.2099289 12.9406527,29.887563 17.6601715,29.5500651 L17.9981859,29.5500651 C18.0233256,29.954928 18.0368096,30.3510481 18.0368096,30.5613258 C18.0368096,34.9736821 15.8298881,33.7432887 8.92401673,36.1852446 C1.99689087,38.6358313 0,41.1341676 0,42.8382462 C0,44.8921641 0,46.9460821 0,49 L0,49 C3.38176876e-16,51.7614237 2.23857625,54 5,54 L23.9327513,54 L43,54 C45.7614237,54 48,51.7614237 48,49 C48,46.9460821 48,44.8921641 48,42.8382462 C48.0002285,41.1343918 46.0034519,38.6360555 39.0763261,36.1852446 Z" id="mom"></path>
            </g>
        </g>
    </g>
</svg>