<?xml version="1.0" encoding="UTF-8"?>
<svg width="44px" height="60px" viewBox="0 0 44 60" version="1.1" xmlns="http://www.w3.org/2000/svg" xmlns:xlink="http://www.w3.org/1999/xlink">
    <!-- Generator: Sketch 48.2 (47327) - http://www.bohemiancoding.com/sketch -->
    <title>4baby</title>
    <desc>Created with Sketch.</desc>
    <defs></defs>
    <g id="Checklist-InnerPage" stroke="none" stroke-width="1" fill="none" fill-rule="evenodd" transform="translate(-46.000000, -1148.000000)">
        <g id="Group-2" transform="translate(0.000000, 1127.000000)" fill="#F176AF" fill-rule="nonzero">
            <g id="4baby" transform="translate(46.000000, 21.000000)">
                <path d="M42.9781348,30.8050761 L35.1192097,21.8659433 C33.2321373,19.7176358 30.7314713,18.2541818 28.003472,17.6361914 C30.2865443,15.824169 31.7801377,13.0430385 31.7801377,9.88854125 C31.7801377,4.4349761 27.3948055,0 22.0024006,0 C16.6099957,0 12.2246635,4.4349761 12.2246635,9.88842537 C12.2246635,13.0428068 13.7206631,15.8264866 16.0013292,17.638509 C13.2733299,18.2540659 10.7726639,19.7200693 8.88559146,21.8658274 L1.07559347,30.7506123 C0.381333235,31.4501825 0,32.3822088 0,33.373566 C0,35.4180445 1.64507249,37.08174 3.66666572,37.08174 C4.64692589,37.08174 5.56840482,36.6960899 6.29933171,35.9544551 L12.2222573,29.3885536 L12.2222573,37.7912759 L6.32133171,43.4771813 C5.39733194,44.4092077 4.88892583,45.6501713 4.88892583,46.9702812 C4.88892583,48.2903912 5.39733194,49.5313548 6.34825878,50.4930465 L14.51759,58.2431302 C15.2093294,58.9452497 16.1309229,59.3308998 17.1111831,59.3308998 C19.1327763,59.3308998 20.7778488,57.6672044 20.7778488,55.6227258 C20.7778488,54.6313687 20.3965156,53.6994582 19.7047762,52.9997721 L15.1703711,48.4140356 L18.8564014,44.498088 L25.1434727,44.498088 L28.8297322,48.4139197 L24.2977333,53.0022056 C23.6034731,53.7017758 23.2221399,54.6338022 23.2221399,55.6251593 C23.2221399,57.6696379 24.8672124,59.3333333 26.8888056,59.3333333 C27.8665449,59.3333333 28.7881384,58.9476832 29.4530653,58.2752291 L37.678657,50.4682481 C38.6026567,49.5313548 39.1110629,48.2902753 39.1110629,46.9701653 C39.1110629,45.6500554 38.6026567,44.4090918 37.656657,43.4548164 L31.7777314,37.7887265 L31.7777314,29.3860042 L37.7397299,35.9939703 C38.4314693,36.6960899 39.3530628,37.08174 40.333323,37.08174 C42.3549162,37.08174 43.9999887,35.4180445 43.9999887,33.373566 C44.0023949,32.3822088 43.6210617,31.4502984 42.9781348,30.8050761 Z M24.5690666,42.0260106 L19.4333283,42.0260106 C18.9469222,39.6082812 17.0597352,37.6998462 14.6690691,37.2053844 L14.6690691,34.6096626 L29.335732,34.6096626 L29.335732,37.2053844 C26.945066,37.6972969 25.0579936,39.6082812 24.5690666,42.0260106 Z" id="Shape"></path>
            </g>
        </g>
    </g>
</svg>