<?xml version="1.0" encoding="UTF-8"?>
<svg width="48px" height="46px" viewBox="0 0 48 46" version="1.1" xmlns="http://www.w3.org/2000/svg" xmlns:xlink="http://www.w3.org/1999/xlink">
    <!-- Generator: Sketch 48.2 (47327) - http://www.bohemiancoding.com/sketch -->
    <title>4champions</title>
    <desc>Created with Sketch.</desc>
    <defs></defs>
    <g id="Checklist-InnerPage" stroke="none" stroke-width="1" fill="none" fill-rule="evenodd" transform="translate(-44.000000, -1555.000000)">
        <g id="Group-2" transform="translate(0.000000, 1528.000000)" fill="#F176AF" fill-rule="nonzero">
            <g id="4champions" transform="translate(44.000000, 27.000000)">
                <path d="M46.3999681,7.20585515 L38.4,7.20585515 L38.4,1.54414485 C38.4,0.691147248 37.6832631,0 36.7999681,0 L11.2000319,0 C10.3167369,0 9.6,0.691147248 9.6,1.54414485 L9.6,7.20585515 L1.60003194,7.20585515 C0.716736878,7.20585515 0,7.8970024 0,8.75 L0,14.9264869 C0,19.1837986 3.58857188,22.6470262 7.99996806,22.6470262 L10.4344201,22.6470262 C11.8853355,26.5802672 15.1199952,29.7024992 19.2,31.1009788 L19.2,35 L28.8,35 L28.8,31.1009788 C32.8800048,29.7024992 36.1145687,26.5803597 37.5655799,22.6470262 L40.0000319,22.6470262 C44.4114281,22.6470262 48,19.1837986 48,14.9264869 L48,8.75 C48,7.8970024 47.2832631,7.20585515 46.3999681,7.20585515 Z M8.00006389,19.5587365 C5.35324535,19.5587365 3.20006389,17.4807629 3.20006389,14.9263944 L3.20006389,10.2940524 L9.60009583,10.2940524 L9.60009583,18.0145916 C9.60009583,18.5375995 9.64072913,19.0507113 9.69957075,19.5587365 L8.00006389,19.5587365 Z M32.7250424,13.6461119 L29.5228702,16.6579157 L30.2790904,20.9117129 C30.5046819,22.178585 29.1222872,23.1289703 27.9571466,22.5392801 L24,20.5313184 L20.0426618,22.5393726 C18.8657336,23.1358142 17.4974265,22.1660069 17.720718,20.9118054 L18.4769381,16.6580082 L15.2747659,13.6462044 C14.3257292,12.7544552 14.8516621,11.195975 16.1612235,11.0123905 L20.586228,10.3921799 L22.5653762,6.52284666 C23.1492882,5.37722363 24.8497534,5.37639125 25.4341446,6.52284666 L27.4133887,10.3921799 L31.8382974,11.0123905 C33.1481462,11.1960675 33.6739833,12.7543627 32.7250424,13.6461119 Z M44.7999361,14.9263944 C44.7999361,17.4807629 42.6467546,19.5587365 39.9999361,19.5587365 L38.3004293,19.5587365 C38.3592709,19.0507113 38.4,18.537692 38.4,18.0145916 L38.4,10.2940524 L44.8000319,10.2940524 L44.8000319,14.9263944 L44.7999361,14.9263944 Z" id="Shape2"></path>
                <path d="M36.4445066,42.3332967 L34.8890131,42.3332967 L34.8890131,40.4999451 C34.8890131,37.4671625 32.7956422,35 30.2223465,35 L28.6667598,35 L19.3334265,35 L17.7778399,35 C15.2045441,35 13.1111732,37.4671625 13.1111732,40.4999451 L13.1111732,42.3332967 L11.5555866,42.3332967 C10.6968275,42.3332967 10,43.1538907 10,44.1666484 C10,45.179406 10.6968275,46 11.5555866,46 L36.4444134,46 C37.3031725,46 38,45.179406 38,44.1666484 C38.0000932,43.1538907 37.3032657,42.3332967 36.4445066,42.3332967 Z" id="Shape1"></path>
            </g>
        </g>
    </g>
</svg>