<?xml version="1.0" encoding="UTF-8"?>
<svg width="90px" height="90px" viewBox="0 0 90 90" version="1.1" xmlns="http://www.w3.org/2000/svg" xmlns:xlink="http://www.w3.org/1999/xlink">
    <!-- Generator: Sketch 48.2 (47327) - http://www.bohemiancoding.com/sketch -->
    <title>friend</title>
    <desc>Created with Sketch.</desc>
    <defs>
        <circle id="path-1" cx="45" cy="45" r="45"></circle>
    </defs>
    <g id="Registration" stroke="none" stroke-width="1" fill="none" fill-rule="evenodd" transform="translate(-56.000000, -465.000000)">
        <g id="Button" transform="translate(20.000000, 451.000000)">
            <g id="friend" transform="translate(36.000000, 14.000000)">
                <path d="M77.1814903,76.4539876 C69.0111638,84.8120942 57.6114321,90 45,90 C32.7529132,90 21.6485258,85.1075222 13.5346713,77.1704001 C13.8727725,74.8935355 16.7569596,71.7436254 25.3800973,68.6500802 C34.5735386,65.3534398 37.5115028,67.0144708 37.5115028,61.0577898 C37.5115028,60.773915 37.4935522,60.2391529 37.460085,59.6925878 L37.0101032,59.6925878 C30.7272439,60.14821 28.2587876,57.1863633 26.9115804,56.25 C24.7605519,54.7551175 28.622461,55.8480205 28.622461,36.5073061 C28.622461,26.7348084 35.0974525,19.8001513 44.9217506,19.8001513 C45.0051144,19.8001513 45.087109,19.8051449 45.2387763,19.8027237 C45.2757423,19.8027237 45.3125563,19.8 45.516402,19.8006053 C45.5281155,19.8006053 45.5393727,19.8 45.7307442,19.806658 C45.8130431,19.8051449 45.8950378,19.8001513 45.9785537,19.8001513 C55.803156,19.8001513 62.2778433,26.7348084 62.2778433,36.5073061 C62.2778433,55.8481718 66.5663149,54.7549661 64.41483,56.25 C63.067775,57.1868173 60.1732124,60.1483613 53.8903531,59.6925878 L53.4405235,59.6925878 C53.4069041,60.2391529 53.3888014,60.773461 53.3888014,61.0577898 C53.3888014,67.0144708 56.3266135,65.3534398 65.5203591,68.6500802 C73.2715201,71.4310587 76.3855922,74.2573653 77.1814903,76.4539876 Z" id="Combined-Shape" fill="#00A4DC" fill-rule="nonzero"></path>
                <g id="Oval">
                    <circle stroke="#FFFFFF" stroke-width="10" cx="45" cy="45" r="40"></circle>
                    <circle stroke="#00A4DC" stroke-width="8" cx="45" cy="45" r="41"></circle>
                </g>
            </g>
        </g>
    </g>
</svg>