<?xml version="1.0" encoding="UTF-8"?>
<svg width="90px" height="90px" viewBox="0 0 90 90" version="1.1" xmlns="http://www.w3.org/2000/svg" xmlns:xlink="http://www.w3.org/1999/xlink">
    <!-- Generator: Sketch 48.2 (47327) - http://www.bohemiancoding.com/sketch -->
    <title>16-18</title>
    <desc>Created with Sketch.</desc>
    <defs></defs>
    <g id="Registration2.2" stroke="none" stroke-width="1" fill="none" fill-rule="evenodd" transform="translate(-229.000000, -153.000000)">
        <g id="Button" transform="translate(193.000000, 139.000000)" fill-rule="nonzero">
            <g id="16-18" transform="translate(36.000000, 14.000000)">
                <path d="M74.3540864,79.1087517 C74.0430038,79.3767134 73.7282154,79.640492 73.4098084,79.9 L42,79.9 L16.5901916,79.9 C14.7171478,78.3734318 12.9693202,76.6990855 11.3644856,74.8947382 C16.2356738,67.7955343 29.7870819,62.0729308 33.9847607,61.40915 C35.5837875,61.1562938 34.3797625,54.2134188 35,54 C35.6202375,53.7865813 50,51 50,54 C50,57 48.6340903,61.1562938 50.2331171,61.40915 C55.2366467,62.2003381 73.3233935,70.1787243 74.3540864,79.1087517 Z" id="Combined-Shape" fill="#00A4DC"></path>
                <path d="M59.0438966,43.7072904 C58.3786083,42.7798051 58.1619881,41.637037 58.4600398,40.5355945 C58.5821869,40.0893567 58.8882704,39.6808577 59.3215905,39.385731 C63.7959443,36.3409747 63.2994036,29.851462 63.2404771,29.2326706 C63.2339563,26.3568811 62.3840159,24.0777388 60.7139563,22.4587914 C58.1677932,19.991423 54.6691054,20.008577 54.5157058,20 C50.0231412,20 48.5741551,22.9221832 48.1473559,24.2424172 C45.4986879,22.7973489 43.0789662,22.8430409 42.7895825,22.854425 L41.5456064,22.8558285 C41.3776541,22.845848 37.3438569,22.6661988 33.8706958,25.8892008 C30.6839761,28.845614 29.0683897,33.6070175 29.0683897,40.0415595 C29.0683897,40.2504483 29.0705368,40.4593372 29.0727634,40.6682261 C29.0727634,40.6696296 29.0720477,40.6703314 29.0720477,40.6718129 C29.0720477,40.7024561 29.0734791,40.7330994 29.0734791,40.7630409 C29.0749105,40.9041715 29.0778529,41.0446004 29.0807157,41.185809 C29.0836581,41.3675634 29.0879523,41.5493957 29.093837,41.7326316 C29.0959841,41.8181676 29.0989264,41.9044055 29.1018688,41.9892398 C29.1099006,42.2194932 29.1207952,42.4504483 29.1324056,42.6821832 C29.1353479,42.7377778 29.1382107,42.7926706 29.1418688,42.8475634 C29.1564215,43.094191 29.173837,43.3415984 29.1934791,43.5890058 C29.1978529,43.6389084 29.2015109,43.6888109 29.2058052,43.7387135 C29.226163,43.9775439 29.2501789,44.2156725 29.2777734,44.4537232 C29.2842942,44.5164912 29.2908946,44.5784795 29.2981312,44.6404678 C29.3235785,44.8521637 29.3526839,45.0632359 29.3839364,45.27423 C29.3970577,45.3633528 29.408668,45.4524756 29.4232207,45.5415984 C29.4508151,45.7133723 29.4821471,45.8852242 29.5141153,46.0562963 C29.5366203,46.1810526 29.5584891,46.3051072 29.5839364,46.42846 C29.6100994,46.5546199 29.6399205,46.6793762 29.6683101,46.8041326 C29.7046521,46.9688109 29.740994,47.1327875 29.7832207,47.2952827 C29.8028628,47.3708382 29.8260835,47.445692 29.8464414,47.5212476 C29.9017097,47.7272515 29.9591252,47.9325536 30.0231412,48.1350487 C30.0318887,48.1614035 30.0405567,48.1870565 30.0493042,48.2127875 C30.5611928,49.8025731 31.3274751,51.2725146 32.4762624,52.537232 C32.6710934,52.7518129 32.8768986,52.9614035 33.0950298,53.1638986 C33.6650497,53.694269 34.2787276,54.1683431 34.9054473,54.6139571 L34.9054473,59.2092788 C34.9054473,59.602807 35.2304573,59.9221832 35.6325249,59.9221832 C36.0345924,59.9221832 36.3596024,59.602807 36.3596024,59.2092788 L36.3596024,55.5992203 C36.4417495,55.6534113 36.5238966,55.7076023 36.6060437,55.7617934 L37.2822266,56.2073294 C37.5577734,56.3898635 37.8260835,56.5851852 38.0943936,56.7791033 C39.2584493,57.6231579 40.4624254,58.4964522 42.1557853,58.4964522 C43.8498608,58.4964522 45.053837,57.6231579 46.2178926,56.7791033 C46.4862028,56.5851852 46.7544334,56.3898635 47.0300596,56.2073294 L47.7273161,55.7482261 L47.7331213,55.7439376 C47.8203579,55.6869396 47.906163,55.6298635 47.9926839,55.5735673 L47.9926839,59.2093567 C47.9926839,59.602885 48.3176938,59.9222612 48.7197614,59.9222612 C49.121829,59.9222612 49.446839,59.602885 49.446839,59.2093567 L49.446839,54.5862768 C50.0605169,54.148538 50.6595626,53.6837427 51.2172565,53.1640546 C51.4302982,52.965848 51.6316501,52.7605458 51.8221869,52.5509552 C51.8948708,52.4718129 51.9596024,52.3891618 52.0287078,52.3078363 C52.1428231,52.1752047 52.2577336,52.0426511 52.3638966,51.905731 C52.4372962,51.8102144 52.5056859,51.7111111 52.5762227,51.6134113 C52.6409543,51.522885 52.7106958,51.4337622 52.7725646,51.3418324 C52.916501,52.1388694 53.050338,52.9779337 53.1746322,53.8804678 C53.8166203,58.5470565 56.8135984,59.6577778 58.5433002,59.9044055 C58.5898211,59.9107992 58.6363419,59.9136842 58.6821471,59.9136842 C59.0710934,59.9136842 59.4281511,59.682729 59.580835,59.3184405 C59.749503,58.917115 59.620835,58.4580117 59.2674354,58.2020273 C58.9329622,57.9610916 58.8267992,57.4955166 58.9518887,56.8190253 C59.0805567,56.1289669 59.43833,55.4281481 59.987992,54.7936842 C61.9125249,52.5730214 61.852167,51.0217544 61.7867197,50.5911891 C61.76167,48.0352437 60.2850099,45.4403119 59.0438966,43.7072904 Z" id="Shape1" fill="#00A4DC"></path>
                <path d="M45,80 C64.3299662,80 80,64.3299662 80,45 C80,25.6700338 64.3299662,10 45,10 C25.6700338,10 10,25.6700338 10,45 C10,64.3299662 25.6700338,80 45,80 Z M45,90 C20.1471863,90 0,69.8528137 0,45 C0,20.1471863 20.1471863,0 45,0 C69.8528137,0 90,20.1471863 90,45 C90,69.8528137 69.8528137,90 45,90 Z" id="Oval10" fill="#FFFFFF"></path>
                <path d="M45,82 C65.4345357,82 82,65.4345357 82,45 C82,24.5654643 65.4345357,8 45,8 C24.5654643,8 8,24.5654643 8,45 C8,65.4345357 24.5654643,82 45,82 Z M45,90 C20.1471863,90 0,69.8528137 0,45 C0,20.1471863 20.1471863,0 45,0 C69.8528137,0 90,20.1471863 90,45 C90,69.8528137 69.8528137,90 45,90 Z" id="Oval" fill="#00A4DC"></path>
            </g>
        </g>
    </g>
</svg>