<?xml version="1.0" encoding="UTF-8"?>
<svg width="90px" height="90px" viewBox="0 0 90 90" version="1.1" xmlns="http://www.w3.org/2000/svg" xmlns:xlink="http://www.w3.org/1999/xlink">
    <!-- Generator: Sketch 48.2 (47327) - http://www.bohemiancoding.com/sketch -->
    <title>18-25</title>
    <desc>Created with Sketch.</desc>
    <defs></defs>
    <g id="Registration2.2" stroke="none" stroke-width="1" fill="none" fill-rule="evenodd" transform="translate(-56.000000, -314.000000)">
        <g id="Button" transform="translate(20.000000, 300.000000)" fill-rule="nonzero">
            <g id="18-25" transform="translate(36.000000, 14.000000)">
                <path d="M76.4333743,77.2016276 C75.0812233,78.5217184 73.6462489,79.7573515 72.1369781,80.9 L45,80.9 L17.8630219,80.9 C16.3564553,79.7593988 14.9239191,78.5261459 13.5738945,77.2087225 C17.547209,69.5126814 32.5309659,63.1134305 36.9847607,62.40915 C38.5837875,62.1562938 37.3797625,55.2134188 38,55 C38.6202375,54.7865813 53,52 53,55 C53,58 51.6340903,62.1562938 53.2331171,62.40915 C57.6856683,63.1132141 72.498689,69.5087488 76.4333743,77.2016276 Z" id="Combined-Shape" fill="#00A4DC"></path>
                <path d="M65.3861543,55.7015059 C64.7724805,54.1885273 63.6071133,53.2140566 62.7507246,52.6674863 C63.4533379,51.8708945 63.7280508,50.7842207 63.5305195,49.5073223 C63.3767441,48.5103437 62.893498,47.5621602 62.0539062,46.6095254 C60.6933594,45.0644648 61.3216445,41.7003027 62.0351758,37.3798945 C62.4491348,34.877916 61.426543,32.4888125 60.969584,30.2797715 C60.1081562,26.1153223 58.3378496,24.6001602 58.3115625,24.5826074 C52.1524004,18.4226895 46.8072148,20.0582012 45.4064395,20.6499551 C44.0070918,20.0574453 38.6671133,18.4183223 32.5494395,24.5381797 C32.4751133,24.6001602 30.7048066,26.1153223 29.842623,30.2797715 C29.3856641,32.4888125 28.3638281,34.877832 28.7777871,37.3798945 C29.4913184,41.7003027 30.1196035,45.0645488 28.7588887,46.6096094 C27.9192969,47.5621602 27.4361348,48.5103437 27.2822754,49.5074062 C27.0847441,50.7843047 27.359541,51.8709785 28.0620703,52.6675703 C27.2056816,53.2141406 26.0403145,54.1886113 25.4266406,55.7015898 C24.7729062,57.3122422 24.8967832,61.1320996 25.7932324,63.1100996 C25.9113145,63.3710391 26.1707422,63.5386719 26.4572129,63.5386719 L38.1379277,61.5386719 L38.1379277,62.2674883 C38.1379277,62.6697734 38.464459,62.9963047 38.8667441,62.9963047 C39.2697852,62.9963047 39.5955605,62.6697734 39.5955605,62.2674883 L39.5955605,58.0877539 C40.0226211,58.382959 40.4519492,58.6701016 40.8738867,58.9485098 L41.1391934,59.124877 C41.5597031,59.4018574 41.9058867,59.7254492 42.2419082,60.0395508 C43.0319492,60.7763457 43.8481934,61.5387559 45.4064395,61.5387559 C46.9449492,61.5387559 47.7452363,60.7924707 48.5184805,60.0709609 C48.8377051,59.7735723 49.1664199,59.4667773 49.5629102,59.1978594 C50.0446445,58.8713281 50.633543,58.5447969 51.256707,58.2015527 L51.256707,60.7108379 C51.2370547,60.8449609 51.251668,60.8747754 51.256707,60.9083691 L51.256707,62.2675723 C51.256707,62.6698574 51.5832383,62.9963887 51.9855234,62.9963887 C52.3885645,62.9963887 52.7143398,62.6698574 52.7143398,62.2675723 L52.7143398,61.5387559 L64.355666,63.5387559 C64.6413809,63.5387559 64.9015645,63.371123 65.0196465,63.1101836 C65.9160117,61.1320156 66.0392168,57.3122422 65.3861543,55.7015059 Z" id="Shape2" fill="#00A4DC"></path>
                <path d="M45,80 C64.3299662,80 80,64.3299662 80,45 C80,25.6700338 64.3299662,10 45,10 C25.6700338,10 10,25.6700338 10,45 C10,64.3299662 25.6700338,80 45,80 Z M45,90 C20.1471863,90 0,69.8528137 0,45 C0,20.1471863 20.1471863,0 45,0 C69.8528137,0 90,20.1471863 90,45 C90,69.8528137 69.8528137,90 45,90 Z" id="Oval2" fill="#FFFFFF"></path>
                <path d="M45,82 C65.4345357,82 82,65.4345357 82,45 C82,24.5654643 65.4345357,8 45,8 C24.5654643,8 8,24.5654643 8,45 C8,65.4345357 24.5654643,82 45,82 Z M45,90 C20.1471863,90 0,69.8528137 0,45 C0,20.1471863 20.1471863,0 45,0 C69.8528137,0 90,20.1471863 90,45 C90,69.8528137 69.8528137,90 45,90 Z" id="Oval" fill="#00A4DC"></path>
            </g>
        </g>
    </g>
</svg>