<?xml version="1.0" encoding="UTF-8"?>
<svg width="90px" height="90px" viewBox="0 0 90 90" version="1.1" xmlns="http://www.w3.org/2000/svg" xmlns:xlink="http://www.w3.org/1999/xlink">
    <!-- Generator: Sketch 48.2 (47327) - http://www.bohemiancoding.com/sketch -->
    <title>25-35</title>
    <desc>Created with Sketch.</desc>
    <defs></defs>
    <g id="Registration2.2" stroke="none" stroke-width="1" fill="none" fill-rule="evenodd" transform="translate(-229.000000, -314.000000)">
        <g id="Button" transform="translate(193.000000, 300.000000)" fill-rule="nonzero">
            <g id="25-35" transform="translate(36.000000, 14.000000)">
                <path d="M30.1502372,75.6 C28.9072927,75.6 27.9,76.8096774 27.9,78.3 C27.9,79.7905123 28.9071346,81 30.1502372,81 C31.3928654,81 32.4,79.7907021 32.4,78.3 C32.3998418,76.8096774 31.3928654,75.6 30.1502372,75.6 Z" id="Shape4" fill="#00A4DC"></path>
                <path d="M31.4174603,47.2326856 C31.8687938,53.2616747 34.2271886,50.6632363 34.7135406,53.3043396 C35.6704718,58.5012163 37.6248515,58.7004172 38.3110405,60.4891055 C38.4650061,60.8913324 38.5554465,62.8140473 38.5554465,63.4525493 C38.5554465,65.5918253 35.4402617,66.7250928 34.6167481,67.8112818 C34.4297898,68.0578554 34.114768,68.8628976 34.5174807,69.4735939 C36.3390216,72.2351886 42.8549082,74.5568938 46.1588025,74.6 C49.4626969,74.5568938 55.9784387,72.2354829 57.800269,69.4735939 C58.2026924,68.8631918 57.8876705,68.0580025 57.7007123,67.8112818 C56.8774881,66.7250928 53.7618691,65.5918253 53.7618691,63.4525493 C53.7618691,62.8140473 53.8523095,60.8914795 54.0062751,60.4891055 C54.6924641,58.7004172 56.6468438,58.5012163 57.603775,53.3043396 C58.090127,50.6633834 60.4486665,53.2618218 60.9,47.2326856 C60.9,44.8299172 59.6124189,44.2324618 59.6124189,44.2324618 C59.6124189,44.2324618 60.2669176,40.6765646 60.523334,37.9404217 C60.8411052,34.5298794 58.5654815,25.7210526 46.4278083,25.7210526 C46.3836734,25.7210526 46.236943,25.7210526 46.1589472,25.7210526 C46.0806621,25.7210526 45.9337869,25.7210526 45.889652,25.7210526 C33.7522683,25.7210526 31.4763551,34.5298794 31.7939816,37.9404217 C32.050398,40.6765646 32.7048967,44.2324618 32.7048967,44.2324618 C32.7048967,44.2324618 31.4174603,44.8299172 31.4174603,47.2326856 Z" id="Shape3" fill="#00A4DC"></path>
                <path d="M75.8248489,77.7847623 C73.3439479,80.118245 70.5981574,82.1732955 67.6373904,83.9000008 L46,83.9 L22.3626082,83.9 C19.8722626,82.4476421 17.5340074,80.7629884 15.3775441,78.8757403 C20.2598435,71.7853286 33.7908265,66.0723386 37.9847607,65.40915 C39.5837875,65.1562938 38.3797625,58.2134188 39,58 C39.6202375,57.7865813 54,55 54,58 C54,61 52.6340903,65.1562938 54.2331171,65.40915 C58.2097706,66.0379623 70.4505529,71.2066313 75.8248504,77.7847628 Z" id="Combined-Shape" fill="#00A4DC"></path>
                <path d="M66.3700195,43.012207 C66.3665039,28.2367187 61.4814453,22.0911133 60.925293,21.4402344 C55.14375,12.9130859 47.9516602,15.0613281 46.19375,15.7586914 C44.4349609,15.0613281 37.24375,12.9139648 31.462207,21.4402344 C30.9060547,22.0919922 26.0183594,28.2393555 26.0192383,42.9946289 C26.0104492,43.2139648 25.8271484,48.4305664 27.1920898,53.8516602 C28.0640625,57.3148437 30.0683594,60.2463867 32.8359375,62.1078125 C33.9341797,62.8455078 34.8605469,63.2042969 35.6674805,63.2042969 C36.1516602,63.2042969 36.5446289,62.8113281 36.5446289,62.3271484 L36.5446289,57.7420898 C36.5657227,57.7587891 36.5814453,57.7727539 36.6025391,57.7894531 C37.1542969,58.2227539 37.725293,58.6289062 38.2990234,59.0236328 L38.2990234,64.081543 C38.2990234,64.5657227 38.6919922,64.9586914 39.1761719,64.9586914 C39.6603516,64.9586914 40.0533203,64.5657227 40.0533203,64.081543 L40.0533203,60.2236328 C40.1244141,60.2630859 40.2085937,60.3157227 40.3138672,60.3868164 C40.6454102,60.6123047 40.9700195,60.8517578 41.2936523,61.0912109 C42.6980469,62.1297852 44.1498047,63.2043945 46.1936523,63.2043945 C48.2366211,63.2043945 49.6892578,62.1297852 51.0936523,61.0912109 C51.4173828,60.8517578 51.7418945,60.6123047 52.0734375,60.3868164 C52.1795898,60.3148437 52.2628906,60.2631836 52.3339844,60.2236328 L52.3339844,64.081543 C52.3339844,64.5657227 52.7269531,64.9586914 53.2111328,64.9586914 C53.6953125,64.9586914 54.0882812,64.5657227 54.0882812,64.081543 L54.0882812,59.0280273 C54.6821289,58.6201172 55.2698242,58.1929687 55.8426758,57.740332 L55.8426758,62.3271484 C55.8426758,62.8113281 56.2356445,63.2042969 56.7198242,63.2042969 C57.5268555,63.2042969 58.4540039,62.8455078 59.5513672,62.1078125 C62.3180664,60.2472656 64.3233398,57.3148437 65.1960937,53.8516602 C66.5358398,48.5332031 66.384082,43.4113281 66.3700195,43.012207 Z" id="Shape" fill="#00A4DC"></path>
                <path d="M45,80 C64.3299662,80 80,64.3299662 80,45 C80,25.6700338 64.3299662,10 45,10 C25.6700338,10 10,25.6700338 10,45 C10,64.3299662 25.6700338,80 45,80 Z M45,90 C20.1471863,90 0,69.8528137 0,45 C0,20.1471863 20.1471863,0 45,0 C69.8528137,0 90,20.1471863 90,45 C90,69.8528137 69.8528137,90 45,90 Z" id="Oval2" fill="#FFFFFF"></path>
                <path d="M45,82 C65.4345357,82 82,65.4345357 82,45 C82,24.5654643 65.4345357,8 45,8 C24.5654643,8 8,24.5654643 8,45 C8,65.4345357 24.5654643,82 45,82 Z M45,90 C20.1471863,90 0,69.8528137 0,45 C0,20.1471863 20.1471863,0 45,0 C69.8528137,0 90,20.1471863 90,45 C90,69.8528137 69.8528137,90 45,90 Z" id="Oval" fill="#00A4DC"></path>
            </g>
        </g>
    </g>
</svg>