<?xml version="1.0" encoding="UTF-8"?>
<svg width="90px" height="90px" viewBox="0 0 90 90" version="1.1" xmlns="http://www.w3.org/2000/svg" xmlns:xlink="http://www.w3.org/1999/xlink">
    <!-- Generator: Sketch 48.2 (47327) - http://www.bohemiancoding.com/sketch -->
    <title>35-45</title>
    <desc>Created with Sketch.</desc>
    <defs></defs>
    <g id="Registration2.2" stroke="none" stroke-width="1" fill="none" fill-rule="evenodd" transform="translate(-56.000000, -475.000000)">
        <g id="Button" transform="translate(20.000000, 461.000000)" fill-rule="nonzero">
            <g id="35-45" transform="translate(36.000000, 14.000000)">
                <path d="M75.8687898,77.7433773 C74.6434933,78.8989476 73.353347,79.9865005 72.0043871,81 L17.9956129,81 C16.6468442,79.9866442 15.3568726,78.899256 14.1317314,77.7438688 C14.9189375,71.9165722 19.1649222,67.0748412 24.994707,65.61625 L34.8913359,63.1413359 L35.462293,60.860293 C28.59325,59.713293 25.1135,57.657 24.9585,57.564 C24.589043,57.3419141 24.356543,56.9544141 24.333293,56.522957 C24.312707,56.094043 24.506457,55.683293 24.85,55.425 C24.883543,55.399207 29.5,51.586207 29.5,38.375 C29.5,23.879957 40.145957,19 45,19 C48.740707,19 50.133043,19.7905 51.987957,21.583293 L52.75,21.583293 C57.893457,21.583293 60.5,27.233043 60.5,38.375 C60.5,51.586207 65.116457,55.399207 65.1628359,55.435293 C65.4960859,55.701457 65.68475,56.117293 65.656293,56.541 C65.625293,56.964707 65.3978789,57.35475 65.0310859,57.569207 C64.8760859,57.6596641 61.362793,59.7056641 54.535043,60.855207 L55.106,63.141457 L65.00275,65.61625 C70.8359004,67.0751102 75.0826036,71.9183583 75.8687898,77.7433773 Z" id="Combined-Shape" fill="#00A4DC"></path>
                <path d="M45,80 C64.3299662,80 80,64.3299662 80,45 C80,25.6700338 64.3299662,10 45,10 C25.6700338,10 10,25.6700338 10,45 C10,64.3299662 25.6700338,80 45,80 Z M45,90 C20.1471863,90 0,69.8528137 0,45 C0,20.1471863 20.1471863,0 45,0 C69.8528137,0 90,20.1471863 90,45 C90,69.8528137 69.8528137,90 45,90 Z" id="Oval2" fill="#FFFFFF"></path>
                <path d="M45,82 C65.4345357,82 82,65.4345357 82,45 C82,24.5654643 65.4345357,8 45,8 C24.5654643,8 8,24.5654643 8,45 C8,65.4345357 24.5654643,82 45,82 Z M45,90 C20.1471863,90 0,69.8528137 0,45 C0,20.1471863 20.1471863,0 45,0 C69.8528137,0 90,20.1471863 90,45 C90,69.8528137 69.8528137,90 45,90 Z" id="Oval" fill="#00A4DC"></path>
            </g>
        </g>
    </g>
</svg>