<?xml version="1.0" encoding="UTF-8"?>
<svg width="90px" height="90px" viewBox="0 0 90 90" version="1.1" xmlns="http://www.w3.org/2000/svg" xmlns:xlink="http://www.w3.org/1999/xlink">
    <!-- Generator: Sketch 48.2 (47327) - http://www.bohemiancoding.com/sketch -->
    <title>50+</title>
    <desc>Created with Sketch.</desc>
    <defs></defs>
    <g id="Registration2.2" stroke="none" stroke-width="1" fill="none" fill-rule="evenodd" transform="translate(-229.000000, -475.000000)">
        <g id="Button" transform="translate(193.000000, 461.000000)" fill-rule="nonzero">
            <g id="50+" transform="translate(36.000000, 14.000000)">
                <path d="M29.9556604,33.8716981 C29.9160377,33.8849057 29.8632075,33.8849057 29.8235849,33.8981132 C27.3273585,34.5188679 26.0066038,37.5698113 26.8386792,40.8188679 C27.3933962,43.0377358 28.8462264,44.7679245 30.5764151,45.3622642 C32.5707547,51.9924528 37.7481132,58.8603774 44.7481132,58.8603774 C51.7481132,58.8603774 56.9254717,51.9924528 58.9462264,45.3754717 C60.6764151,44.7811321 62.1160377,43.0509434 62.6839623,40.8320755 C63.5028302,37.5830189 62.195283,34.545283 59.6989245,33.9113208 C59.6593019,33.8981132 59.6066038,33.8981132 59.5668491,33.8849057 C59.3160377,32.590566 58.9462264,31.3754717 58.4970377,30.2396226 C58.3385472,28.1396226 56.885717,25.709434 54.4951509,23.9396226 C54.1649623,23.6886792 53.8083585,23.490566 53.4781698,23.2924528 C52.7253396,22.6981132 51.9064717,22.1698113 51.0479811,21.7471698 C51.2328868,21.1 51.3385472,20.4 51.3385472,19.6867925 C51.3385472,15.4471698 47.8913774,12 43.6517547,12 C39.4121321,12 35.9649623,15.4471698 35.9649623,19.6867925 C35.9649623,20.8226415 36.2291132,21.9056604 36.6649623,22.8830189 C33.3103774,25.2075472 30.8801887,29.0509434 29.9556604,33.8716981 Z M58.5103774,55.1490566 C57.0179245,57.6849057 55.3009434,59.8377358 53.0029623,61 C48.2878679,63.4037736 44.7878679,65.3716981 44.7878679,65.3716981 L44.7746604,65.3584906 L44.7746604,65.3188679 L44.7350377,65.345283 L44.6954151,65.3188679 L44.6954151,65.3584906 L44.6822075,65.3716981 C44.6822075,65.3716981 41.1822075,63.4169811 36.4671132,61 C34.1822075,59.8245283 32.4652264,57.6849057 30.959566,55.1490566 C23.9858491,57.9754717 19.1122642,64.5132075 19.1122642,70.1924528 C19.1122642,76.1886792 19.1122642,82 19.1122642,82 L44.7084906,82 L44.8141509,82 L70.3971698,82 C70.3971698,82 70.3971698,76.1886792 70.3971698,70.1924528 C70.3575472,64.5132075 65.4971698,58.0150943 58.5103774,55.1490566 Z" id="Shape" fill="#00A4DC"></path>
                <path d="M45,80 C64.3299662,80 80,64.3299662 80,45 C80,25.6700338 64.3299662,10 45,10 C25.6700338,10 10,25.6700338 10,45 C10,64.3299662 25.6700338,80 45,80 Z M45,90 C20.1471863,90 0,69.8528137 0,45 C0,20.1471863 20.1471863,0 45,0 C69.8528137,0 90,20.1471863 90,45 C90,69.8528137 69.8528137,90 45,90 Z" id="Oval2" fill="#FFFFFF"></path>
                <path d="M45,82 C65.4345357,82 82,65.4345357 82,45 C82,24.5654643 65.4345357,8 45,8 C24.5654643,8 8,24.5654643 8,45 C8,65.4345357 24.5654643,82 45,82 Z M45,90 C20.1471863,90 0,69.8528137 0,45 C0,20.1471863 20.1471863,0 45,0 C69.8528137,0 90,20.1471863 90,45 C90,69.8528137 69.8528137,90 45,90 Z" id="Oval" fill="#00A4DC"></path>
            </g>
        </g>
    </g>
</svg>