<?xml version="1.0" encoding="UTF-8"?>
<svg width="26px" height="20px" viewBox="0 0 26 20" version="1.1" xmlns="http://www.w3.org/2000/svg" xmlns:xlink="http://www.w3.org/1999/xlink">
    <!-- Generator: Sketch 48.1 (47250) - http://www.bohemiancoding.com/sketch -->
    <title>AK</title>
    <desc>Created with Sketch.</desc>
    <defs></defs>
    <g id="Registration2.1" stroke="none" stroke-width="1" fill="none" fill-rule="evenodd" transform="translate(-19.000000, -256.000000)">
        <g id="Group" transform="translate(17.000000, 203.000000)" fill="#11C4FF" fill-rule="nonzero">
            <g id="AK" transform="translate(0.000000, 53.000000)">
                <path fill="#11C4FF" d="M5.05215452,20.0179279 L5.0347655,20 L5,20 L5.05214735,20.0179279 L5.05215452,20.0179279 Z M5.0347655,20.0358558 L5.0347655,20.0179279 L5,20 L5.0347655,20.0358429 L5.0347655,20.0358558 Z M5,19.0000074 L5.0347655,19.0716914 L5.0347655,19.0537634 L5,19 L5,19.0000074 Z M5.15644206,19.0537634 L5,19 L5.19120756,19.1433698 L5.15644206,19.0537634 Z M5,19 L5,19.0179279 L5,19 Z M7.05215273,20.0716858 L7.01738902,20 L7,20 L7.05214735,20.0716858 L7.05215273,20.0716858 Z M26.0347655,18.0358429 L26,18 L26.017389,18.0358429 L26.034778,18.0358429 L26.0347655,18.0358429 Z M5.01738902,19.0179279 L5.01738902,19 L5,19.0179279 L5.01738902,19.0179279 Z M26,18 L26.0521474,18.071684 L26.0869129,18.071684 L26,18 Z M7.01738902,19 L7,19.0179279 L7,19.0716914 L7.01738902,19.0000074 L7.01738902,19 Z M5.00001254,19.1433698 L5.03477804,19 L5.01738902,19 L5,19.1433698 L5.00001254,19.1433698 Z M27.1564421,18 L27,18.0896063 L27.1390602,18.1612903 L27.1564492,18 L27.1564421,18 Z M5.01738902,19.0358411 L5,19 L5.01738902,19.0358411 Z M4,19 L3.46808506,19.14706 L3,20 L4,19 Z M7.10429292,19.0000074 L7,19.0896137 L7.10429292,19.0716858 L7.10429292,19 L7.10429292,19.0000074 Z M27.0521527,17.071684 L27.017389,17 L27,17.0358429 L27.0521474,17.071684 L27.0521527,17.071684 Z M5.12167656,19.0179279 L5,19 L5.12167656,19.1254474 L5.12167656,19.0179205 L5.12167656,19.0179279 Z M26.0347655,18 L26,18.0358429 L26.0347655,18.1612903 L26.0347655,18 Z M6.05214556,19 L6,19.0179279 L6.06952921,19.0716914 L6.05214019,19.0000074 L6.05214556,19 Z M7.08691285,19.0358411 L7.0347655,19.0358411 L7,19 L7.08691285,19.0358411 Z M6.08691285,19.0537634 L6,19 L6.0347655,19.0537634 L6.08691285,19.0537634 Z M7.26073677,19 L7.10429471,19.0537634 L7,19.3405011 L7.26073677,19 Z M26,18 L26,18.1254474 L26.0695292,18.0358411 L26,18 Z M5.00000537,18.0358411 L5.13906558,18 L5.12167656,18 L5,18.0358411 L5.00000537,18.0358411 Z M5.0347655,18.0358411 L5,18 L5,18.0179279 L5.0347655,18.0358558 L5.0347655,18.0358411 Z M26.0521545,18.0179279 L26.017389,18 L26,18.0537634 L26.0521474,18.0179205 L26.0521545,18.0179279 Z M7.06952921,19.0179279 L7.0347655,19 L7,19.0537634 L7.06952921,19.0179205 L7.06952921,19.0179279 Z M26.0173765,18.1075343 L26.0347655,18.0179279 L26,18 L26.017389,18.1075269 L26.0173765,18.1075343 Z M25.0521474,18 L25,18.0716858 L25.0869129,18.0896137 L25.0521474,18.0000074 L25.0521474,18 Z M7.05215452,18.0358429 L7.01738902,18 L7,18 L7.05214735,18.0358429 L7.05215452,18.0358429 Z M25,17.0179224 L25.1390602,17.0716858 L25.1912076,17 L25,17.0179279 L25,17.0179224 Z M26.0521474,17 L26,17.0358411 L26.0869129,17.0896045 L26.0521474,17 Z M25.069531,17.071684 L25.0347655,17 L25,17.0358429 L25.069531,17.071684 Z M27.2259713,17 L27,18 L27.2259713,17.7837848 L27.2259713,17 Z M6.01738902,18 L6,18 L6.01738902,18 Z M25.1564403,17 L25,17.1612903 L25.0347637,17.3405011 L25.1564403,17 Z M9.01738902,18.071684 L9.01738902,18 L9,18.0358429 L9.01738902,18.071684 Z M25,17.0681819 L25.6170214,18.0681819 L27,19 L26.6808524,18.2045458 L25.3617016,17 L25,17.0681819 Z M8.05215273,18.0537634 L8.03476371,18 L8,18.0179279 L8.05214735,18.053769 L8.05215273,18.0537634 Z M26.069531,16 L26,16.2688172 L26.1216784,16.1792108 L26.069531,16 Z M26.017389,16 L26,16.1792108 L26.1564421,16.2329743 L26.0173819,16 L26.017389,16 Z M9.17382392,18.0179279 L9.08691285,18 L9,18.0358429 L9.17382392,18.017915 L9.17382392,18.0179279 Z M11.069531,18.0000074 L11,18.1254548 L11.0347655,18.0179279 L11.069531,18 L11.069531,18.0000074 Z M11.1564421,18 L11,18.0179279 L11.0869129,18.1254548 L11.1564421,18.0000074 L11.1564421,18 Z M1,16 L1.17382392,16.0896063 L1.13906021,16.0537634 L1,16 Z M8,17.0179279 L8.01738902,17 L8,17.0179279 Z M8,17.0179279 L8.01738902,17.0179279 L8.01738902,17 L8,17.0179279 Z M26,16 L26.0869111,16.3405011 L26.260735,16.2329743 L26,16 Z M8,17.0179279 L8.01738902,17 L8,17.0179279 Z M25,16 L25.0869129,17 L25.2607368,16.7826088 L25,16 Z M25,16 L25.3997952,17 L25.3476478,16.3437518 L25,16 Z M24.1042947,16 L24,16.3405011 L24.1390584,16.1075269 L24.1042947,16 Z M10.017389,17.0179279 L10,17 L10.017389,17.0179279 Z M11.0347655,17.0537634 L11,17 L11.0347655,17.071684 L11.0347655,17.0537561 L11.0347655,17.0537634 Z M24,16 L25,17 L24.8499999,16.3181823 L24,16 Z M12.0521474,16 L12,16.0537634 L12.0869129,16.0896063 L12.0521474,16 Z M12.0521402,16.0537634 L12.0695292,16 L12,16 L12.0521474,16.0537634 L12.0521402,16.0537634 Z M12.2888888,16 L11.7111112,16.2236837 L11,16.7763149 L11.3555556,17 L13,16.2763149 L12.2888888,16 Z M23.1216766,15.0716858 L23,15 L23,15.1075269 L23.1216766,15.0716858 Z M12,16 L12.017389,16.071684 L12.1390674,16.1433698 L12.0000072,16 L12,16 Z M23.3476478,15 L23,15.1792108 L23.3302642,15.2867377 L23.3476532,15 L23.3476478,15 Z M23.0521545,15.0358429 L23.017389,15 L23,15.0358429 L23.0521474,15.0358429 L23.0521545,15.0358429 Z M24.1738239,15.0537634 L24.0347637,15 L24,15.1075269 L24.1738239,15.0537634 Z M23.1216766,15.0179279 L23,15 L23,15.0358429 L23.1216766,15.017915 L23.1216766,15.0179279 Z M24,15 L25,16 L24.7317085,15.083334 L24,15 Z M12.5581389,16 L12,16.5999986 L12.2558132,17 L13,16.1999973 L12.5581389,16 Z M8.01738902,15.0179279 L8,15 L8,15.0179279 L8.01738902,15.0179279 Z M7.01738902,15.0896045 L7,15 L7,15.0358411 L7.01738902,15.0896045 Z M13.0347655,15 L13,15.0179279 L13,15.0358558 L13.0347655,15.0000129 L13.0347655,15 Z M12.0521527,15 L12.0347637,15 L12,15.0537634 L12.0521474,15 L12.0521527,15 Z M13.0521474,15.0358429 L13,15 L13,15.0179279 L13.0521474,15.0358558 L13.0521474,15.0358429 Z M13.0521474,15.0358429 L13,15 L13,15.0179279 L13.0521474,15.0358558 L13.0521474,15.0358429 Z M13.069531,15 L13,15 L13,15.0179279 L13.069531,15 Z M16.0173765,15.0537634 L16.0347655,15 L16,15.0358411 L16.017389,15.053769 L16.0173765,15.0537634 Z M17,14.2688172 L17.2085876,14 L17.1390584,14.0537634 L17,14.2688172 Z M15,14.1254474 L15.0695292,14.071684 L15.0869182,14 L15.0000072,14.1254474 L15,14.1254474 Z M15.069531,14.0000074 L15,14.053769 L15.1216784,14.0179279 L15.069531,14 L15.069531,14.0000074 Z M12.034778,14.0716858 L12.017389,14 L12,14 L12.0347637,14.0716858 L12.034778,14.0716858 Z M15.1042929,14 L15.0347637,14.071684 L15,14.1433698 L15.1042929,14 Z M17,14 L17.017389,14 L17.034778,14 L17.0000143,14 L17,14 Z M17.0347637,14.0179279 L17,14 L17,14.0179279 L17.0347637,14.0179279 Z M17,14 L17.017389,14.0179279 L17.017389,14 L17,14 Z M16.0173819,14.071684 L16.0869111,14 L16,14.071684 L16.017389,14.071684 L16.0173819,14.071684 Z M15.7741944,13 L15,14 L16,13.0769233 L15.7741944,13 Z M15.0695364,13.071684 L15.017389,13 L15,13.0358411 L15.0695292,13.071684 L15.0695364,13.071684 Z M16.0347655,13.0179279 L16,13 L16.017389,13.0179279 L16.034778,13.0179279 L16.0347655,13.0179279 Z M17.0347655,13.1254492 L17.0347655,13 L17,13.0537634 L17.0347655,13.1254492 Z M4,12.057144 L3,12 L3.68749933,13 L4,12.057144 Z M16,13.0179224 L16.0347655,13.1433698 L16.1216766,13 L16,13.0179279 L16,13.0179224 Z M15.0521474,13 L15,13.3942646 L15.0869129,13.1433698 L15.0521474,13 Z M0,10.0716858 L0.0173890176,10 L0,10.0716858 Z M15,13.0000074 L15.017389,13.0537708 L15.0521527,13.0358429 L15.0000054,13 L15,13.0000074 Z M15.0869129,13.1075269 L15.0521474,13 L15,13.0358429 L15.0869129,13.1075269 Z M16.0521474,13.0716858 L16.0521474,13 L16,13.0358429 L16.0521474,13.0716858 Z M15,13 L15,13.1792108 L15.0521474,13.0537634 L15,13 Z M14,13.0537634 L14,13 L14,13.0537634 Z M5.00001433,10.1075269 L5.03477804,10 L5.01738902,10.0179279 L5,10.1075324 L5.00001433,10.1075269 Z M5.03477804,10.0179279 L5.01738902,10 L5,10.0179279 L5.0347655,10.0179279 L5.03477804,10.0179279 Z M6,10.0179279 L6,10 L6,10.0179279 Z M6.01738902,10.0358411 L6,10 L6.01738902,10.0358411 Z M6.01738902,9 L6,9 L6.01738902,9 Z M6.06952921,9.03584291 L6,9 L6,9.01792792 L6.06952921,9.03585583 L6.06952921,9.03584291 Z M6.0347655,9.03584291 L6.0347655,9 L6,9.03584291 L6.0347655,9.03584291 Z M3.05215273,8.14336793 L3.01738902,8.05376159 L3,8 L3.05214735,8.14336793 L3.05215273,8.14336793 Z M3,8 L3.01738902,8 L3.03477804,8.01792792 L3.00001433,8 L3,8 Z M3.13905842,8.17921084 L3,8 L3.10429471,8.14336793 L3.13905842,8.17921084 Z M3.03476371,8 L3,8 L3.05214735,8.01792792 L3.03475834,8 L3.03476371,8 Z M3,7 L3.0347655,7.01792792 L3,7 Z M7.19120577,9 L7,9.01792792 L7.10429471,9.07169135 L7.19120577,9.00000739 L7.19120577,9 Z M2.10256468,7 L2,7.44117692 L2.3205128,7.5 L2.74359029,8 L3,7.86764693 L2.10256468,7 Z M5,7.03584106 L5,7 L5,7.01792792 L5,7.03585583 L5,7.03584106 Z M5.0347655,5.01792792 L5,5 L5.01738902,5.01792792 L5.03477804,5.01792792 L5.0347655,5.01792792 Z M5.00000716,6.01792792 L5.05215452,6 L5.0347655,6 L5,6.01792792 L5.00000716,6.01792792 Z M5,5.07168397 L5.05214735,5.07168397 L5.20858941,5 L5,5.07168397 Z M6.01738365,5.03584291 L6.05214735,5 L6,5.03584291 L6.01738902,5.03584291 L6.01738365,5.03584291 Z M6.00000716,5.05376344 L6.10430187,5 L6.01738902,5.01792792 L6,5.05377082 L6.00000716,5.05376344 Z M6.08691285,5 L6,5.01792792 L6,5.03585583 L6.08691285,5.00001477 L6.08691285,5 Z M17.1912058,2.10752687 L17.1216766,2.05376344 L17,2 L17.1912058,2.10752687 Z M8,1.2150519 L8.15644027,1 L8.06952921,1.07168397 L8,1.2150519 Z M9,1.10752687 L9.069531,1 L9.0347655,1.03584291 L9,1.10752687 Z M9,1.10752687 L9.12167656,1 L9.05214735,1.03584106 L9,1.10752687 Z M14,1 L14.0869129,1.08960634 L14.1390602,1.08960634 L14,1 Z M11.1557193,0 L10.4295197,0.617589706 L9.98671675,0.490438994 L8.95941067,1.08986485 L8.76457569,0.962714135 L7.5955731,2.30688228 L6.40885708,2.57934942 L6.51512855,3.23326871 L7.04649502,3.978011 L8.03837606,4.95889086 L7.87896795,5.34034299 L8.62287918,5.66730357 L8.23321104,5.73996085 L7.75498122,5.35850872 L8.00295285,5.92160499 L7.68413296,6.12141486 L6.67453849,5.17686457 L5.87749061,5.32217914 L4.51365304,5.84894771 L5.13357937,6.55736042 L5.04501951,6.99330786 L5.45239926,7.5019107 L6.79852339,8.046845 L7.77269465,7.53824028 L7.93210277,7.91969429 L7.66642136,9.06405256 L6.85166004,9.06405256 L5.89520404,9.5 L5.84206739,9.19120328 L5.34612596,9.39101314 L5.11586777,9.91778171 L4.30110645,10.5535371 L4.30110645,11.4799236 L4.61992633,11.6252381 L4.37195653,12.40631 L5.43468582,13.3508603 L6.10774881,13.0602293 L5.9660523,14.2227533 L6.16088545,14.4770547 L6.97564677,14.6586988 L7.27675322,15.0038233 L7.98523941,15.0583167 L8.32177091,15.4216069 L9.04797053,15.2036331 L8.71143904,15.6759083 L8.44575581,16.6386224 L6.28487035,18.0736136 L6.00147551,18.3642446 L5.59409577,18.2007643 L4.93874622,18.3642446 L4,19 L5.47011086,18.5640526 L5.68265745,18.8910131 L7.57785967,18.2552577 L7.63099632,18.509561 L8.37490755,17.746653 L9.9335801,16.6386224 L10.057565,16.7112816 L11.4214026,15.603251 L11.0671595,15.1673036 L11.5276759,14.3862336 L12.7321035,12.9149128 L13.6531363,12.7332687 L13.9365311,12.9330786 L12.8206652,13.2600373 L12.5195569,14.4770547 L12.5549819,15.1309759 L12.9446501,15.0946463 L14.8221407,13.9321223 L14.9638372,13.4961748 L14.8044291,12.8240917 L15.3712169,12.9694063 L15.7785985,12.696941 L16.9476011,13.4235176 L16.8590412,13.6233274 L19.5158663,13.9684519 L20.1357926,13.768642 L20.312916,14.0411091 L22.615498,15.1673036 L23.0051661,14.931166 L23.0405912,13.568834 L23.3416976,14.1864237 L24.8295201,15.2944543 L24.953505,15.7485656 L26.2464943,16.4933079 L26.5830258,17.456022 L26.9018457,16.7112816 L27.5571952,18.0191201 L28,17.2743779 L27.6457569,16.3479914 L26.2819193,16.2026769 L24.1918821,14.150096 L23.0583028,13.2963669 L22.1904066,14.1682599 L21.6767536,14.1682599 L20.4900376,13.3690241 L19.3210331,13.3145307 L17.6560891,2.54301985 L17.3726943,2.034417 L16.6996313,1.61663342 L15.6900368,1.81644328 L14.9107006,1.65296299 L13.9188195,1.25334514 L12.8738,1.32600242 L12.6081186,0.817399571 L11.7756457,0.690246988 L11.6339492,0.381452135 L11.2619926,0.817399571 L11.1557193,0 Z"></path>
            </g>
        </g>
    </g>
</svg>