<?xml version="1.0" encoding="UTF-8"?>
<svg width="14px" height="21px" viewBox="0 0 14 21" version="1.1" xmlns="http://www.w3.org/2000/svg" xmlns:xlink="http://www.w3.org/1999/xlink">
    <!-- Generator: Sketch 48.1 (47250) - http://www.bohemiancoding.com/sketch -->
    <title>AL</title>
    <desc>Created with Sketch.</desc>
    <defs></defs>
    <g id="Registration2.1" stroke="none" stroke-width="1" fill="none" fill-rule="evenodd" transform="translate(-23.000000, -204.000000)">
        <g id="Group" transform="translate(-6.000000, 203.000000)" fill="#11C4FF" fill-rule="nonzero">
            <g id="AL" transform="translate(29.000000, 1.000000)">
                <polygon fill="#11C4FF" points="0.0209346939 1.34043065 0.104643286 1.50290754 0.397616888 1.68569116 0.52317762 10.0125777 0.565031916 14.5822101 1.63229382 20.8375315 1.71600241 20.8172143 2.65770574 21 2.90882505 19.1924559 3.32736154 20.2079307 4.03886948 20.8375252 5.3991093 20.0657647 5.25262034 19.9439076 5.29447464 19.9642248 4.35277131 17.8723487 13.3931246 16.4506848 14 16.3491386 14 16.3288214 13.4349767 15.2930378 13.3931246 13.8104475 12.9327359 12.9980672 13.1629292 11.4139286 13.5396114 11.0077395 11.9910326 8.32688655 9.18684869 0.0406197447 9.16591399 0 8.53811034 0.101548316 5.18983135 0.629594535 3.51569401 0.832689074 0 1.29980672 0.0209346939 1.34042647"></polygon>
            </g>
        </g>
    </g>
</svg>