<?xml version="1.0" encoding="UTF-8"?>
<svg width="18px" height="17px" viewBox="0 0 18 17" version="1.1" xmlns="http://www.w3.org/2000/svg" xmlns:xlink="http://www.w3.org/1999/xlink">
    <!-- Generator: Sketch 48.1 (47250) - http://www.bohemiancoding.com/sketch -->
    <title>AR</title>
    <desc>Created with Sketch.</desc>
    <defs></defs>
    <g id="Registration2.1" stroke="none" stroke-width="1" fill="none" fill-rule="evenodd" transform="translate(-21.000000, -362.000000)">
        <g id="Group" transform="translate(17.000000, 203.000000)" fill="#11C4FF" fill-rule="nonzero">
            <g id="AR" transform="translate(4.000000, 159.000000)">
                <polygon fill="#11C4FF" points="17.9784091 2.01144962 15.6474742 2.35750549 16.5971147 0.84351077 16.1870428 0 7.96402476 0.800255179 1.01438876 1.36259569 0 1.42748131 0.129496627 2.03307741 0.971222478 6.40203252 0.992813402 7.37531452 1.23022463 13.2582643 1.25181555 14.2315463 1.31656386 14.253183 1.64030543 14.5992389 2.93526725 14.5559811 3.06476388 16.4592873 3.10793016 17 3.77699533 16.9351144 5.82735265 16.7837154 13.9640403 16.026718 14.0072044 16.026718 13.9856135 15.5508909 14.2014404 15.3994919 13.8129528 14.6641245 14.6330966 11.2035658 14.309355 10.8142521 15.5395708 9.45165643 15.4532382 8.28371982 16.3597124 6.7697251 16.3597124 6.74808839 16.3165483 6.7048328 17.0935258 5.99109103 16.8776989 5.12595246 17.4820157 4.17429826 17.3525191 3.28752967 18 2.03307741 18 2.0114407 17.9784091 2.0114407"></polygon>
            </g>
        </g>
    </g>
</svg>