<?xml version="1.0" encoding="UTF-8"?>
<svg width="18px" height="18px" viewBox="0 0 18 18" version="1.1" xmlns="http://www.w3.org/2000/svg" xmlns:xlink="http://www.w3.org/1999/xlink">
    <!-- Generator: Sketch 48.2 (47327) - http://www.bohemiancoding.com/sketch -->
    <title>Ask_questions</title>
    <desc>Created with Sketch.</desc>
    <defs></defs>
    <g id="App-Menu" stroke="none" stroke-width="1" fill="none" fill-rule="evenodd" transform="translate(-23.000000, -308.000000)">
        <g id="menu-3" transform="translate(0.000000, 292.000000)" fill-rule="nonzero">
            <g id="Ask_questions" transform="translate(23.000000, 16.000000)">
                <path d="M9,1.14194368e-15 C4.02943725,-1.14194368e-15 0,4.02943725 0,9 C-1.14194368e-15,13.9705627 4.02943725,18 9,18 C13.9705627,18 18,13.9705627 18,9 C18,4.02943725 13.9705627,4.56777473e-15 9,1.14194368e-15 Z" id="Shape3" fill="#11C4FF"></path>
                <path d="M9.00125085,4.02751122 C8.2118548,3.95199162 7.42887671,4.22688212 6.85403021,4.78136444 C6.2791837,5.33584677 5.96867618,6.11570468 6.0025017,6.9200284 L7.36693256,6.9200284 C7.33876176,6.47574542 7.50354214,6.04120522 7.81788703,5.73082219 C8.13223191,5.42043916 8.56463729,5.26532026 9.00125085,5.30630829 C9.81091312,5.30630829 10.5006254,5.7173502 10.5006254,6.676448 C10.5006254,7.39196541 10.0808005,7.72688845 9.40608198,8.19882547 C8.60163596,8.66643186 8.09577304,9.52631871 8.07163861,10.4671679 L8.07163861,11 L9.43606948,11 L9.43606948,10.5889581 C9.43606948,9.76687425 9.73594439,9.52329386 10.5606004,8.88389533 C11.4059683,8.42884532 11.9528643,7.5554264 12,6.58510536 C11.9778017,5.82603511 11.6376196,5.11265911 11.0649257,4.62421596 C10.4922318,4.13577281 9.74146224,3.91869027 9.00125085,4.02751122 Z" id="Shape1" stroke="#FFFFFF" stroke-width="0.5" fill="#FFFFFF"></path>
                <path d="M8.94279491,12.0026034 C8.39908272,12.0337115 7.98026144,12.4940331 8.00071853,13.0380285 C8.02117562,13.582024 8.47338715,14.009617 9.01790134,13.9998355 C9.56241552,13.990054 9.99896519,13.5464957 9.99985511,13.0021167 C10.004597,12.7254915 9.89276344,12.4596202 9.69169231,12.2694955 C9.49062118,12.0793708 9.21884322,11.9825145 8.94279491,12.0026034 Z" id="Shape" stroke="#FFFFFF" stroke-width="0.5" fill="#FFFFFF"></path>
            </g>
        </g>
    </g>
</svg>