<?xml version="1.0" encoding="UTF-8"?>
<svg width="16px" height="19px" viewBox="0 0 16 19" version="1.1" xmlns="http://www.w3.org/2000/svg" xmlns:xlink="http://www.w3.org/1999/xlink">
    <!-- Generator: Sketch 48.1 (47250) - http://www.bohemiancoding.com/sketch -->
    <title>AZ</title>
    <desc>Created with Sketch.</desc>
    <defs></defs>
    <g id="Registration2.1" stroke="none" stroke-width="1" fill="none" fill-rule="evenodd" transform="translate(-21.000000, -309.000000)">
        <g id="Group" transform="translate(17.000000, 203.000000)" fill="#11C4FF" fill-rule="nonzero">
            <g id="AZ" transform="translate(4.000000, 106.000000)">
                <polygon fill="#11C4FF" points="15.6225152 1.65919738 10.7295935 1.04250512 8.10164359 0.660741811 4.35572788 0.0587337484 3.97823259 0 3.97823259 0.0293668742 3.33939372 2.87789921 3.00545569 2.86321048 2.49728861 2.40803376 1.85844974 2.95130959 1.84392516 5.28593146 1.61162026 5.78515773 1.61162026 5.82920729 1.61162026 5.84389602 1.58258158 6.21097363 2.09074866 7.591191 2.54083989 8.20788325 1.72777196 8.69242684 1.40835253 9.29443642 0.885666857 10.5865532 0.62432477 10.6452869 0.609800197 11.7171559 1.05989142 12.0548696 0.827586516 12.7009273 0.304900847 12.7302941 0.304900847 12.7302941 0 13.3029368 1.04537284 13.9636786 3.01996381 15.0795987 9.11796728 18.3539409 14.2867511 19 14.344827 19 14.7513609 14.66847 14.852994 13.5965995 15.9419241 2.23184008 16 1.70324694 15.6225047 1.65919738"></polygon>
            </g>
        </g>
    </g>
</svg>