<?xml version="1.0" encoding="UTF-8"?>
<svg width="21px" height="20px" viewBox="0 0 21 20" version="1.1" xmlns="http://www.w3.org/2000/svg" xmlns:xlink="http://www.w3.org/1999/xlink">
    <!-- Generator: Sketch 48.2 (47327) - http://www.bohemiancoding.com/sketch -->
    <title>build_your_team</title>
    <desc>Created with Sketch.</desc>
    <defs></defs>
    <g id="App-Menu" stroke="none" stroke-width="1" fill="none" fill-rule="evenodd" transform="translate(-22.000000, -363.000000)">
        <g id="menu-4" transform="translate(22.000000, 363.000000)" fill="#11C4FF" fill-rule="nonzero">
            <g id="build_your_team">
                <path fill="#11C4FF" d="M14.2657391,15.596 L10.9429565,13.8592727 C10.6295652,13.6952727 10.4347826,13.3658182 10.4347826,12.9992727 L10.4347826,11.7698182 C10.5144348,11.668 10.5982609,11.552 10.6848696,11.424 C11.1158261,10.7876364 11.4612174,10.0792727 11.7123478,9.31527273 C12.2031304,9.08 12.5217391,8.57272727 12.5217391,8 L12.5217391,6.54545455 C12.5217391,6.19527273 12.3965217,5.856 12.173913,5.59090909 L12.173913,3.65672727 C12.1933913,3.45672727 12.269913,2.26618182 11.4462609,1.284 C10.7318261,0.432 9.57252174,0 8,0 C6.42747826,0 5.26817391,0.432 4.55373913,1.28363636 C3.73008696,2.26581818 3.8066087,3.45672727 3.82608696,3.65636364 L3.82608696,5.59054545 C3.60347826,5.85563636 3.47826087,6.19490909 3.47826087,6.54509091 L3.47826087,7.99963636 C3.47826087,8.44218182 3.6706087,8.85490909 3.99895652,9.13018182 C4.31756522,10.4490909 4.98434783,11.4429091 5.2173913,11.7618182 L5.2173913,12.9650909 C5.2173913,13.3170909 5.03373913,13.64 4.73843478,13.8087273 L1.63547826,15.5781818 C0.626434783,16.1541818 0,17.2574545 0,18.4589091 L0,20 L16,20 L16,18.5298182 C16,17.2792727 15.3353043,16.1552727 14.2657391,15.596 Z" id="Shape2"></path>
                <path fill="#11C4FF" d="M19.4094737,16.0385055 L15.9978947,14.5187414 C15.917193,14.4772276 15.8277193,14.3757897 15.7508772,14.2404187 L18.0403509,14.2386138 C18.0403509,14.2386138 18.1726316,14.2519704 18.3778947,14.2519704 C18.754386,14.2519704 19.3035088,14.2079297 19.7814035,13.9967511 C20.0680702,13.8696829 20.2814035,13.6187955 20.3670175,13.3083449 C20.4533333,12.9950063 20.3985965,12.6632573 20.2175439,12.3975693 C19.5631579,11.4395042 18.0357895,8.93604476 17.9880702,6.39684736 C17.9870175,6.35316768 17.8487719,2.03501594 13.7038596,2 C13.2873684,2.00360989 12.8936842,2.0563143 12.5207018,2.1490885 C12.7985965,2.9049997 12.7729825,3.58149329 12.7540351,3.80097467 L12.7540351,5.50953613 C12.9814035,5.84236809 13.1049123,6.23765116 13.1049123,6.64340292 L13.1049123,8.08735936 C13.1049123,8.7757656 12.7526316,9.41291138 12.1901754,9.7702906 C11.9277193,10.5002106 11.5803509,11.182119 11.1554386,11.7994104 C11.102807,11.8763011 11.0508772,11.9488599 11,12.0174478 L11,13.0498767 C11,13.2094338 11.082807,13.3476927 11.2214035,13.4188075 L14.5733333,15.1428915 C15.8319298,15.790506 16.6136842,17.0918717 16.6136842,18.539799 L16.6136842,20 L21,20 L21,18.6654233 C21,17.5492449 20.397193,16.5464172 19.4094737,16.0385055 Z" id="Shape"></path>
            </g>
        </g>
    </g>
</svg>