<?xml version="1.0" encoding="UTF-8"?>
<svg width="17px" height="27px" viewBox="0 0 17 27" version="1.1" xmlns="http://www.w3.org/2000/svg" xmlns:xlink="http://www.w3.org/1999/xlink">
    <!-- Generator: Sketch 48.1 (47250) - http://www.bohemiancoding.com/sketch -->
    <title>CA</title>
    <desc>Created with Sketch.</desc>
    <defs></defs>
    <g id="Registration2.1" stroke="none" stroke-width="1" fill="none" fill-rule="evenodd" transform="translate(-23.000000, -409.000000)">
        <g id="Group" transform="translate(17.000000, 203.000000)" fill="#11C4FF" fill-rule="nonzero">
            <g id="CA" transform="translate(6.000000, 206.000000)">
                <path fill="#11C4FF" d="M7,25 L7.04909716,25.2616742 L7.04909716,25.309251 L7,25 Z M5,24.0000037 L5.08592035,24.1784182 L5.13501752,24.1665194 L5,24 L5,24.0000037 Z M7,24 L7.03682319,24.309251 L7.25776232,24.4638765 L7,24 Z M6.13501878,22.0356829 L6,22 L6.11046957,22.0475768 L6.13501878,22.035678 L6.13501878,22.0356829 Z M4.33140743,22 L4,22.1903084 L4.08592035,22.2735693 L4.33140743,22 Z M4.02454921,21 L4,21.0951548 L4.11046957,21.1189438 L4.02454921,21 Z M5,22 L5.84615308,22.2973571 L6,22.2140962 L5,22 Z M1.01227903,11 L1,11.0118988 L1.01227903,11 Z M2.01227903,11.0356829 L2,11 L2,11.047578 L2.01227903,11.0356792 L2.01227903,11.0356829 Z M9.1935017,2.0933922 L8.71480151,1.97444839 L3.46137215,0.570925146 L1.50974694,0 L1.50974694,0.0475767891 L1.39927738,1.22510998 L0.883754,2.61673933 L0.0245479494,3.65154093 L0,4.17488929 L0.417327786,4.90043992 L0.625992943,5.85198182 L0.331407434,6.62510924 L0.380504597,7.39823789 L0.233213107,7.71938275 L0.736461245,8.77797335 L1.0555947,9.18237912 L1.03104675,10.3361233 L1.79205721,11.0378849 L2.23393421,10.3242294 L2.71263567,10.6929511 L2.89675034,10.5264317 L2.23393421,10.6453743 L2.22165518,11.2519823 L2.35667396,12.0132158 L1.98844207,11.668282 L1.77977818,11.2044055 L1.71840578,11.8466952 L1.89024775,13.1193832 L2.57761183,13.9400874 L2.12346085,14.5110126 L2.19710597,15.2365632 L2.68808139,15.974009 L3.54728744,18.2577095 L3.81732374,18.4004399 L3.73140212,19.9823789 L3.8664209,20.1726873 L5.70757654,20.8149782 L6.27219708,21.3977972 L6.468587,21.778414 L7.00865959,22.0757711 L7.59782935,22.1828198 L7.84331643,22.8370046 L8.33429059,23.0629959 L9.0707531,23.9074891 L9.75811845,25.0136565 L9.70902002,26.0365642 L10.0895259,26.5242284 L15.1097434,27 L15.5516204,26.976211 L15.7480103,26.4528639 L15.3675045,26.1792946 L15.3797835,25.3110136 L15.6007214,25.2634356 L16.0425984,24.2167401 L16.3126347,23.7290746 L17,23.336564 L16.6194941,22.8370046 L16.1898911,21.7189421 L16.2144403,21.4215862 L16.2144403,21.4096875 L15.8953069,20.9933878 L14.9133573,19.720701 L13.0108292,17.1277495 L10.359566,13.4405244 L8.862093,11.4303931 L7.4137172,9.4083655 L9.08303087,2.54536986 L9.19350044,2.09338852 L9.1935017,2.0933922 Z"></path>
            </g>
        </g>
    </g>
</svg>