<?xml version="1.0" encoding="UTF-8"?>
<svg width="19px" height="17px" viewBox="0 0 19 17" version="1.1" xmlns="http://www.w3.org/2000/svg" xmlns:xlink="http://www.w3.org/1999/xlink">
    <!-- Generator: Sketch 48.2 (47327) - http://www.bohemiancoding.com/sketch -->
    <title>checklist</title>
    <desc>Created with Sketch.</desc>
    <defs></defs>
    <g id="App-Menu" stroke="none" stroke-width="1" fill="none" fill-rule="evenodd" transform="translate(-25.000000, -250.000000)">
        <g id="menu-2" transform="translate(24.000000, 249.000000)" fill="#11C4FF" fill-rule="nonzero" stroke="#11C4FF">
            <g id="checklist" transform="translate(2.000000, 2.000000)">
                <path fill="#11C4FF" d="M0,14.1358696 L0,2.27316934 C0,1.80978261 0.374141876,1.43564073 0.837528604,1.43564073 L9.59382151,1.43564073 L11.3546911,1.43564073 L9.68306636,3.10726545 L9.59382151,3.10726545 L1.67162471,3.10726545 L1.67162471,13.298341 L11.8627002,13.298341 L11.8627002,11.4688215 L11.8627002,8.96996568 L13.5343249,7.29834096 L13.5343249,11.4688215 L13.5343249,14.1358696 C13.5343249,14.5958238 13.1601831,14.9733982 12.6967963,14.9733982 L0.837528604,14.9733982 C0.374141876,14.9733982 0,14.5992563 0,14.1358696 Z M7.28032037,7.71710526 L5.49542334,5.93220824 C4.99427918,5.43106407 4.18077803,5.43106407 3.67963387,5.93220824 C3.43592677,6.17591533 3.3020595,6.49856979 3.3020595,6.84181922 C3.3020595,7.18506865 3.43592677,7.50772311 3.67963387,7.74799771 L6.37070938,10.4390732 C6.87185355,10.9402174 7.68535469,10.9402174 8.18649886,10.4390732 L16.4073227,2.21824943 C16.6510297,1.97454233 16.784897,1.65188787 16.784897,1.31207094 C16.784897,0.96882151 16.6510297,0.646167048 16.4073227,0.402459954 C15.9061785,-0.0986842105 15.0926773,-0.0986842105 14.5915332,0.402459954 L7.28032037,7.71710526 Z" id="Shape"></path>
            </g>
        </g>
    </g>
</svg>