<?xml version="1.0" encoding="UTF-8"?>
<svg width="22px" height="17px" viewBox="0 0 22 17" version="1.1" xmlns="http://www.w3.org/2000/svg" xmlns:xlink="http://www.w3.org/1999/xlink">
    <!-- Generator: Sketch 48.1 (47250) - http://www.bohemiancoding.com/sketch -->
    <title>CO</title>
    <desc>Created with Sketch.</desc>
    <defs></defs>
    <g id="Registration2.1" stroke="none" stroke-width="1" fill="none" fill-rule="evenodd" transform="translate(-20.000000, -466.000000)">
        <g id="Group" transform="translate(17.000000, 203.000000)" fill="#11C4FF" fill-rule="nonzero">
            <g id="CO" transform="translate(3.000000, 263.000000)">
                <polygon fill="#11C4FF" points="21.9259245 5.05708736 22 1.39957496 21.1111111 1.36225268 16.592593 1.1943053 16.1481475 1.17563743 15.7777776 1.15696956 10.2777772 0.802414621 6.61111018 0.503842141 2.03703637 0.0559824601 1.59259287 0 1.53703719 0.485181962 0.537036929 10.2074468 0.185184951 13.603709 0.0370377533 15.0779112 0 15.5630912 0.574074683 15.6190737 9.90740726 16.4401466 14.0185177 16.7013987 18.1111103 16.8880062 18.7037029 16.9066741 19.0740728 16.925342 19.8518504 16.9440098 20.2222222 16.9626777 21.3888876 17 21.6851839 17 21.6851839 16.626783 21.8888886 6.75523095 21.9074142 5.65424577 21.9074142 5.29969083 21.9259398 5.05710081"></polygon>
            </g>
        </g>
    </g>
</svg>