<?xml version="1.0" encoding="UTF-8"?>
<svg width="17px" height="22px" viewBox="0 0 17 22" version="1.1" xmlns="http://www.w3.org/2000/svg" xmlns:xlink="http://www.w3.org/1999/xlink">
    <!-- Generator: Sketch 48.2 (47327) - http://www.bohemiancoding.com/sketch -->
    <title>find_support</title>
    <desc>Created with Sketch.</desc>
    <defs></defs>
    <g id="App-Menu" stroke="none" stroke-width="1" fill="none" fill-rule="evenodd" transform="translate(-24.000000, -421.000000)">
        <g id="menu-5" transform="translate(24.000000, 421.000000)" fill="#11C4FF" fill-rule="nonzero">
            <g id="find_support">
                <path fill="#11C4FF" d="M16.8451101,10.1012427 C16.6908306,9.83232316 16.4316695,9.68408221 16.1102239,9.68408221 C15.5135092,9.686317 14.7954469,9.93251617 14.2363177,10.3262114 C13.7205013,10.6893644 12.9727286,11.3624082 12.34165,12.5099719 C12.2231661,12.7252565 12.0287954,12.8712627 11.8208222,12.9059019 C11.8201063,12.8559916 11.8204642,12.7990045 11.8204642,12.7453696 C11.8204642,12.6299055 11.8208222,12.4928385 11.8161688,12.3416179 L11.8161688,4.09711171 C11.8161688,3.27545458 11.1739934,2.6072529 10.3843398,2.6072529 C9.59468607,2.6072529 8.95251077,3.27545458 8.95251077,4.09711171 L8.95251077,9.87031456 C8.95251077,9.97274236 8.87197039,10.0565469 8.77353214,10.0565469 C8.6750939,10.0565469 8.59455352,9.97274236 8.59455352,9.87031456 L8.59455352,1.4898588 C8.59455352,0.668201673 7.95237822,0 7.16272453,0 C6.37307084,0 5.73089554,0.668201673 5.73089554,1.4898588 L5.73089554,9.87031456 C5.73089554,9.97274236 5.65035516,10.0565469 5.55191691,10.0565469 C5.45347867,10.0565469 5.37293829,9.97274236 5.37293829,9.87031456 L5.37293829,3.16594995 C5.37293829,2.44709308 4.81094541,1.8623235 4.12008792,1.8623235 C3.42923043,1.8623235 2.86723755,2.44709308 2.86723755,3.16594995 L2.86723755,10.615244 C2.86723755,10.7176718 2.78669717,10.8014763 2.68825893,10.8014763 C2.58982069,10.8014763 2.50928031,10.7176718 2.50928031,10.615244 L2.50928031,5.95943521 C2.50928031,5.24057834 1.94728743,4.65580876 1.25285037,4.65580876 C0.561992879,4.65580876 0,5.24057834 0,5.95943521 L0.000715914496,16.0893577 C0.34721853,21.2975316 3.41741784,22 6.37521858,22 C8.8257939,22 11.026873,20.7351099 12.1121994,18.7133715 C12.2518027,18.4787187 12.6294476,17.8611722 13.0772521,17.1289066 C14.1969424,15.2989876 15.1347904,13.7614533 15.2733198,13.4880642 C15.582237,12.8794569 15.9269498,12.4038195 16.2698728,12.1125521 C16.5802218,11.8488471 16.7699391,11.5125114 16.9242187,11.2171469 C17.0036852,11.0636915 17.0731289,10.4994074 16.8451101,10.1012427 Z" id="Shape"></path>
            </g>
        </g>
    </g>
</svg>