<?xml version="1.0" encoding="UTF-8"?>
<svg width="23px" height="19px" viewBox="0 0 23 19" version="1.1" xmlns="http://www.w3.org/2000/svg" xmlns:xlink="http://www.w3.org/1999/xlink">
    <!-- Generator: Sketch 48.1 (47250) - http://www.bohemiancoding.com/sketch -->
    <title>FL</title>
    <desc>Created with Sketch.</desc>
    <defs></defs>
    <g id="Registration2.1" stroke="none" stroke-width="1" fill="none" fill-rule="evenodd" transform="translate(-19.000000, -623.000000)">
        <g id="Group" transform="translate(17.000000, 203.000000)" fill="#11C4FF" fill-rule="nonzero">
            <g id="FL" transform="translate(2.000000, 420.000000)">
                <path fill="#11C4FF" d="M18.0445153,19.7701162 L18.0143903,19.7701162 L18.0294583,19.7854476 L18.0445262,19.7701162 L18.0445153,19.7701162 Z M17.9089552,19.7547847 L17.9089552,19.7701162 L17.9240231,19.7701162 L17.9089552,19.7547847 Z M17.9390802,19.7394532 L17.9390802,19.7241217 L17.9390802,19.7394532 Z M15.8906187,19.969337 L15.8906187,19.9846685 L15.8906187,19.969337 Z M15.8604953,19.9846685 L15.8604953,19.969337 L15.8604953,19.9846685 Z M15.7249413,19.9846685 L15.7098734,19.9846685 L15.7098734,20 L15.7249413,19.9846685 Z M20.002608,19.0191513 L19.98754,19.0191513 L20.002608,19.0498017 L20.002608,19.0191513 Z M20.4092885,18.911872 L20.4092885,18.8812201 L20.3791635,18.9271972 L20.4092885,18.9118657 L20.4092885,18.911872 Z M20.2586666,18.8812201 L20.1984166,18.8199178 L20.1833487,18.8352493 L20.2586604,18.8812264 L20.2586666,18.8812201 Z M20.2134799,19.0038262 L20.032733,18.7739407 L20.1381681,18.9731742 L20.2134799,19.0038262 Z M21.6443888,18.0996112 L21.6443888,18.1609135 L21.6745138,18.1302631 L21.6443888,18.0996112 Z M21.8552607,17.9463548 L21.9004475,17.8697258 L21.8401975,17.9310296 L21.8552654,17.9463611 L21.8552607,17.9463548 Z M21.9004475,17.7930984 L21.8853795,17.7930984 L21.8853795,17.8084299 L21.9004475,17.7930984 Z M21.6293271,17.7471213 L21.6142592,17.7317898 L21.6293271,17.7471213 Z M21.7648873,17.5172359 L21.7498194,17.5019044 L21.7498194,17.5325563 L21.7648873,17.5172248 L21.7648873,17.5172359 Z M21.3582067,17.5019044 L21.3431388,17.4865729 L21.3582067,17.5019044 Z M21.8703225,17.1494145 L21.8401975,17.164746 L21.8853842,17.1800774 L21.8703163,17.1494271 L21.8703225,17.1494145 Z M21.9305709,17.1494145 L21.9004475,17.1187626 L21.9155154,17.1647396 L21.9305833,17.1494082 L21.9305709,17.1494145 Z M21.8251357,17.1187626 L21.8100678,17.1034311 L21.8100678,17.1340814 L21.8251357,17.1187499 L21.8251357,17.1187626 Z M22.3824382,17.0114832 L22.3824382,16.9961517 L22.3523132,17.057454 L22.3824382,17.0114769 L22.3824382,17.0114832 Z M21.7498256,17.0727855 L21.7197006,17.0727855 L21.7498256,17.088117 L21.7498256,17.0727855 Z M22.0661311,16.8888771 L22.0209444,16.8888771 L22.0058764,16.9042086 L22.0661249,16.8888771 L22.0661311,16.8888771 Z M22.1866296,16.8122497 L22.1715616,16.8122497 L22.1866296,16.8122497 Z M20.9214027,16.873552 L20.9214027,16.8429016 L20.9063348,16.873552 L20.9214027,16.873552 Z M21.0569629,16.8275749 L21.0117762,16.8275749 L21.0569629,16.9195291 L21.0569629,16.8275749 Z M20.6954706,16.8429064 L20.6954706,16.7509522 L20.6201589,16.7662837 L20.6954706,16.8429127 L20.6954706,16.8429064 Z M20.4845987,16.6896484 L20.5599104,16.7662774 L20.5599104,16.7356255 L20.4845987,16.6896484 Z M22.6987438,16.7816025 L22.4276249,16.9042086 L22.5179968,16.9195401 L22.6987438,16.7816089 L22.6987438,16.7816025 Z M20.5900354,16.6436729 L20.499662,16.6436729 L20.499662,16.6743232 L20.5900354,16.6436729 Z M22.9698641,15.8773892 L22.9849321,15.8007602 L23,15.6015267 L22.9698765,15.8773892 L22.9698641,15.8773892 Z M22.9849321,15.0191513 L22.9246836,14.8658949 L22.8945586,14.9271987 L22.9849321,15.0191513 Z M19.5055617,15.4022932 L19.4754367,15.4482703 L19.5507484,15.4636017 L19.5055617,15.4022995 L19.5055617,15.4022932 Z M19.2193796,15.2643619 L19.0838194,15.310339 L19.1892562,15.3256705 L19.2193796,15.2643667 L19.2193796,15.2643619 Z M18.9181358,15.2950138 L18.9181358,15.2490367 L18.9030678,15.2643682 L18.9181358,15.2950201 L18.9181358,15.2950138 Z M18.6018287,15.2796823 L18.5114552,15.3409846 L18.6319537,15.4022869 L18.6018287,15.2796823 Z M19.023571,15.2950138 L19.008503,15.2490367 L18.9331913,15.2337053 L19.0235648,15.2950075 L19.023571,15.2950138 Z M17.0504213,13.7930984 L16.9600478,13.8390755 L17.1407947,13.9003793 L17.0504213,13.7930984 Z M16.688929,13.3026772 L16.5684305,13.1187704 L16.6136173,13.2567017 L16.688929,13.3026772 Z M17.1558565,13.6091916 L16.9449861,13.1187704 L16.7943642,13.0727934 L17.1558565,13.6091916 Z M16.5533688,12.9961644 L16.5081821,12.8735599 L16.4780571,12.7969309 L16.5533688,12.9961644 Z M15.3032052,11.295017 L15.0320849,11.0957835 L15.1375216,11.2030628 L15.3032052,11.295017 Z M22.081199,10.2681976 L20.9816589,8.39846701 L20.9214089,8.39846701 L22.081199,10.2681976 Z M14.4747839,7.2796934 L14.4295972,7.26436192 L14.4747839,7.29501225 L14.4747839,7.27968077 L14.4747839,7.2796934 Z M14.3844105,7.17241407 L14.3693425,7.18774555 L14.3844105,7.20307703 L14.3844105,7.1724267 L14.3844105,7.17241407 Z M14.2789753,7.01915764 L14.2789753,7.00382616 L14.2639074,7.01915764 L14.2789753,7.01915764 Z M14.3392237,6.95785381 L14.3844105,6.98850573 L14.3844105,6.95785381 L14.3392237,6.95785381 Z M14.4295972,6.89655156 L14.3693487,6.91188304 L14.3844167,6.91188304 L14.4296034,6.89655156 L14.4295972,6.89655156 Z M14.324162,6.88122008 L14.2789753,6.83524299 L14.2940432,6.85057448 L14.3241682,6.88122639 L14.324162,6.88122008 Z M14.2187268,6.71263691 L14.1886018,6.71263691 L14.2337886,6.72796839 L14.2187206,6.71263691 L14.2187268,6.71263691 Z M14.324162,6.52873015 L14.263912,6.52873015 L14.2488441,6.54406164 L14.3241558,6.52873015 L14.324162,6.52873015 Z M14.3844105,6.55938049 L14.3090987,6.48275307 L14.3392237,6.49808455 L14.3844105,6.5593868 L14.3844105,6.55938049 Z M13.8120463,5.90037772 L13.7819213,5.88504624 L13.7819213,5.90037772 L13.8120463,5.90037772 Z M13.1643719,5.90037772 L13.1191852,5.83907547 L13.1342531,5.91570289 L13.1643781,5.90037141 L13.1643719,5.90037772 Z M7.68172684,5.3946298 L8.13359258,5.04213987 L7.63654011,5.37930463 L7.68172684,5.39463611 L7.68172684,5.3946298 Z M8.58545987,4.65899961 L8.6306466,4.61302252 L8.44989968,4.68964995 L8.58545987,4.65899961 Z M2.86181944,3.63218017 L1.22003858,4.16857843 L2.1237716,3.9080411 L2.86181944,3.63218017 Z M6.943679,1.02681786 L6.50687499,1.10344528 L0,2.1762418 L0.677799381,3.75478467 L0.72298611,3.77011616 L0.557302472,4.39846859 L1.03929321,4.18390992 L1.56646913,3.70881391 L2.47020216,3.67816357 L3.50949537,3.29502173 L4.2174182,3.40230106 L4.05173456,3.66283682 L5.34708487,4.10728092 L6.46168826,4.65900592 L6.71774536,5.27203161 L7.54616665,5.08812327 L9.50425462,3.46360332 L10.2272407,3.49425523 L13.1794336,5.76245278 L13.7819213,5.6398467 L14.4145355,6.49808455 L14.5350324,7.86206875 L14.3392237,8.72030502 L14.4295972,9.14942394 L14.9567747,10.2222205 L14.7157793,9.37930936 L15.3935787,9.36397788 L15.4538271,9.97700514 L15.0923349,10.9271956 L16.3424984,12.6743216 L16.8094259,12.6896531 L16.4178086,12.1532548 L16.8997994,12.2145571 L17.1859815,12.0306503 L17.0654845,13.0114927 L17.7131589,13.5325642 L18.1499629,14.7279668 L18.7373889,15.0957819 L19.4905,15.2950154 L20.5297916,16.6436744 L21.0720324,16.9348605 L20.3490463,16.9808376 L20.6804135,17.3639795 L21.8703287,16.9655125 L22.4577546,16.6283477 L22.9999938,14.6973149 L22.728875,11.6934856 L22.6686265,11.3869712 L21.2226543,8.93486685 L19.9875524,7.1570889 L19.2946913,5.70115211 L19.8821173,6.20689846 L20.0026142,6.11494429 L20.2586728,7.38697432 L20.9214089,8.3524915 L20.2737345,7.06513631 L20.3038595,6.45210905 L18.3608333,4.04598024 L17.8939058,3.29502331 L17.2763549,2.02299328 L16.8546126,0.950196755 L16.5232438,0.567054914 L16.4479336,0.0766337366 L16.4328657,0.0613022525 L15.393574,0 L14.9868935,0.32183801 L14.7609614,1.50191387 L14.5500895,0.95019044 L7.44072682,1.8544038 L6.92861262,1.04214461 L6.94368056,1.02681312 L6.943679,1.02681786 Z"></path>
            </g>
        </g>
    </g>
</svg>