<?xml version="1.0" encoding="UTF-8"?>
<svg width="18px" height="19px" viewBox="0 0 18 19" version="1.1" xmlns="http://www.w3.org/2000/svg" xmlns:xlink="http://www.w3.org/1999/xlink">
    <!-- Generator: Sketch 48.1 (47250) - http://www.bohemiancoding.com/sketch -->
    <title>GA</title>
    <desc>Created with Sketch.</desc>
    <defs></defs>
    <g id="Registration2.1" stroke="none" stroke-width="1" fill="none" fill-rule="evenodd" transform="translate(-22.000000, -673.000000)">
        <g id="Group" transform="translate(17.000000, 203.000000)" fill="#11C4FF" fill-rule="nonzero">
            <g id="GA" transform="translate(5.000000, 470.000000)">
                <path fill="#11C4FF" d="M17.2336228,13.6492999 L17.2139647,13.0435604 L17.0764105,13.5685332 L17.2336147,13.6492999 L17.2336228,13.6492999 Z M17.4497811,12.7205 L17.371179,12.2561011 L17.3122269,12.5387802 L17.4497811,12.7205 Z M8.25327484,0 L7.99781644,0.0605739482 L7.25109127,0.22210309 L4.49999899,0.80764987 L4.24454059,0.868223818 L3.96943217,0.908607143 L2.43667977,1.21147688 L2.02401714,1.29224146 L0.353710535,1.61530182 L0,1.65568306 L0.019658121,1.69606639 L2.65284622,9.93410463 L4.10699448,12.5993542 L3.75328192,13.0031791 L3.5371256,14.5780976 L3.96944027,15.3857496 L4.00874032,16.8597108 L4.53930916,17.8894658 L4.53930916,17.9096648 L4.51965104,17.9298637 L5.18777206,19 L14.4628805,17.8087158 L14.7379909,18.5356011 L15.0327494,16.9808732 L15.5633182,16.5568577 L16.9192123,16.6376223 L16.8013101,14.4569643 L17.0567685,13.9925654 L16.9192123,13.1243416 L17.1943227,12.296499 L17.6069854,11.8321001 L17.3122269,11.549421 L18,10.6811972 L17.9803419,10.6811972 L16.8013041,9.55048488 L15.1899495,7.18810714 L14.3056702,6.7640895 L10.5130943,3.49310462 L9.58951283,2.28162773 L7.80130406,1.51435911 L7.7030499,1.11053417 L8.25326876,1.45615453e-05 L8.25327484,0 Z"></path>
            </g>
        </g>
    </g>
</svg>