<?xml version="1.0" encoding="UTF-8"?>
<svg width="26px" height="17px" viewBox="0 0 26 17" version="1.1" xmlns="http://www.w3.org/2000/svg" xmlns:xlink="http://www.w3.org/1999/xlink">
    <!-- Generator: Sketch 48.1 (47250) - http://www.bohemiancoding.com/sketch -->
    <title>HI</title>
    <desc>Created with Sketch.</desc>
    <defs></defs>
    <g id="Registration2.1" stroke="none" stroke-width="1" fill="none" fill-rule="evenodd" transform="translate(-18.000000, -728.000000)">
        <g id="Group" transform="translate(17.000000, 203.000000)" fill="#11C4FF">
            <path fill="#11C4FF" d="M22.8223532,535.716333 L22.067338,535.156161 L21.4097458,535.326648 L21.555878,536.690544 L20.6547306,537.810889 L21.4341003,539.588827 L21.6532986,541.415474 L22.5544434,542 L23.1146175,541.098855 L24.1131829,540.368197 L25.3309491,540.051576 L26.6704904,538.906878 L25.3553036,537.786532 L25.3309391,537.104586 L22.8223432,535.716333 L22.8223532,535.716333 Z M18.3896874,533.743554 L18.024357,533.426935 L17.6833837,533.889686 L18.3896874,533.743554 Z M16.5630406,532.696274 L16.6604612,531.79513 L16.1977103,531.722064 L16.5630406,532.696274 Z M18.0974231,531.210601 L17.6833837,531.405445 L17.975648,532.330947 L18.6088856,532.379656 L18.8037268,533.18338 L19.485676,533.475644 L20.9957039,532.769341 L19.5830965,531.600286 L18.0974231,531.210601 Z M14.9799441,530.212033 L14.7607484,530.869628 L15.8080254,530.845263 L16.7822363,531.088816 L16.2707763,530.285089 L14.9799441,530.212023 L14.9799441,530.212033 Z M11.9111766,528.287966 L11.3510051,527.752149 L10.279371,528.58023 L10.9613202,529.846705 L11.4484256,529.335243 L12.8366785,529.627507 L12.7149009,529.042978 L11.9111766,528.287966 Z M1,527.216332 L1.14613214,526.875358 L1.56017154,526.65616 L1,527.216332 Z M4.87249426,525 L3.16762261,525.633238 L2.99713594,526.095989 L3.67908511,526.583094 L4.62894153,526.826647 L5.31088818,525.487105 L4.87249426,525 Z" id="HI"></path>
        </g>
    </g>
</svg>