<?xml version="1.0" encoding="UTF-8"?>
<svg width="23px" height="16px" viewBox="0 0 23 16" version="1.1" xmlns="http://www.w3.org/2000/svg" xmlns:xlink="http://www.w3.org/1999/xlink">
    <!-- Generator: Sketch 48.1 (47250) - http://www.bohemiancoding.com/sketch -->
    <title>IA</title>
    <desc>Created with Sketch.</desc>
    <defs></defs>
    <g id="Registration2.1" stroke="none" stroke-width="1" fill="none" fill-rule="evenodd" transform="translate(-19.000000, -936.000000)">
        <g id="Group" transform="translate(17.000000, 203.000000)" fill="#11C4FF">
            <polygon fill="#11C4FF" id="IA" points="23.0227191 737.340908 21.77272 736.681818 21.0909006 735.749999 20.8636283 734.409092 21.0454476 733.795454 20.3863571 733 20.3863571 733 19.2727195 733.113637 8.09090735 734.045456 3.61363531 734.295454 2.47727357 734.363636 2 734.386372 2.3863651 736.909099 2.06818194 738.113645 2.56818204 738.863644 2.56818204 739.022735 2.72727245 739.045471 3.4545449 741.181835 4.15909082 742.29547 4.20454622 743.568198 4.97727174 744.636378 4.84090786 745.090923 5.54545378 747.954559 5.54545378 748.022741 5.54545378 748.022741 10.2045428 747.886377 15.1818126 747.454559 20.0681739 746.840922 21.1818114 747.818195 21.2272645 747.863649 21.4318103 747.77274 21.2727199 746.886377 22.1136274 746.363651 22.4545371 744.045469 22.1136274 743.886379 22.3181732 742.704562 23.3408999 742.500016 24.477264 741.681835 24.9772641 740.250017 25 739.522744 24.0909106 738.659108 23.8181829 738.113655 22.9545465 737.568199 23.0000019 737.454564 23.0227378 737.340927"></polygon>
        </g>
    </g>
</svg>