<?xml version="1.0" encoding="UTF-8"?>
<svg width="16px" height="26px" viewBox="0 0 16 26" version="1.1" xmlns="http://www.w3.org/2000/svg" xmlns:xlink="http://www.w3.org/1999/xlink">
    <!-- Generator: Sketch 48.1 (47250) - http://www.bohemiancoding.com/sketch -->
    <title>ID</title>
    <desc>Created with Sketch.</desc>
    <defs></defs>
    <g id="Registration2.1" stroke="none" stroke-width="1" fill="none" fill-rule="evenodd" transform="translate(-21.000000, -774.000000)">
        <g id="Group" transform="translate(17.000000, 203.000000)" fill="#11C4FF">
            <polygon fill="#11C4FF" id="ID" points="11.2993996 571.873832 9.87595654 571.585945 9.41213823 571.473989 9.20421973 571.426008 7.34894646 579.774739 7.42891587 580.46247 7.36493968 581.182188 7.39692777 581.342125 7.39692777 581.358125 7.41292759 581.662004 7.95671532 582.253773 7.17302264 584.221002 5.509673 586.396152 5.46169168 586.795995 5.89352355 587.819595 4.37411787 594.121127 4.31014332 594.456995 4.75796677 594.552958 9.28419573 595.448606 11.0914877 595.784475 11.555306 595.864445 12.0031311 595.944413 14.3062295 596.312268 18.432613 596.936024 18.8964313 597 18.9604059 596.472205 19.1043498 595.432613 19.6481375 591.274241 19.9360255 589.21105 20 588.683255 19.9040374 588.635274 19.4082309 587.739625 18.992394 588.283413 17.3130511 588.107481 15.9855707 588.123481 15.8256335 588.25143 15.201878 586.971931 15.0419408 586.843982 14.1462923 584.652839 14.0183415 583.917126 12.4349613 583.80517 12.7388425 582.925515 12.9627542 582.86154 13.5225351 580.238568 13.0427236 580.270554 12.9307677 579.934687 11.7472313 577.951463 11.3313943 577.5996 11.0275131 576.767926 11.1714571 576.639976 10.9315505 575.728333 10.6276694 575.136565 11.3153994 571.873842 11.2993996 571.873842"></polygon>
        </g>
    </g>
</svg>