<?xml version="1.0" encoding="UTF-8"?>
<svg width="17px" height="28px" viewBox="0 0 17 28" version="1.1" xmlns="http://www.w3.org/2000/svg" xmlns:xlink="http://www.w3.org/1999/xlink">
    <!-- Generator: Sketch 48.1 (47250) - http://www.bohemiancoding.com/sketch -->
    <title>IL</title>
    <desc>Created with Sketch.</desc>
    <defs></defs>
    <g id="Registration2.1" stroke="none" stroke-width="1" fill="none" fill-rule="evenodd" transform="translate(-22.000000, -827.000000)">
        <g id="Group" transform="translate(17.000000, 203.000000)" fill="#11C4FF">
            <polygon fill="#11C4FF" id="IL" points="7.05117184 625.287939 7.00346949 625.407191 7.90979706 625.97961 8.19600628 626.552026 9.15003376 627.458353 9.12617398 628.221576 8.60145789 629.724172 7.40892109 630.582797 6.33563895 630.797454 6.12098203 632.037691 6.47874356 632.204646 6.12098203 634.637419 5.23850687 635.185985 5.40546143 636.116163 5.19080451 636.211565 5.19080451 636.211565 5 637.260997 5.76322296 639.383711 8.48220322 641.67338 8.72071009 642.770512 9.24542618 643.319078 10.9626791 643.223676 10.6526199 644.821674 10.5333652 646.538927 11.5589475 647.3737 13.1807956 648.089223 14.0394209 648.757044 14.5164346 650.116533 14.2540778 650.617399 15.9474783 652.00074 16.0190306 652.0246 15.875926 651.881495 16.3529397 650.760513 18.1894448 651.261377 18.6426086 650.736661 18.2848495 649.687231 19.787443 648.804754 19.3819816 648.232338 19.7397431 647.421412 19.7397431 647.34986 19.6443384 647.326 19.6681982 645.203286 20.1929143 644.821674 21.0992394 642.69896 20.9084349 641.768783 20.3121665 640.647801 20.6460756 639.383711 18.9765275 627.625308 18.7380182 627.362951 18.1178999 625.955757 17.6170362 625.431041 17.4023793 624.0477 17.4023793 624 14.1825329 624.453164 12.2506255 624.691671 7.05116939 625.287939 7.05116939 625.287939"></polygon>
        </g>
    </g>
</svg>