<?xml version="1.0" encoding="UTF-8"?>
<svg width="16px" height="28px" viewBox="0 0 16 28" version="1.1" xmlns="http://www.w3.org/2000/svg" xmlns:xlink="http://www.w3.org/1999/xlink">
    <!-- Generator: Sketch 48.1 (47250) - http://www.bohemiancoding.com/sketch -->
    <title>IN</title>
    <desc>Created with Sketch.</desc>
    <defs></defs>
    <g id="Registration2.1" stroke="none" stroke-width="1" fill="none" fill-rule="evenodd" transform="translate(-23.000000, -879.000000)">
        <g id="Group" transform="translate(17.000000, 203.000000)" fill="#11C4FF">
            <polygon fill="#11C4FF" id="IN" points="18.7509726 676.03628 14.0613134 676.86387 12.9885148 677.078429 9.18774237 677.691455 8.39080678 678.335136 7.19540339 678.886859 6.73563164 678.856196 6.18390554 678.580333 6 678.396424 8.14559412 693.507556 7.71647593 695.132081 8.48276113 696.572694 8.72797062 697.768097 7.56322079 700.496071 6.88888994 700.986493 6.85822691 703.714467 6.98083482 703.74513 7.10343956 703.714467 7.56321131 702.856227 8.69731075 702.856227 10.0766228 702.396456 11.7931019 703.040136 11.9770075 702.335155 12.9578518 701.59952 14.4291182 701.814082 15.2260569 700.250862 17.4023046 700.434767 17.3716416 699.545877 19.3026798 697.001815 18.9961663 695.837062 20.344828 695.806399 22 694.488391 21.6015322 692.986474 21.6628362 692.92517 21.6015322 692.404098 19.7624515 681.553507 18.9348624 676.925148 18.842908 676.434726 18.7509537 676.036258"></polygon>
        </g>
    </g>
</svg>