<?xml version="1.0" encoding="UTF-8"?>
<svg width="28px" height="17px" viewBox="0 0 28 17" version="1.1" xmlns="http://www.w3.org/2000/svg" xmlns:xlink="http://www.w3.org/1999/xlink">
    <!-- Generator: Sketch 48.1 (47250) - http://www.bohemiancoding.com/sketch -->
    <title>KY</title>
    <desc>Created with Sketch.</desc>
    <defs></defs>
    <g id="Registration2.1" stroke="none" stroke-width="1" fill="none" fill-rule="evenodd" transform="translate(-19.000000, -1039.000000)">
        <g id="Group" transform="translate(17.000000, 203.000000)" fill="#11C4FF">
            <path fill="#11C4FF" d="M2.29909605,852.134412 L2.2300737,851.950353 L2.09202901,851.904338 L2,852.203434 L2.02301614,852.22645 L2.2760965,852.203434 L2.29911264,852.134412 L2.29909605,852.134412 Z M18.0361557,837.087573 L17.99014,837.133589 L18.2892361,838.260951 L17.0468385,839.250268 L16.0345124,839.273284 L16.2645861,840.147565 L14.8151191,842.057177 L14.8381353,842.724392 L13.2046103,842.586349 L12.6064159,843.759727 L11.5020607,843.598673 L10.7658239,844.150852 L10.6277816,844.680022 L9.339366,844.196865 L8.30403316,844.541977 L7.4527607,844.541977 L7.10764896,845.186185 L7.01561996,845.209201 L7.01561996,845.278223 L6.67050822,846.060476 L7.06163328,846.612652 L5.61216872,847.463927 L5.95727809,848.476251 L5.52013735,848.982414 L3.74856771,848.49926 L3.28842031,849.580606 L3.42646501,849.718651 L3.47248069,849.810682 L3.26541365,851.697287 L3.17338228,851.743303 L2.57519018,852.111421 L2.55217404,852.180444 L3.21938848,852.088412 L7.86688293,851.467214 L7.63680923,850.546919 L8.41906171,850.523903 L17.783073,849.281503 L24.3631884,848.177148 L24.4552174,848.108125 L24.6162688,847.924067 L26.3418251,847.003772 L27.676254,845.25521 L27.860312,844.657017 L28.7345935,843.966794 L29.8389486,842.563343 L30,842.333269 L29.9309777,842.310253 L29.3557946,842.310253 L28.6195578,841.896119 L27.3081356,840.30861 L26.8479882,838.698091 L26.8479882,838.652076 L26.8019725,838.606062 L25.835662,838.053883 L25.3985212,837.317647 L24.5242398,838.168922 L23.9720633,838.306966 L23.2818399,838.030877 L22.6836478,838.491024 L21.4412479,837.938848 L21.1191452,838.07689 L19.9457676,837.064566 L19.3475756,836.76547 L18.2202137,836.903515 L18.0361533,837.087573 L18.0361557,837.087573 Z" id="KY"></path>
        </g>
    </g>
</svg>