<?xml version="1.0" encoding="UTF-8"?>
<svg width="27px" height="23px" viewBox="0 0 27 23" version="1.1" xmlns="http://www.w3.org/2000/svg" xmlns:xlink="http://www.w3.org/1999/xlink">
    <!-- Generator: Sketch 48.1 (47250) - http://www.bohemiancoding.com/sketch -->
    <title>LA</title>
    <desc>Created with Sketch.</desc>
    <defs></defs>
    <g id="Registration2.1" stroke="none" stroke-width="1" fill="none" fill-rule="evenodd" transform="translate(-20.000000, -1088.000000)">
        <g id="Group" transform="translate(17.000000, 203.000000)" fill="#11C4FF">
            <path fill="#11C4FF" d="M21.5315682,907.188401 L21.1741345,907.270886 L21.0091647,907.435856 L21.5315682,907.188401 Z M22.6863541,907.188401 L22.4938902,907.105916 L22.4389022,907.188401 L22.6863541,907.188401 Z M23.3462333,906.96844 L23.1537695,906.96844 L23.0437877,907.105916 L23.3462333,906.96844 Z M23.0162937,906.775976 L22.9613028,906.693492 L22.9337975,906.775976 L23.0162824,906.775976 L23.0162937,906.775976 Z M25.2158866,905.318748 L25.1334017,905.373736 L25.2708775,905.373736 L25.2158866,905.318748 Z M29.0651748,903.696546 L29.2301446,903.476589 L29.0376779,903.724043 L29.0651833,903.696538 L29.0651748,903.696546 Z M29.6150723,902.981679 L29.5600814,903.009185 L29.5600814,903.03669 L29.6150723,902.981699 L29.6150723,902.981679 Z M15.4826899,905.401233 L15.8951116,904.878829 L14.7678197,904.576384 L14.2729131,904.988808 L15.4826899,905.401233 Z M26.893076,903.009176 L26.783097,902.899194 L26.7555917,902.954185 L26.8930675,903.009176 L26.893076,903.009176 Z M27.1955187,902.514267 L26.92057,902.431782 L27.0030549,902.70673 L27.1955187,902.514267 Z M29.4501025,902.046854 L29.4501025,901.964369 L29.4501025,901.991874 L29.4501025,902.046865 L29.4501025,902.046854 Z M30,901.68942 L29.9724946,901.661915 L30,901.716906 L30,901.6894 L30,901.68942 Z M29.7800421,901.634429 L29.7250512,901.606924 L29.6975459,901.689409 L29.7800308,901.634418 L29.7800421,901.634429 Z M27.855398,901.551944 L28.1028527,901.46946 L28.1028527,901.386975 L27.855398,901.551944 Z M27.9928738,901.414469 L28.1303468,901.276996 L28.1028414,901.24949 L27.9928625,901.414457 L27.9928738,901.414469 Z M27.0305518,900.397159 L26.9755609,900.452149 L27.0030662,900.452149 L27.0305716,900.397159 L27.0305518,900.397159 Z M16.8849277,885.000008 L16.8299396,885.000008 L6.46435771,885.962331 L3.85234312,886.154794 L3,886.237279 L3.02750536,886.897159 L3.57740287,892.203676 L4.48473687,893.46844 L4.51224223,894.210805 L5.39207938,895.750518 L6.10694671,898.005102 L5.85949198,899.269867 L5.66702813,902.404288 L5.25460642,903.421598 L5.30959447,903.421598 L5.39207938,904.136465 L4.92466678,904.796344 L8.3340336,904.411414 L11.0010419,905.153778 L12.8981892,905.401233 L13.8605112,904.713859 L13.3381077,904.026486 L15.097782,903.476589 L15.042794,904.081477 L15.9501252,903.861516 L16.6924865,905.016302 L17.3248689,904.796344 L18.9745643,905.923636 L17.9572542,906.28107 L20.29432,906.96844 L21.1741572,906.96844 L21.6965606,906.336058 L22.8238525,905.73117 L23.6212048,906.885958 L24.1711023,905.841151 L24.0061324,904.191456 L25.490858,904.76885 L25.6558278,905.263757 L27.4155021,905.483718 L28.2953392,906.198585 L28.1853603,906.775976 L29.4226311,905.621191 L28.9552157,905.016302 L26.8930986,904.493899 L26.1232404,904.05398 L26.095735,903.229134 L26.9480782,903.339113 L27.6079546,901.991863 L26.7556115,900.809583 L26.2881989,901.936872 L25.2158979,901.744408 L25.9582593,900.534632 L25.4633526,900.397159 L24.2535758,901.249502 L22.5213956,901.359481 L22.0264889,900.97455 L22.8238412,899.572312 L23.7586664,899.544807 L25.3533737,900.06721 L26.5081596,900.177189 L25.8757772,899.379837 L24.6660004,897.015277 L24.99594,895.695522 L15.5101952,896.740326 L15.8676289,896.382892 L15.4827012,895.393076 L16.0600928,894.540733 L16.3900324,892.396131 L18.4796463,888.821794 L17.4623334,887.584523 L17.5173243,886.677189 L16.884939,885.192464 L16.884939,885 L16.8849277,885.000008 Z" id="LA"></path>
        </g>
    </g>
</svg>