<?xml version="1.0" encoding="UTF-8"?>
<svg width="27px" height="16px" viewBox="0 0 27 16" version="1.1" xmlns="http://www.w3.org/2000/svg" xmlns:xlink="http://www.w3.org/1999/xlink">
    <!-- Generator: Sketch 48.1 (47250) - http://www.bohemiancoding.com/sketch -->
    <title>MA</title>
    <desc>Created with Sketch.</desc>
    <defs></defs>
    <g id="Registration2.1" stroke="none" stroke-width="1" fill="none" fill-rule="evenodd" transform="translate(-20.000000, -1247.000000)">
        <g id="Group" transform="translate(17.000000, 203.000000)" fill="#11C4FF">
            <path fill="#11C4FF" d="M25.4021703,1059.89674 L25.2554359,1059.79891 L25.2554359,1059.94565 L25.4021703,1059.89672 L25.4021703,1059.89674 Z M23.9347808,1058.57609 L24.2771712,1058.42935 L24.2771712,1058.2337 L23.9347808,1058.57609 Z M30,1054.76087 L29.9510684,1054.07609 L29.8532454,1053.68478 L29.9999849,1054.76087 L30,1054.76087 Z M8.6249958,1049.72283 L8.28260541,1049.86957 L5.49456073,1050.70109 L4.51630102,1051.04348 L3.39130186,1051.38587 L3,1051.53261 L3,1051.67935 L3.14673442,1054.22283 L3.29347388,1056.57065 L3.44021334,1058.72283 L3.68478078,1058.86957 L4.56521754,1058.625 L8.52717285,1057.45109 L8.6249958,1057.69565 L15.6684747,1055.00543 L15.7174063,1055.10326 L16.3532757,1054.85869 L18.603274,1053.97826 L20.7554494,1056.57065 L21.0489283,1056.32609 L21.1956677,1055.59239 L21.1467361,1056.76631 L21.635866,1056.76631 L21.7826054,1057.35326 L22.2228238,1058.18479 L24.5217386,1055.39674 L26.4293465,1056.03261 L26.8695649,1055.05435 L30,1053.39131 L28.6793449,1050.79891 L29.0217403,1052.46196 L27.4076062,1053.68478 L25.5978263,1053.83152 L21.9782614,1049.96739 L20.3641273,1047.52174 L21.9782614,1045.80978 L20.3152159,1045.71196 L19.6304351,1044.09783 L19.5815034,1044 L16.7934638,1047.03261 L10.6304166,1049.08696 L8.62498068,1049.72283 L8.6249958,1049.72283 Z" id="MA"></path>
        </g>
    </g>
</svg>