<?xml version="1.0" encoding="UTF-8"?>
<svg width="23px" height="11px" viewBox="0 0 23 11" version="1.1" xmlns="http://www.w3.org/2000/svg" xmlns:xlink="http://www.w3.org/1999/xlink">
    <!-- Generator: Sketch 48.1 (47250) - http://www.bohemiancoding.com/sketch -->
    <title>MD</title>
    <desc>Created with Sketch.</desc>
    <defs></defs>
    <g id="Registration2.1" stroke="none" stroke-width="1" fill="none" fill-rule="evenodd" transform="translate(-21.000000, -1197.000000)">
        <g id="Group" transform="translate(17.000000, 203.000000)" fill="#11C4FF">
            <path fill="#11C4FF" d="M26.6328301,1003.49314 L26.8437879,1001.86575 L26.662966,1003.07123 L26.5424191,1003.58355 L26.5122708,1003.64383 L26.6026817,1003.61368 L26.6328301,1003.49313 L26.6328301,1003.49314 Z M26.7835129,1000.69041 L26.723241,1000.72056 L26.7835129,1000.90138 L26.7835129,1001.26302 L26.7835129,1000.69042 L26.7835129,1000.69041 Z M4.0000031,998.821923 L4.69315165,1001.9863 L6.07945186,1000.0274 L6.77260041,999.876715 L8.09862561,998.942469 L9.00273201,998.731512 L9.00273201,998.128774 L10.0575244,997.315075 L11.8657403,997.526036 L12.7397107,999.03288 L12.8301217,999.063029 L14.2164188,999.424669 L15.2109361,1000.14796 L16.1753175,1000.56987 L16.2657285,1000.66028 L16.3862785,1000.41919 L16.8986051,1000.38904 L17.3205208,1000.63014 L16.9287411,1001.35342 L16.9287411,1001.38357 L16.3561394,1003.13151 L18.2246303,1004.33699 L20.0931181,1004.4274 L21.3287324,1005 L20.8164026,1003.55343 L19.2191477,1003.01096 L18.8273679,1001.77535 L19.8218853,1003.10137 L20.6355838,1003.22192 L19.9122962,1002.49864 L19.3396946,1000.35891 L19.4903805,999.123301 L18.8575039,997.767139 L19.5205165,997.224677 L20.0027072,995.476733 L19.8218853,998.068508 L20.3342119,998.942479 L20.8164026,997.917825 L21.0876355,999.605491 L20.5753088,1000.84111 L22.0520169,1001.38357 L20.7862667,1001.80549 L21.4492793,1003.0411 L22.5342076,1003.40274 L23.1369452,1002.34795 L23.0766733,1003.82466 L24.1013266,1003.79451 L24.7643392,1004.54793 L24.7944875,1004.54793 L25.0054454,1004.2767 L25.608183,1004.00547 L25.9999627,1003.85478 L25.9698144,1003.79451 L26.7533739,1001.47397 L26.7533739,1001.38356 L26.6026879,1000.78082 L26.6026879,1000.75067 L23.7396828,1001.5945 L21.2383183,994.452055 L21.1177714,994 L20.6054417,994.150686 L18.465721,994.813699 L6.68218635,998.098623 L4.5424657,998.671224 L4,998.821907 L4.0000031,998.821923 Z" id="MD"></path>
        </g>
    </g>
</svg>