<?xml version="1.0" encoding="UTF-8"?>
<svg width="20px" height="32px" viewBox="0 0 20 32" version="1.1" xmlns="http://www.w3.org/2000/svg" xmlns:xlink="http://www.w3.org/1999/xlink">
    <!-- Generator: Sketch 48.1 (47250) - http://www.bohemiancoding.com/sketch -->
    <title>ME</title>
    <desc>Created with Sketch.</desc>
    <defs></defs>
    <g id="Registration2.1" stroke="none" stroke-width="1" fill="none" fill-rule="evenodd" transform="translate(-24.000000, -1136.000000)">
        <g id="Group" transform="translate(17.000000, 203.000000)" fill="#11C4FF">
            <path fill="#11C4FF" d="M14.5823241,964.967859 L14.5501835,964.967859 L14.6144384,965 L14.5822977,964.967859 L14.5823241,964.967859 Z M16.9598319,958.124492 L16.7028023,957.73895 L16.7028023,957.931721 L16.9598319,958.124492 Z M16.5100343,957.771079 L16.5100343,957.449794 L16.4778936,957.257023 L16.5100343,957.771079 Z M17.6666591,956.421682 L17.6024008,956.389555 L17.6345415,956.48594 L17.6666822,956.421683 L17.6666591,956.421682 Z M20.8795071,954.815258 L20.8152489,954.33333 L20.6867357,954.55823 L20.8795071,954.815258 Z M20.0762943,955.008029 L20.1084349,954.654615 L19.7228923,954.718872 L20.0763042,955.008029 L20.0762943,955.008029 Z M21.2650498,953.947789 L21.1365367,953.947789 L21.1365367,954.012046 L21.2650498,953.947789 Z M19.6586241,954.429716 L19.3694671,954.365459 L19.3373264,954.654615 L19.6586109,954.429716 L19.6586241,954.429716 Z M21.2971772,953.433733 L21.5863343,953.658632 L21.4899486,953.401604 L21.2971772,953.433732 L21.2971772,953.433733 Z M20.4297095,953.46586 L20.1405525,954.012045 L20.5260952,953.819274 L20.4297095,953.46586 Z M19.0481826,953.497988 L18.9196695,953.690759 L19.0160552,953.979915 L19.0481959,953.497988 L19.0481826,953.497988 Z M20.9437653,952.437748 L20.9116246,952.18072 L20.8152389,952.341362 L20.9437554,952.437748 L20.9437653,952.437748 Z M20.7831214,952.566262 L20.4939644,952.309234 L20.4939644,952.534133 L20.7831214,952.566261 L20.7831214,952.566262 Z M18.9839277,953.305217 L18.9196695,952.951803 L18.7911564,953.24096 L18.9839277,953.305217 Z M22.0361319,952.18072 L21.5542068,952.887547 L21.5220661,952.373491 L22.0361219,952.18072 L22.0361319,952.18072 Z M24.3815121,950.028111 L24.1566133,949.706826 L24.0281002,949.771083 L24.3815121,950.028111 Z M25.2489799,948.582329 L25.0562119,948.485944 L25.0240712,948.582329 L25.24897,948.582329 L25.2489799,948.582329 Z M25.6666533,946.076307 L25.3774963,946.076307 L25.6987808,946.172693 L25.6666401,946.076307 L25.6666533,946.076307 Z M26.1485784,946.397594 L26.0521927,945.81928 L25.7951665,945.787152 L26.1485784,946.397594 Z M25.6345226,945.883536 L25.5702677,945.273095 L25.3453656,945.690765 L25.6345226,945.883536 Z M7,950.927709 L11.6586298,961.851394 L11.722888,962.076292 L13.7469839,964.550186 L13.7469839,964.518045 L14.0682683,964.421659 L14.1325265,962.590335 L14.6465824,961.947766 L14.9678668,960.244955 L14.6787098,959.955798 L15.2248931,958.285119 L17.088345,957.41765 L18.309228,955.939739 L18.7590256,953.369461 L20.7188632,953.240947 L20.4618369,951.923679 L22.9036029,950.991953 L23.0642435,949.546171 L23.6425575,949.674685 L25.2489799,948.357417 L25.9558071,946.654607 L24.3172539,945.016054 L22.5823184,944.662641 L21.9397462,943.345373 L21.9397462,942.574289 L20.8795071,942.895574 L19.6907516,942.477904 L19.6907516,941.160636 L16.4779035,934.220882 L14.1325265,933 L11.5301167,935.184737 L10.8232895,935.056223 L10.212848,933.931726 L9.37750775,934.253011 L8.18875553,940.164652 L8.60642567,942.092362 L8.9598376,946.012037 L8.02811164,949.032115 L8.67068058,949.514042 L7.89959851,950.991953 L7.06425822,950.863439 L7,950.927696 L7,950.927709 Z" id="ME"></path>
        </g>
    </g>
</svg>