<?xml version="1.0" encoding="UTF-8"?>
<svg width="27px" height="28px" viewBox="0 0 27 28" version="1.1" xmlns="http://www.w3.org/2000/svg" xmlns:xlink="http://www.w3.org/1999/xlink">
    <!-- Generator: Sketch 48.1 (47250) - http://www.bohemiancoding.com/sketch -->
    <title>MI</title>
    <desc>Created with Sketch.</desc>
    <defs></defs>
    <g id="Registration2.1" stroke="none" stroke-width="1" fill="none" fill-rule="evenodd" transform="translate(-20.000000, -1292.000000)">
        <g id="Group" transform="translate(17.000000, 203.000000)" fill="#11C4FF">
            <path fill="#11C4FF" d="M16.9489599,1102.03161 L16.8445505,1101.86456 L16.8236609,1102.07338 L16.9489513,1102.03161 L16.9489599,1102.03161 Z M17.2830667,1101.65574 L17.032486,1101.32164 L16.9907219,1101.46781 L17.2830667,1101.65574 Z M17.4918832,1100.15226 L17.2830667,1099.96433 L17.2830667,1100.00609 L17.4918832,1100.15226 Z M16.9698409,1116.50261 L19.5591692,1116.08498 L20.290028,1115.93881 L23.4849226,1115.375 L23.5475677,1115.64646 L23.7563842,1115.58382 L25.1345756,1115.29148 L26.4501219,1114.97825 L27.7865491,1114.64414 L27.7656595,1114.5815 L28.4547563,1113.22419 L28.3921111,1112.09658 L29.1647319,1110.15458 L29.7703004,1110.50957 L30,1110.07106 L29.9373548,1108.40052 L29.3735484,1107.35644 L28.5382824,1105.14298 L27.8074237,1104.3286 L27.4315527,1104.22419 L26.0742444,1105.16387 L26.2204158,1105.3518 L25.5104401,1106.68823 L24.8213434,1106.56294 L24.6125269,1105.16387 L24.9048717,1105.05946 L25.5104401,1103.66038 L25.5730853,1101.19635 L24.63341,1099.10818 L22.5452409,1098.75319 L22.3364244,1098.43997 L20.3944287,1097.87616 L19.5173986,1098.96201 L19.6009247,1099.90168 L18.9327111,1100.73695 L19.0788846,1102.03161 L18.431552,1102.49101 L18.431552,1100.86224 L17.8468645,1102.09426 L17.1577699,1103.18011 L16.6983728,1103.53509 L16.9280702,1104.68359 L16.6357276,1105.87384 L16.8027821,1107.35644 L16.5939634,1108.0873 L18.0974452,1110.96897 L18.2853806,1112.0757 L18.0974452,1114.1221 L17.0951247,1116.41909 L16.9698344,1116.50261 L16.9698409,1116.50261 Z M21.4385197,1097.68823 L20.8955964,1097.72999 L21.2297032,1097.98057 L21.4385197,1097.68823 Z M18.2645039,1098.23115 L18.0974516,1098.23115 L18.2853871,1098.31467 L18.2644975,1098.23115 L18.2645039,1098.23115 Z M21.9187979,1095.57918 L21.7099814,1095.24507 L21.6264552,1095.26596 L21.9187979,1095.57918 L21.9187979,1095.57918 Z M3,1097.10354 L3.66821362,1097.47941 L7.09280789,1098.52349 L8.67981577,1098.94113 L10.2250595,1099.04553 L11.3526703,1099.96433 L11.3526703,1101.38428 L12.3549907,1102.3866 L12.3549907,1102.36571 L13.1693756,1100.00608 L14.1508151,1099.31699 L14.9025548,1098.48172 L15.0278452,1099.23346 L15.8004681,1098.0432 L17.6589355,1097.33323 L17.805109,1097.04088 L19.6844595,1097.27058 L20.4153183,1097.64645 L20.7703061,1096.72766 L21.1044129,1096.93648 L22.5661305,1096.70678 L22.2111405,1096.12209 L21.56381,1095.74622 L21.6891004,1094.38891 L20.4153183,1095.09889 L19.2459434,1094.95272 L18.8700724,1094.05481 L18.9953627,1093.76246 L17.408357,1094.5142 L16.3851534,1094.57685 L14.547567,1095.70446 L14.3387505,1096.12209 L13.2111398,1095.85063 L12.501162,1096.16385 L11.0812086,1094.93184 L7.92807599,1093.97128 L7.86543082,1093.59541 L5.83990896,1095.5374 L4.69141721,1095.82975 L3.06264516,1097.06177 L3,1097.10353 L3,1097.10354 Z M10.392114,1092.3634 L7.94895699,1093.57454 L8.76334194,1094.36804 L9.07656774,1093.57454 L9.91183584,1092.55133 L10.392114,1092.3634 Z M7.65661434,1089.50261 L5.98608029,1090.6511 L5.90255412,1091.21491 L7.21809821,1090.25435 L7.65661434,1089.50261 Z" id="MI"></path>
        </g>
    </g>
</svg>