<?xml version="1.0" encoding="UTF-8"?>
<svg width="22px" height="26px" viewBox="0 0 22 26" version="1.1" xmlns="http://www.w3.org/2000/svg" xmlns:xlink="http://www.w3.org/1999/xlink">
    <!-- Generator: Sketch 48.1 (47250) - http://www.bohemiancoding.com/sketch -->
    <title>MN</title>
    <desc>Created with Sketch.</desc>
    <defs></defs>
    <g id="Registration2.1" stroke="none" stroke-width="1" fill="none" fill-rule="evenodd" transform="translate(-23.000000, -1345.000000)">
        <g id="Group" transform="translate(17.000000, 203.000000)" fill="#11C4FF">
            <polygon fill="#11C4FF" id="MN" points="6.00000835 1143.88419 6.40521093 1145.32267 7.25613719 1150.50926 7.66133977 1152.5758 7.78290096 1154.39921 8.24888623 1155.49326 8.35018583 1156.42523 8.43122593 1156.72913 8.41095808 1156.78991 7.60055291 1158.12708 8.12731669 1159.01853 9.14032314 1166.1501 9.18084423 1167.08207 10.1938507 1167.02129 14.1851022 1166.79843 24.153097 1165.96776 25.145846 1165.86646 25.145846 1165.76516 24.8622025 1164.20513 23.6263332 1163.57706 22.6538457 1162.56406 21.1140755 1161.63209 20.6278307 1161.59157 19.8782062 1161.02429 20.0808075 1158.22838 19.3717019 1157.58006 19.6148243 1156.44549 20.9114742 1155.2704 20.6886113 1152.83918 21.1545945 1152.31242 21.1545945 1152.31242 22.7348879 1150.65109 24.53804 1148.34143 25.2268861 1147.85518 26.4424959 1147.26764 27.7188843 1146.31541 26.867958 1146.47749 26.3614537 1146.09255 24.4164788 1146.35593 24.112578 1145.99125 22.3702043 1146.70036 20.9722527 1146.11281 20.5873117 1145.64683 19.4730015 1145.72787 18.7233769 1145.34293 18.9664993 1145.05928 18.0142714 1144.75538 17.1633451 1144.75538 15.8059146 1145.34293 15.5425327 1144.93772 13.3949565 1144.63382 12.6655914 1142.81041 12.5845493 1142.26338 11.6525829 1142 11.733623 1143.56003 9.26188433 1143.74237 6.20260129 1143.86393 6 1143.88419"></polygon>
        </g>
    </g>
</svg>