<?xml version="1.0" encoding="UTF-8"?>
<svg width="26px" height="21px" viewBox="0 0 26 21" version="1.1" xmlns="http://www.w3.org/2000/svg" xmlns:xlink="http://www.w3.org/1999/xlink">
    <!-- Generator: Sketch 48.1 (47250) - http://www.bohemiancoding.com/sketch -->
    <title>MO</title>
    <desc>Created with Sketch.</desc>
    <defs></defs>
    <g id="Registration2.1" stroke="none" stroke-width="1" fill="none" fill-rule="evenodd" transform="translate(-18.000000, -1452.000000)">
        <g id="Group" transform="translate(17.000000, 203.000000)" fill="#11C4FF">
            <polygon fill="#11C4FF" id="MO" points="16.3762092 1249.95962 15.2826897 1249 10.4846014 1249.60255 5.59724686 1250.02657 1.02232517 1250.16047 1.02232517 1250.16047 1 1250.29437 1.55791543 1251.36557 2.07120121 1251.72264 2.67375088 1252.79384 2.76301708 1252.88311 2.98618371 1253.06164 3.52178546 1253.44102 4.10201916 1253.4187 4.41445199 1253.97662 3.63336763 1254.93623 4.43677026 1255.65037 4.52603645 1256.0967 5.53028744 1256.67694 6.08820517 1266.1169 6.11053034 1266.69713 6.15516459 1267.27736 6.17748976 1267.8576 6.222124 1268.46015 6.24444917 1269.04038 7.29333441 1268.97343 14.4793078 1268.3932 22.9819672 1267.56748 23.4059845 1268.43783 22.4240495 1270 24.8342528 1269.64293 24.8565779 1269.64293 24.8565779 1269.4644 24.9012122 1268.43783 25.3475455 1267.87991 25.213645 1267.25505 25.1913198 1267.23272 25.1689947 1267.2104 25.2582609 1266.92028 25.3921613 1266.96491 25.4591115 1267.14345 25.4367864 1267.2104 25.4367864 1267.23272 25.4367864 1267.41126 25.5260548 1267.43358 25.7045872 1267.21042 25.7045872 1267.18809 25.7269124 1267.12114 26.3071461 1266.76407 26.3964146 1266.71944 26.5972653 1264.88947 26.552631 1264.8002 26.4856808 1264.77788 24.9011961 1263.48351 25.1466787 1263.01486 24.7003454 1261.74281 23.8969451 1261.11794 22.3794106 1260.44844 21.4197916 1259.66736 21.5313761 1258.06055 21.8214929 1256.56534 20.2146899 1256.6546 19.7237224 1256.14132 19.5005558 1255.11475 16.9564544 1252.97235 16.2423202 1250.98616 16.4208526 1250.00423 16.4208526 1250.00423 16.3762207 1249.9596"></polygon>
        </g>
    </g>
</svg>