<?xml version="1.0" encoding="UTF-8"?>
<svg width="90px" height="90px" viewBox="0 0 90 90" version="1.1" xmlns="http://www.w3.org/2000/svg" xmlns:xlink="http://www.w3.org/1999/xlink">
    <!-- Generator: Sketch 48.2 (47327) - http://www.bohemiancoding.com/sketch -->
    <title>mom</title>
    <desc>Created with Sketch.</desc>
    <defs></defs>
    <g id="Registration" stroke="none" stroke-width="1" fill="none" fill-rule="evenodd" transform="translate(-56.000000, -143.000000)">
        <g id="Button" transform="translate(20.000000, 129.000000)" fill-rule="nonzero">
            <g id="mom" transform="translate(36.000000, 14.000000)">
                <path d="M77.1814903,76.4539876 C69.0111638,84.8120942 57.6114321,90 45,90 C32.7529132,90 21.6485258,85.1075222 13.5346713,77.1704001 C13.8727725,74.8935355 16.7569596,71.7436254 25.3800973,68.6500802 C34.5735386,65.3534398 37.5115028,67.0144708 37.5115028,61.0577898 C37.5115028,60.773915 37.4935522,60.2391529 37.460085,59.6925878 L37.0101032,59.6925878 C30.7272439,60.14821 24.6740914,60.5834041 23.3268842,59.6470408 C21.1758557,58.1521582 28.622461,55.8480205 28.622461,36.5073061 C28.622461,26.7348084 35.0974525,19.8001513 44.9217506,19.8001513 C45.0051144,19.8001513 45.087109,19.8051449 45.16956,19.806658 C45.1926828,19.8060528 45.2161099,19.8057501 45.2387763,19.8045396 L45.2387763,19.8027237 C45.2757423,19.8027237 45.3125563,19.8 45.3493702,19.8 C45.3610837,19.8 45.3723409,19.8006053 45.3839023,19.8006053 C45.3951594,19.8006053 45.4062644,19.8 45.4178258,19.8 C45.4286266,19.8 45.4394274,19.8006053 45.4500761,19.8009079 C45.4608768,19.8006053 45.4716776,19.8 45.4824784,19.8 C45.4941919,19.8 45.505297,19.8006053 45.516402,19.8006053 C45.5281155,19.8006053 45.5393727,19.8 45.550934,19.8 C45.5879001,19.8 45.624714,19.8027237 45.661528,19.8027237 L45.661528,19.8045396 C45.6840423,19.8057501 45.7076214,19.8060528 45.7307442,19.806658 C45.8130431,19.8051449 45.8950378,19.8001513 45.9785537,19.8001513 C55.803156,19.8001513 62.2778433,26.7348084 62.2778433,36.5073061 C62.2778433,55.8481718 69.724905,58.1520069 67.57342,59.6470408 C66.226365,60.583858 60.1732124,60.1483613 53.8903531,59.6925878 L53.4405235,59.6925878 C53.4069041,60.2391529 53.3888014,60.773461 53.3888014,61.0577898 C53.3888014,67.0144708 56.3266135,65.3534398 65.5203591,68.6500802 C73.2715201,71.4310587 76.3855922,74.2573653 77.1814903,76.4539876 Z" id="Combined-Shape" fill="#00A4DC"></path>
                <path d="M45,80 C64.3299662,80 80,64.3299662 80,45 C80,25.6700338 64.3299662,10 45,10 C25.6700338,10 10,25.6700338 10,45 C10,64.3299662 25.6700338,80 45,80 Z M45,90 C20.1471863,90 0,69.8528137 0,45 C0,20.1471863 20.1471863,0 45,0 C69.8528137,0 90,20.1471863 90,45 C90,69.8528137 69.8528137,90 45,90 Z" id="Oval" fill="#FFFFFF"></path>
                <path d="M45,82 C65.4345357,82 82,65.4345357 82,45 C82,24.5654643 65.4345357,8 45,8 C24.5654643,8 8,24.5654643 8,45 C8,65.4345357 24.5654643,82 45,82 Z M45,90 C20.1471863,90 0,69.8528137 0,45 C0,20.1471863 20.1471863,0 45,0 C69.8528137,0 90,20.1471863 90,45 C90,69.8528137 69.8528137,90 45,90 Z" id="Oval1" fill="#00A4DC"></path>
            </g>
        </g>
    </g>
</svg>