<?xml version="1.0" encoding="UTF-8"?>
<svg width="18px" height="31px" viewBox="0 0 18 31" version="1.1" xmlns="http://www.w3.org/2000/svg" xmlns:xlink="http://www.w3.org/1999/xlink">
    <!-- Generator: Sketch 48.1 (47250) - http://www.bohemiancoding.com/sketch -->
    <title>MS</title>
    <desc>Created with Sketch.</desc>
    <defs></defs>
    <g id="Registration2.1" stroke="none" stroke-width="1" fill="none" fill-rule="evenodd" transform="translate(-22.000000, -1397.000000)">
        <g id="Group" transform="translate(17.000000, 203.000000)" fill="#11C4FF">
            <path fill="#11C4FF" d="M20.2053295,1224.32055 L20.0550808,1224.35062 L20.0550808,1224.38068 L20.2053295,1224.32058 L20.2053295,1224.32055 Z M22.9999876,1223.95995 L22.5792875,1223.95995 L22.9699385,1223.99001 L23,1223.95995 L22.9999876,1223.95995 Z M19.514178,1224.26045 L19.3939784,1224.38065 L19.4240399,1224.41071 L19.5141904,1224.26046 L19.514178,1224.26045 Z M22.3388884,1224.02005 L21.1969846,1224.02005 L22.278787,1224.05012 L22.3388884,1224.02005 Z M9.80799886,1195.38232 L9.80799886,1195.41238 L8.54589548,1197.51589 L8.66609816,1199.13859 L6.95324247,1201.03175 L7.40399479,1201.57265 L6.26209099,1206.38066 L6.80299067,1207.40236 L6.50249016,1207.61271 L6.53255167,1208.27382 L6.53255167,1208.48417 L7.22370624,1210.10687 L7.1636049,1211.09853 L8.27545957,1212.45078 L5.99165199,1216.35729 L5.63105014,1218.7012 L5,1219.63275 L5.42070009,1220.71455 L5.03004912,1221.1052 L15.3973306,1219.9633 L15.0367288,1221.40571 L16.3589335,1223.99001 L17.050085,1224.86146 L17.050085,1224.8314 L18.1619365,1223.5693 L20.5058455,1223.05845 L22.6694504,1223.29885 L23,1222.87815 L23,1222.84809 L21.4674483,1213.59266 L21.407347,1206.83139 L21.2270461,1194.51085 L20.806346,1194.2404 L20.6861433,1194 L20.626045,1194 L19.1235394,1194.21035 L16.4791331,1194.57095 L10.4691136,1195.3222 L9.80801124,1195.3823 L9.80799886,1195.38232 Z" id="MS"></path>
        </g>
    </g>
</svg>