<?xml version="1.0" encoding="UTF-8"?>
<svg width="25px" height="16px" viewBox="0 0 25 16" version="1.1" xmlns="http://www.w3.org/2000/svg" xmlns:xlink="http://www.w3.org/1999/xlink">
    <!-- Generator: Sketch 48.1 (47250) - http://www.bohemiancoding.com/sketch -->
    <title>MT</title>
    <desc>Created with Sketch.</desc>
    <defs></defs>
    <g id="Registration2.1" stroke="none" stroke-width="1" fill="none" fill-rule="evenodd" transform="translate(-18.000000, -1507.000000)">
        <g id="Group" transform="translate(17.000000, 203.000000)" fill="#11C4FF">
            <polygon fill="#11C4FF" id="MT" points="25.7162256 1307.0914 20.7729808 1306.76284 17.1738206 1306.41935 13.5895943 1306.00119 11.3643865 1305.70251 7.81002926 1305.14994 6.03285066 1304.85125 2.06033333 1304.08961 1.64217321 1304 1 1307.04659 1.28375135 1307.59916 1.50776597 1308.45041 1.3733572 1308.56989 1.65710855 1309.34647 2.04539954 1309.67502 3.1505358 1311.52688 3.25507544 1311.84049 3.70310316 1311.81063 3.18040339 1314.25985 2.9713241 1314.31958 2.68757275 1315.14097 4.16606621 1315.24551 4.28554119 1315.93249 5.12185989 1317.97848 5.27120247 1318.09796 5.85363896 1319.2927 6.00298153 1319.17322 7.24252656 1319.15828 8.81062587 1319.32256 9.19891686 1318.8148 9.66187991 1319.65112 9.75148576 1319.69592 9.76642571 1319.60631 9.97550501 1318.14275 15.0830277 1318.76999 19.1600847 1319.15828 21.3106205 1319.3375 25.148729 1319.56151 25.3428745 1319.57645 25.3876775 1319.57645 25.4026174 1319.36737 25.4474203 1318.33691 25.5071571 1316.97789 25.522097 1316.6344 25.5519661 1316.03703 25.7909146 1311.34767 25.98506 1307.7037 26 1307.10633 25.7162487 1307.0914"></polygon>
        </g>
    </g>
</svg>