<?xml version="1.0" encoding="UTF-8"?>
<svg width="25px" height="12px" viewBox="0 0 25 12" version="1.1" xmlns="http://www.w3.org/2000/svg" xmlns:xlink="http://www.w3.org/1999/xlink">
    <!-- Generator: Sketch 48.1 (47250) - http://www.bohemiancoding.com/sketch -->
    <title>NC</title>
    <desc>Created with Sketch.</desc>
    <defs></defs>
    <g id="Registration2.1" stroke="none" stroke-width="1" fill="none" fill-rule="evenodd" transform="translate(-21.000000, -1872.000000)">
        <g id="Group" transform="translate(17.000000, 203.000000)" fill="#11C4FF">
            <path fill="#11C4FF" d="M23.3331022,1680.39531 L23.1430545,1680.58536 L23.1776077,1680.61991 L23.3331022,1680.39531 Z M23.4713183,1679.39323 L23.3849337,1679.53145 L23.4194886,1679.66967 L23.4713183,1679.39323 Z M24.5079466,1677.78646 L24.2487909,1677.95923 L24.1105729,1678.16656 L24.5079466,1677.78646 Z M26.7366958,1676.698 L26.6330346,1676.62889 L26.408432,1676.61161 L26.7366958,1676.698 L26.7366958,1676.698 Z M26.2702141,1676.59434 L26.1147196,1676.59434 L25.8555639,1676.73256 L26.2702141,1676.59434 Z M26.8058057,1676.78439 L27.3068423,1675.54044 L26.9613002,1676.05875 L26.8058057,1676.78439 Z M27.5487215,1675.14306 L27.7733241,1674.8148 L27.6523845,1674.8148 L27.5487215,1675.14306 Z M29,1673.79544 L28.6199029,1671.87768 L28.9481685,1672.87976 L29,1673.79544 Z M26.8921903,1669.42433 L26.8576372,1669.44161 L26.8058057,1669.4589 L26.8230894,1669.4589 L27.7733312,1671.06567 L28.5162488,1671.80859 L26.8921975,1669.42434 L26.8921903,1669.42433 Z M26.5812031,1669.52799 L26.4429852,1669.56255 L26.4775401,1669.57983 L26.7712508,1669.57983 L26.7366958,1669.47617 L26.6848661,1669.49345 L26.6330346,1669.49345 L26.6330346,1669.52801 L26.5984797,1669.54529 L26.581196,1669.52801 L26.5812031,1669.52799 Z M10.5998577,1673.46718 L10.5134713,1673.72634 L10.530755,1674.46925 L10.3407056,1674.45197 L9.89150041,1675.36766 L9.39046374,1675.41949 L8.45749849,1676.33518 L8.04284825,1676.17968 L7.50725666,1676.97443 L6.09053309,1678.25294 L5.39944699,1678.42571 L4.67380775,1679.09952 L4.63925282,1679.54872 L4,1679.89426 L4.01728369,1680.65446 L4.01728369,1680.82723 L4.24188628,1680.7754 L6.66068495,1680.27436 L7.31721613,1680.13614 L7.54181871,1680.08431 L7.59365021,1680.08431 L13.3296561,1678.27021 L14.2971763,1678.77125 L16.2494915,1678.84036 L17.6834934,1678.56392 L21.536294,1681 L21.6054021,1680.94817 L23.3849461,1680.22253 L23.4022298,1679.27229 L24.0414844,1678.11472 L24.7325687,1677.45819 L26.1665707,1676.50795 L26.3566201,1676.1624 L26.7367154,1676.33518 L26.9094883,1675.19489 L26.7021623,1675.59226 L25.976523,1675.83414 L25.2854369,1675.85142 L26.1320175,1675.22945 L25.87286,1674.95301 L26.1665707,1674.33104 L24.5425211,1674.07188 L24.473413,1673.98549 L25.8555834,1673.72634 L26.3047886,1673.95094 L26.8749333,1673.89911 L27.3414151,1673.55357 L27.686959,1672.87976 L27.9979462,1672.79337 L27.9461147,1671.84313 L27.5487411,1671.46303 L27.1513674,1671.82585 L27.2377521,1672.74154 L26.9440414,1671.61853 L26.7194388,1671.5667 L25.0090028,1672.27506 L25.769197,1671.53214 L25.8037519,1671.23843 L26.5984993,1671.04838 L26.8231018,1670.46096 L27.3586934,1670.77195 L26.7885469,1669.92537 L26.3911732,1669.57983 L19.4803212,1671.54942 L15.0746542,1672.67243 L10.6171539,1673.50173 L10.5998702,1673.46718 L10.5998577,1673.46718 Z" id="NC"></path>
        </g>
    </g>
</svg>