<?xml version="1.0" encoding="UTF-8"?>
<svg width="27px" height="13px" viewBox="0 0 27 13" version="1.1" xmlns="http://www.w3.org/2000/svg" xmlns:xlink="http://www.w3.org/1999/xlink">
    <!-- Generator: Sketch 48.1 (47250) - http://www.bohemiancoding.com/sketch -->
    <title>NE</title>
    <desc>Created with Sketch.</desc>
    <defs></defs>
    <g id="Registration2.1" stroke="none" stroke-width="1" fill="none" fill-rule="evenodd" transform="translate(-17.000000, -1561.000000)">
        <g id="Group" transform="translate(17.000000, 203.000000)" fill="#11C4FF">
            <polygon fill="#11C4FF" id="NE" points="22.5776091 1359.97846 21.9763171 1359.37717 19.8620923 1358.75648 19.1832126 1358.73708 18.1551941 1359.02802 16.9332103 1358.25216 13.1120893 1358.29096 7.54527628 1358.23277 0.969844681 1358.0194 0.387946665 1358 0.368542737 1358.50431 0.290957001 1360.01724 0.116387597 1363.56681 0.0194039278 1365.60345 0 1366.10776 0.465518413 1366.12716 5.19827829 1366.30173 6.12931311 1366.34053 6.05172538 1370.14225 6.03232145 1370.39441 6.76939094 1370.41381 9.38792602 1370.45261 15.9051698 1370.45261 19.1831886 1370.37502 26.3405182 1370.10347 27 1370.06467 26.9224143 1369.98709 26.398708 1369.05605 25.9525856 1368.74571 25.4676732 1367.81467 25.4870771 1367.69829 25.4870771 1367.64011 24.8857832 1365.19614 25.0021628 1364.80821 24.342681 1363.89657 24.3038872 1362.81036 23.7025932 1361.85993 23.0819033 1360.03665 22.9461278 1360.01725 22.5775931 1359.97846"></polygon>
        </g>
    </g>
</svg>