<?xml version="1.0" encoding="UTF-8"?>
<svg width="14px" height="32px" viewBox="0 0 14 32" version="1.1" xmlns="http://www.w3.org/2000/svg" xmlns:xlink="http://www.w3.org/1999/xlink">
    <!-- Generator: Sketch 48.1 (47250) - http://www.bohemiancoding.com/sketch -->
    <title>NJ</title>
    <desc>Created with Sketch.</desc>
    <defs></defs>
    <g id="Registration2.1" stroke="none" stroke-width="1" fill="none" fill-rule="evenodd" transform="translate(-25.000000, -1708.000000)">
        <g id="Group" transform="translate(17.000000, 203.000000)" fill="#11C4FF">
            <path fill="#11C4FF" d="M21.1946844,1529.19758 L20.8849535,1528.45421 L20.8849535,1529.19758 L21.1946844,1529.19758 Z M21.8141589,1526.90554 L22,1525.04714 L21.6283178,1526.65776 L21.8141589,1526.90554 Z M19.2743352,1507.88785 L12.7699103,1506.27723 L11.6548638,1505.9675 L10.6017687,1505.71971 L8,1511.48077 L9.11504645,1512.8436 L9.05307602,1516.99404 L10.2300674,1517.17988 L12.645995,1523.49846 L12.5221052,1523.6843 L9.48670945,1528.14448 L9.79644032,1531.55156 L17.1061744,1534.02943 L17.1681448,1536.879 L18.8407145,1534.52501 L19.0885005,1531.11793 L20.823015,1529.94094 L20.1415956,1527.40112 L21.4424832,1524.36572 L21.4424832,1517.7374 L21.0088561,1515.56926 L18.0973502,1515.63123 L18.8407145,1512.65778 L19.2743415,1507.88787 L19.2743352,1507.88785 Z" id="NJ"></path>
        </g>
    </g>
</svg>