<?xml version="1.0" encoding="UTF-8"?>
<svg width="90px" height="90px" viewBox="0 0 90 90" version="1.1" xmlns="http://www.w3.org/2000/svg" xmlns:xlink="http://www.w3.org/1999/xlink">
  <!-- Generator: Sketch 48.2 (47327) - http://www.bohemiancoding.com/sketch -->
  <title>nurse</title>
  <desc>Created with Sketch.</desc>
  <defs>
    <path d="M38.8239753,31.5 L45.9000434,31.5 L52.976312,31.5 C55.2668021,31.5 56.8008829,30.4259577 57.6140581,28.8951364 C57.7963906,28.5519819 57.9434201,28.186227 58.0533411,27.8038845 C58.6546976,25.716759 60.0670228,20.787983 60.0670228,20.787983 C60.875785,18.3015128 59.5346679,15.3 56.7306779,15.3 L45.9000434,15.3 L35.0694089,15.3 C32.2656195,15.3 30.9243017,18.3015128 31.7328634,20.787983 C31.7328634,20.787983 33.0791958,25.4859851 33.7026167,27.6504499 C33.7176606,27.7027006 33.7327046,27.7549513 33.7469462,27.8038845 C34.348102,29.8912173 36.0193836,31.5 38.8239753,31.5 Z" id="path-1"></path>
  </defs>
  <g id="Registration" stroke="none" stroke-width="1" fill="none" fill-rule="evenodd" transform="translate(-56.000000, -304.000000)">
    <g id="Button" transform="translate(20.000000, 290.000000)" fill-rule="nonzero">
      <g id="nurse" transform="translate(36.000000, 14.000000)">
        <path d="M18.3462779,81.2608169 C18.4348842,80.7801973 18.5823674,79.9869503 18.6205015,79.8219705 C19.2593901,77.0590819 21.0011577,75.0332584 23.3541892,73.4619337 C23.7943379,73.1679227 24.2511142,72.9131016 24.7134331,72.6734536 C25.3229374,72.3578534 34.5357075,69.3741314 34.7755327,69.3 C34.7189635,69.610398 34.6802536,69.9538299 34.667497,70.326741 C33.3846171,71.2145832 29.6035438,74.4187918 31.3205899,80.4141543 C31.3205899,80.4141543 34.0348547,77.2254656 36.8042811,76.8154455 C39.44183,81.3466488 43.9317336,87.0823348 46.349956,88.5877649 C48.7682664,87.0823348 53.2582579,81.3467355 55.8958069,76.8156189 C58.6650573,77.2254656 61.3794981,80.4143277 61.3794981,80.4143277 C63.0965442,74.4187051 59.3153829,71.2145832 58.032591,70.326741 C58.0198344,69.9538299 57.9811245,69.610398 57.9244673,69.3 C58.1642925,69.3741314 67.3769747,72.3577667 67.9865669,72.673627 C68.4490618,72.9131016 68.9057501,73.1680961 69.3458108,73.4619337 C71.5854668,74.9577127 73.2713445,76.8650906 73.9795979,79.4278003 C66.1504055,86.0248229 56.0394289,90 45,90 C35.0244476,90 25.8070194,86.7540847 18.3462779,81.2608168 Z" id="Combined-Shape" fill="#00A4DC"></path>
        <path d="M29.4328178,54.0289594 C29.6561208,54.8195424 29.7989919,55.5634255 29.7935585,56.2696866 C29.791688,56.5050197 29.7733392,56.7362502 29.7360181,56.9634653 C29.5341815,57.6318427 28.0970972,59.8845286 27.8676483,60.2630169 C30.3998702,62.9384469 33.7535121,63.5590768 37.0610149,64.2420316 C38.038934,64.4438455 39.0359146,64.5650909 40.0954235,64.6994298 C40.4371029,64.7602707 40.7811872,64.8228574 41.1274983,64.8874518 L39.44707,69.7013055 C39.44707,69.7013055 39.3992384,76.7255968 46.3284001,81 L46.3717781,81 C53.3009397,76.725335 53.2531973,69.7013055 53.2531973,69.7013055 L51.5727689,64.8876264 C51.91908,64.823032 52.2631643,64.7604453 52.6048437,64.6996043 C53.6644417,64.5652655 54.6613332,64.4438455 55.6392523,64.2423808 C58.9468442,63.5592514 62.300397,62.9386215 64.832708,60.263366 C64.6033481,59.8847032 63.1660857,57.6320173 62.9642491,56.9636399 C62.9268389,56.7363375 62.9085792,56.5051943 62.9067087,56.2698612 C62.9011862,55.5636 63.0441465,54.819717 63.2673604,54.029134 C63.4796184,53.2776568 63.7240314,52.5297584 63.9570432,51.7783685 C65.0765865,49.3334706 65.7,46.6191967 65.7,43.7607201 C65.7,33.1317123 57.079365,24.4947434 46.3715999,24.3014839 L46.3715999,24.3 C46.364296,24.3000873 46.3571703,24.3005237 46.3498664,24.300611 C46.3425625,24.3005237 46.3355258,24.3001746 46.3282219,24.3 L46.3282219,24.3013093 C35.620635,24.4945688 27,33.1315378 27,43.7605455 C27,46.6188475 27.6234135,49.3332087 28.7430458,51.7781939 C28.9761467,52.5295838 29.2206488,53.2773076 29.4328178,54.0289594 Z" id="Shape" fill="#00A4DC"></path>
        <path fill="#FFFFFF" stroke="#00A4DC" stroke-width="2" d="M38.8239753,30.5 L52.976312,30.5 C54.7644347,30.5 56.0299226,29.7456673 56.7309762,28.4259174 C56.8801035,28.145256 57.0012286,27.844256 57.0924319,27.5270209 C57.2916561,26.8355743 57.5918524,25.7907452 57.9659882,24.4870107 C57.967254,24.4825999 57.967254,24.4825999 57.9685198,24.4781891 C58.2174611,23.6107105 58.484032,22.6812492 58.7504984,21.7517851 C59.0346965,20.7603489 59.0346965,20.7603489 59.1160629,20.4786688 C59.7898726,18.4070987 58.6289233,16.3 56.7306779,16.3 L35.0694089,16.3 C33.1713022,16.3 32.0102076,18.4071816 32.6941683,20.5124965 C32.765181,20.7602941 32.765181,20.7602941 33.0493771,21.7516157 C33.3158424,22.6809723 33.5824144,23.610326 33.83136,24.4777037 C33.8326545,24.4822139 33.8326545,24.4822139 33.833949,24.486724 C34.1809819,25.6958525 34.4648825,26.6839132 34.6635791,27.3737711 C34.6860252,27.4517296 34.6860252,27.4517296 34.7078873,27.5271316 C35.2429048,29.3848189 36.6615161,30.5 38.8239753,30.5 Z"></path>
        <path d="M43.2176973,24.6246932 L44.6751842,24.6246932 L44.6751842,26.0815944 C44.6751842,26.5886289 45.086017,27 45.5932473,27 L45.6766577,27 L46.2069356,27 C46.7138001,27 47.1248158,26.5888118 47.1248158,26.0815944 L47.1248158,24.6246932 L48.5819369,24.6246932 C49.0888014,24.6246932 49.5,24.213688 49.5,23.7066535 L49.5,23.0927978 C49.5,22.5859462 49.0889843,22.1749409 48.5819369,22.1749409 L47.1248158,22.1749409 L47.1248158,20.7180398 C47.1248158,20.2110053 46.713983,19.8 46.2069356,19.8 L45.6766577,19.8 L45.5932473,19.8 C45.0861999,19.8 44.6751842,20.2108223 44.6751842,20.7180398 L44.6751842,22.1749409 L43.2176973,22.1749409 C42.7111986,22.1749409 42.3,22.5859462 42.3,23.0927978 L42.3,23.7066535 C42.3,24.213688 42.7113815,24.6246932 43.2176973,24.6246932 Z" id="Shape" fill="#00A4DC"></path>
        <path d="M45,80 C64.3299662,80 80,64.3299662 80,45 C80,25.6700338 64.3299662,10 45,10 C25.6700338,10 10,25.6700338 10,45 C10,64.3299662 25.6700338,80 45,80 Z M45,90 C20.1471863,90 0,69.8528137 0,45 C0,20.1471863 20.1471863,0 45,0 C69.8528137,0 90,20.1471863 90,45 C90,69.8528137 69.8528137,90 45,90 Z" id="Oval3" fill="#FFFFFF"></path>
        <path d="M45,82 C65.4345357,82 82,65.4345357 82,45 C82,24.5654643 65.4345357,8 45,8 C24.5654643,8 8,24.5654643 8,45 C8,65.4345357 24.5654643,82 45,82 Z M45,90 C20.1471863,90 0,69.8528137 0,45 C0,20.1471863 20.1471863,0 45,0 C69.8528137,0 90,20.1471863 90,45 C90,69.8528137 69.8528137,90 45,90 Z" id="Oval" fill="#00A4DC"></path>
      </g>
    </g>
  </g>
</svg>
