<?xml version="1.0" encoding="UTF-8"?>
<svg width="18px" height="29px" viewBox="0 0 18 29" version="1.1" xmlns="http://www.w3.org/2000/svg" xmlns:xlink="http://www.w3.org/1999/xlink">
    <!-- Generator: Sketch 48.1 (47250) - http://www.bohemiancoding.com/sketch -->
    <title>NV</title>
    <desc>Created with Sketch.</desc>
    <defs></defs>
    <g id="Registration2.1" stroke="none" stroke-width="1" fill="none" fill-rule="evenodd" transform="translate(-22.000000, -1606.000000)">
        <g id="Group" transform="translate(17.000000, 203.000000)" fill="#11C4FF">
            <polygon id="NV" fill="#11C4FF" points="20.2003814 1424.15839 21.9866419 1413.0458 22.8969463 1407.48091 23 1406.93129 22.5019085 1406.84542 20.5610692 1406.48473 15.700381 1405.5229 15.2194663 1405.41984 14.7385498 1405.31679 12.316794 1404.78435 7.97137408 1403.75381 7.49045758 1403.63358 7.33587709 1404.28625 5 1414.19656 7.02671788 1417.11641 9.12213761 1420.01908 12.8320606 1425.34351 15.4942754 1429.08778 16.8683213 1430.92557 17.314886 1431.52671 17.314886 1431.47519 17.5896952 1430.89122 17.6068773 1428.1603 18.3626029 1427.52481 18.9637481 1428.05725 19.358786 1428.07443 20.1145116 1424.74237 20.1145116 1424.70802 20.2003885 1424.1584"></polygon>
        </g>
    </g>
</svg>