<?xml version="1.0" encoding="UTF-8"?>
<svg width="27px" height="20px" viewBox="0 0 27 20" version="1.1" xmlns="http://www.w3.org/2000/svg" xmlns:xlink="http://www.w3.org/1999/xlink">
    <!-- Generator: Sketch 48.1 (47250) - http://www.bohemiancoding.com/sketch -->
    <title>NY</title>
    <desc>Created with Sketch.</desc>
    <defs></defs>
    <g id="Registration2.1" stroke="none" stroke-width="1" fill="none" fill-rule="evenodd" transform="translate(-20.000000, -1817.000000)">
        <g id="Group" transform="translate(17.000000, 203.000000)" fill="#11C4FF">
            <path fill="#11C4FF" d="M22.9364573,1633.42797 L22.6186599,1633.87288 L22.5339146,1634 L22.9364573,1633.42797 Z M25.8601874,1632.38983 L26.9195108,1631.45763 L26.9195108,1631.41525 L25.8601874,1632.38983 Z M23.0847621,1633.04661 L23.0847621,1632.32627 L23.0212026,1632.70763 L23.0847621,1633.04661 Z M28.0000177,1629.65678 L27.745782,1629.59322 L27.7034082,1629.7839 L28.0000177,1629.65678 Z M28.5720532,1629.27542 L28.5508587,1629.48729 L28.5932302,1629.36017 L28.5720357,1629.27542 L28.5720532,1629.27542 Z M27.978832,1629.29662 L26.5593396,1630.61018 L24.3771355,1631.54238 L23.8051022,1632.02967 L23.7627285,1632.49577 L23.1695073,1632.98306 L23.2542548,1633.61865 L24.1652712,1633.25848 L25.5000184,1632.17797 L26.9830681,1631.39408 L29.2288338,1629.27543 L27.6398487,1630.48306 L27.131375,1630.69492 L27.978832,1629.29662 Z M28.6356126,1628.40679 L28.7203579,1628.27967 L28.4661199,1628.57628 L28.6356126,1628.40679 Z M4.82204165,1627.62289 L4.48305843,1627.58052 L4.73729639,1627.9195 L4.82204165,1627.62289 Z M11.8559441,1621.13983 L11.8983157,1620.90678 L11.7288251,1621.11865 L11.8559441,1621.13984 L11.8559441,1621.13983 Z M11.9618751,1619.61441 L11.8771299,1619.65678 L11.7711967,1619.88983 L11.9618751,1619.61441 Z M3.00000655,1631.64831 L3.1483113,1632.28391 L4.27119419,1632.55933 L10.7118755,1630.80085 L17.1949283,1628.8517 L18.3813706,1629.76272 L18.6144207,1630.29238 L19.9915393,1630.8856 L20.033913,1630.97035 L20.394082,1631.05509 L20.775439,1631.16102 L23.0000168,1631.71187 L22.9576431,1631.60594 L23.1483216,1632.47459 L23.57205,1632.36865 L23.8051022,1631.41526 L23.8051022,1631.39407 L23.4237453,1631.0339 L23.9745928,1630.35593 L23.7203548,1630.03813 L22.9152715,1626.92373 L22.8728978,1626.71186 L22.7669646,1626.6483 L22.7034051,1625.7161 L22.6398456,1624.69915 L22.5762883,1623.59745 L22.5762883,1623.53389 L22.5339146,1623.55509 L21.4745912,1620.08051 L20.3517105,1618.32204 L20.033913,1616.22458 L19.0805229,1614 L18.9534039,1614.06356 L14.5254362,1615.54661 L13.6356055,1616.5 L12.6398416,1618.40678 L12.6822153,1618.83051 L11.3686561,1620.82204 L12.1737394,1621.09746 L12.4067916,1622.6017 L11.4745872,1623.83051 L8.67797611,1625.52543 L8.14831441,1625.31356 L6.07204352,1625.61018 L4.1440752,1626.77543 L4.25000842,1627.38984 L4.92797487,1627.98306 L4.54661792,1629.84746 L3.0211945,1631.62713 L3,1631.64832 L3.00000655,1631.64831 Z" id="NY"></path>
        </g>
    </g>
</svg>