<?xml version="1.0" encoding="UTF-8"?>
<svg width="23px" height="27px" viewBox="0 0 23 27" version="1.1" xmlns="http://www.w3.org/2000/svg" xmlns:xlink="http://www.w3.org/1999/xlink">
    <!-- Generator: Sketch 48.1 (47250) - http://www.bohemiancoding.com/sketch -->
    <title>OH</title>
    <desc>Created with Sketch.</desc>
    <defs></defs>
    <g id="Registration2.1" stroke="none" stroke-width="1" fill="none" fill-rule="evenodd" transform="translate(-20.000000, -1969.000000)">
        <g id="Group" transform="translate(17.000000, 203.000000)" fill="#11C4FF">
            <polygon fill="#11C4FF" id="OH" points="25.8359472 1774.85592 25.0156931 1771.31241 24.8516403 1770.59059 23.9329518 1766.55492 22.7517829 1767.30956 20.2253922 1769.24536 18.5848808 1771.24679 17.3052775 1771.44365 14.9429396 1772.78887 13.6305271 1772.00143 9.66048698 1771.54208 9.66048698 1771.54208 7.56062962 1772.06705 5.49358147 1772.5592 3.32810229 1773.01855 3 1773.11698 3.09843103 1773.64194 3.98431025 1778.59629 5.952924 1790.21113 6.01854581 1790.7689 6.28102967 1790.50642 7.88873191 1790.30956 8.74179854 1790.73609 10.4151226 1792.17974 10.8744651 1791.98288 12.6462202 1792.77033 13.4992868 1792.11412 14.4835971 1792.50785 15.2710419 1792.31099 16.5178326 1791.097 17.141228 1792.14693 18.519259 1792.93438 18.5848808 1793 18.5848808 1793 19.995721 1792.31099 20.4878761 1791.22824 20.094152 1790.1127 21.2096991 1788.40656 22.0299565 1788.27532 21.9315255 1786.83167 23.2767473 1784.99429 23.5064185 1785.25678 24.7204001 1784.33809 25.7703287 1782.7632 25.9343782 1775.57775 26 1775.54493 25.8359472 1774.85591"></polygon>
        </g>
    </g>
</svg>