<?xml version="1.0" encoding="UTF-8"?>
<svg width="23px" height="11px" viewBox="0 0 23 11" version="1.1" xmlns="http://www.w3.org/2000/svg" xmlns:xlink="http://www.w3.org/1999/xlink">
    <!-- Generator: Sketch 48.1 (47250) - http://www.bohemiancoding.com/sketch -->
    <title>OK</title>
    <desc>Created with Sketch.</desc>
    <defs></defs>
    <g id="Registration2.1" stroke="none" stroke-width="1" fill="none" fill-rule="evenodd" transform="translate(-21.000000, -2030.000000)">
        <g id="Group" transform="translate(17.000000, 203.000000)" fill="#11C4FF">
            <polygon fill="#11C4FF" id="OK" points="25.7290632 1828.21486 25.6983067 1827.79965 25.6829229 1827.39983 25.6521665 1827 25.0678044 1827.04613 19.1165418 1827.32294 10.7663181 1827.44596 7.19863599 1827.39983 6.53738353 1827.38444 6.29133644 1827.38444 5.32252709 1827.35369 5.01496704 1827.3383 4.36909361 1827.32292 4.06153514 1827.30753 4.04615136 1827.70736 4.03076757 1828.10719 4.01538379 1828.50701 4 1828.92222 4.09226786 1828.92222 7.81372916 1829.01449 11.7504827 1829.06062 11.7966166 1834.31988 12.0734202 1835.24255 12.6885371 1835.82692 13.3497896 1835.85767 13.4881898 1835.58087 14.3954893 1836.41128 15.5795909 1836.5343 15.7948815 1836.78035 16.2254643 1836.58043 17.3019205 1837.08791 17.3019205 1837.38009 17.7017469 1837.3647 18.1169506 1837.01101 18.8858484 1837.5031 19.6086122 1837.76453 20.1007048 1837.0879 21.6692553 1837.82604 22.2536173 1837.34933 22.730334 1837.16479 23.1147829 1837.25706 24.560309 1836.84185 25.3292068 1837.16479 26.0212141 1837.61075 26.6209536 1837.7184 26.6363374 1837.7184 26.6209536 1837.02639 26.4517953 1832.84359 26.4364116 1832.15158 25.8366721 1829.04524 25.7444042 1828.61465 25.7290204 1828.21483"></polygon>
        </g>
    </g>
</svg>