<?xml version="1.0" encoding="UTF-8"?>
<svg width="23px" height="20px" viewBox="0 0 23 20" version="1.1" xmlns="http://www.w3.org/2000/svg" xmlns:xlink="http://www.w3.org/1999/xlink">
    <!-- Generator: Sketch 48.1 (47250) - http://www.bohemiancoding.com/sketch -->
    <title>OR</title>
    <desc>Created with Sketch.</desc>
    <defs></defs>
    <g id="Registration2.1" stroke="none" stroke-width="1" fill="none" fill-rule="evenodd" transform="translate(-21.000000, -2075.000000)">
        <g id="Group" transform="translate(17.000000, 203.000000)" fill="#11C4FF">
            <path fill="#11C4FF" d="M4.22605392,1887.1313 L6.99078155,1887.96593 L14.4329386,1890.01774 L15.1110789,1890.19163 L15.5979495,1890.31334 L19.9971692,1891.35664 L22.4489082,1891.89567 L22.9357788,1892 L23.0053312,1891.63485 L24.6572127,1884.78389 L24.1877298,1883.67104 L24.2398946,1883.23634 L26.0482704,1880.87154 L26.9002926,1878.73279 L26.3090925,1878.08942 L26.2916976,1877.75905 L26.2916976,1877.74165 L25.9613213,1877.6721 L21.075231,1876.55926 L20.8144089,1876.68097 L19.8580554,1876.52448 L17.9279641,1876.73314 L16.7455656,1876.57664 L15.4936128,1876.55925 L15.3892832,1876.24626 L12.7462746,1876.00283 L11.8073105,1875.49857 L11.6855933,1875.16819 L11.7899228,1873.86407 L11.1639455,1873.18593 L11.1117825,1873.20332 L10.9900635,1873.29026 L10.1206536,1872.83817 L9.5990059,1872.99466 L9.25124194,1872.82078 L8.88609031,1874.31617 L8.64265411,1874.73348 L7.5645851,1877.35911 L7.25159646,1878.80233 L7.06032682,1878.81972 L6.05181025,1881.2193 L5.37366998,1882.2452 L5.13023378,1882.41908 L4.50425828,1883.63626 L4.38254108,1884.92299 L4,1886.07061 L4.22604676,1887.1139 L4.22604676,1887.1313 L4.22605392,1887.1313 Z M10.590142,1872.85557 L10.5379772,1872.69908 L10.5205824,1872.82079 L10.5901348,1872.85557 L10.590142,1872.85557 Z" id="OR"></path>
        </g>
    </g>
</svg>