<?xml version="1.0" encoding="UTF-8"?>
<svg width="25px" height="18px" viewBox="0 0 25 18" version="1.1" xmlns="http://www.w3.org/2000/svg" xmlns:xlink="http://www.w3.org/1999/xlink">
    <!-- Generator: Sketch 48.1 (47250) - http://www.bohemiancoding.com/sketch -->
    <title>PA</title>
    <desc>Created with Sketch.</desc>
    <defs></defs>
    <g id="Registration2.1" stroke="none" stroke-width="1" fill="none" fill-rule="evenodd" transform="translate(-20.000000, -2130.000000)">
        <g id="Group" transform="translate(17.000000, 203.000000)" fill="#11C4FF">
            <polygon fill="#11C4FF" id="PA" points="26.275159 1929.47993 24.5960417 1928.75662 24.3118844 1928.1108 22.8652582 1927 14.9604884 1929.3766 7.10738209 1931.5207 5.73825384 1931.18488 5.55742623 1930.4099 5.11827309 1930.74573 4.42079442 1931.23655 3.15499585 1932.52817 3 1932.65734 3.72331309 1935.83474 3.85247719 1936.40306 4.49828969 1939.19298 4.62745378 1939.73546 4.62745378 1939.73546 5.76408826 1944.64366 9.43231455 1943.73952 9.94896561 1943.61035 10.4139532 1943.48119 12.2480663 1942.99037 22.3486072 1940.17462 24.1827203 1939.6063 24.6218761 1939.47714 24.6218761 1939.47714 24.8285355 1938.96049 25.293523 1938.59883 25.9135038 1938.59883 25.9910017 1938.36634 26.9984721 1937.2297 27.1018017 1937.04888 27.1792997 1936.99721 26.1718293 1934.36229 25.68101 1934.28479 25.7068524 1932.55401 25.2418648 1931.98569 26.3268331 1929.58326 26.3268331 1929.58326 26.275167 1929.47993"></polygon>
        </g>
    </g>
</svg>