<?xml version="1.0" encoding="UTF-8"?>
<svg width="90px" height="90px" viewBox="0 0 90 90" version="1.1" xmlns="http://www.w3.org/2000/svg" xmlns:xlink="http://www.w3.org/1999/xlink">
    <!-- Generator: Sketch 48.2 (47327) - http://www.bohemiancoding.com/sketch -->
    <title>parent</title>
    <desc>Created with Sketch.</desc>
    <defs></defs>
    <g id="Registration" stroke="none" stroke-width="1" fill="none" fill-rule="evenodd" transform="translate(-229.000000, -143.000000)">
        <g id="Button" transform="translate(193.000000, 129.000000)" fill-rule="nonzero">
            <g id="parent" transform="translate(36.000000, 14.000000)">
                <path d="M76.0630935,77.5590417 C74.4112239,79.1354763 72.6395661,80.5874764 70.763162,81.9 L45,81.9 L19.236838,81.9 C17.3604314,80.5874746 15.5887713,79.1354724 13.9368999,77.5590354 C18.386225,70.155313 32.6569125,64.0935145 36.9847607,63.40915 C38.5837875,63.1562937 38.6202375,58.7865812 38.6202375,58.7865812 C38.6202375,58.7865812 33.9215143,54.1638687 32.8975875,47.9476875 C30.1427196,47.9476875 28.4414304,41.3390687 31.1964429,39.0139125 C31.0817411,36.5662812 27.6557304,19.8 45,19.8 C62.344125,19.8 58.9185482,36.5662812 58.8031232,39.0139125 C61.558425,41.3390687 59.8568464,47.9476875 57.1021232,47.9476875 C56.0780518,54.1638687 51.3794732,58.7865812 51.3794732,58.7865812 C51.3794732,58.7865812 51.4159232,63.1562937 53.01495,63.40915 C57.3429209,64.0935147 71.613737,70.1553165 76.0630935,77.5590417 Z" id="Combined-Shape" fill="#00A4DC"></path>
                <path d="M45,80 C64.3299662,80 80,64.3299662 80,45 C80,25.6700338 64.3299662,10 45,10 C25.6700338,10 10,25.6700338 10,45 C10,64.3299662 25.6700338,80 45,80 Z M45,90 C20.1471863,90 0,69.8528137 0,45 C0,20.1471863 20.1471863,0 45,0 C69.8528137,0 90,20.1471863 90,45 C90,69.8528137 69.8528137,90 45,90 Z" id="Oval" fill="#FFFFFF"></path>
                <path d="M45,82 C65.4345357,82 82,65.4345357 82,45 C82,24.5654643 65.4345357,8 45,8 C24.5654643,8 8,24.5654643 8,45 C8,65.4345357 24.5654643,82 45,82 Z M45,90 C20.1471863,90 0,69.8528137 0,45 C0,20.1471863 20.1471863,0 45,0 C69.8528137,0 90,20.1471863 90,45 C90,69.8528137 69.8528137,90 45,90 Z" id="Oval1" fill="#00A4DC"></path>
            </g>
        </g>
    </g>
</svg>