<?xml version="1.0" encoding="UTF-8"?>
<svg width="90px" height="90px" viewBox="0 0 90 90" version="1.1" xmlns="http://www.w3.org/2000/svg" xmlns:xlink="http://www.w3.org/1999/xlink">
    <!-- Generator: Sketch 48.2 (47327) - http://www.bohemiancoding.com/sketch -->
    <title>provider</title>
    <desc>Created with Sketch.</desc>
    <defs></defs>
    <g id="Registration" stroke="none" stroke-width="1" fill="none" fill-rule="evenodd" transform="translate(-229.000000, -304.000000)">
        <g id="Button" transform="translate(193.000000, 290.000000)">
            <g id="provider" transform="translate(36.000000, 14.000000)">
                <path d="M30.1502372,75.6 C28.9072927,75.6 27.9,76.8096774 27.9,78.3 C27.9,79.7905123 28.9071346,81 30.1502372,81 C31.3928654,81 32.4,79.7907021 32.4,78.3 C32.3998418,76.8096774 31.3928654,75.6 30.1502372,75.6 Z" id="Shape3" fill="#00A4DC" fill-rule="nonzero"></path>
                <path d="M76.1358857,77.4894187 C68.4213299,84.8845397 58.0780678,89.5588742 46.6481431,89.9703783 C47.0477172,88.8928201 47.2664357,87.7259664 47.2664357,86.508191 L47.2416716,77.6943912 L47.2420108,77.6930244 C47.2420108,77.6930244 47.2420108,77.6918284 47.2420108,77.6908033 C47.2420108,77.080516 47.6521463,76.5682983 48.2093404,76.4148722 C48.2118847,76.4141888 55.3322653,73.3282398 57.4948907,70.7803073 C57.5774945,70.6796748 57.6582325,70.5785298 57.737444,70.477043 C58.0242675,70.1091962 59.0221283,69.6320035 60.063072,70.2099996 C60.3463335,70.3671844 60.4613343,70.3941792 60.7856433,70.6128712 C62.6315925,71.7678383 64.9100668,72.8291779 67.7531984,73.8618141 C71.4059361,75.1881376 74.1350749,76.3832358 76.1358857,77.4894187 Z M13.7555179,77.3849717 C15.8144562,75.8887556 18.8378886,74.3111218 23.1461231,72.7466558 C26.4806371,71.5353072 29.1190401,70.6467001 31.0594664,69.5693004 C32.1004101,68.9914752 33.0981013,69.4686679 33.3849248,69.8363438 C35.6082733,72.6868572 43.1896748,76.4960275 43.1952722,76.498932 C43.6410274,76.7258249 44.045396,77.1326262 44.0723652,77.6815772 C44.0738918,77.6855069 44.0757576,77.6897782 44.0757576,77.6897782 L44.0755879,77.7453055 C44.0755879,77.7461597 44.0757576,77.7468431 44.0757576,77.7476974 L44.0755879,77.7500893 L44.0587958,86.342976 C44.0587958,87.666319 43.7143285,88.9052202 43.1168869,89.9613125 C38.9857278,89.791255 34.9982816,89.0642487 31.2276439,87.853389 C31.1275251,87.3668183 31.074732,86.8613762 31.074732,86.342976 L31.074732,82.7760755 C32.8580923,82.0971052 34.1283591,80.3661923 34.1283591,78.3325276 C34.1283591,75.7071986 32.015262,73.5785396 29.4090864,73.5785396 C26.8024018,73.5785396 24.6894744,75.7071986 24.6894744,78.3325276 C24.6894744,80.4119809 26.0165631,82.1746725 27.8623427,82.819643 L27.8623427,86.508191 C27.8623427,86.5461562 27.8625555,86.5840719 27.8629799,86.6219369 C22.5801963,84.4444931 17.8027698,81.2905655 13.7555179,77.3849717 Z" id="Combined-Shape" fill="#00A4DC" fill-rule="nonzero"></path>
                <path d="M28.8,42.0536796 C29.3235507,49.0473588 32.059309,46.0331479 32.6234815,49.0968505 C33.73353,55.1252722 36.0006273,55.356347 36.7966124,57.4312409 C36.9752139,57.8978275 37.0801255,60.1281933 37.0801255,60.8688612 C37.0801255,63.3504397 36.9465101,64.6650398 35.9912272,65.9250284 C35.774354,66.2110559 35.408926,67.1449118 35.8760762,67.8533247 C37.9890794,71.0567984 42.067538,73.7499964 45.9000839,73.8 C49.7326298,73.7499964 53.8109206,71.0571398 55.9242595,67.8533247 C56.391074,67.1452531 56.025646,66.2112266 55.8087728,65.9250284 C54.8538257,64.6650398 54.7197067,63.3504397 54.7197067,60.8688612 C54.7197067,60.1281933 54.8246183,57.8979981 55.0032197,57.4312409 C55.7992049,55.356347 58.0663022,55.1252722 59.1763506,49.0968505 C59.7405231,46.0333186 62.4764493,49.0475295 63,42.0536796 C63,39.2664475 61.5063948,38.5733941 61.5063948,38.5733941 C61.5063948,38.5733941 62.2656189,34.4485227 62.5630643,31.2745733 C62.9316816,27.3183149 60.2919384,17.1 46.2121329,17.1 C46.1609361,17.1 45.9907275,17.1 45.9002518,17.1 C45.8094403,17.1 45.6390639,17.1 45.5878671,17.1 C31.5083973,17.1 28.8683184,27.3183149 29.2367679,31.2745733 C29.5342132,34.4485227 30.2934373,38.5733941 30.2934373,38.5733941 C30.2934373,38.5733941 28.8,39.2664475 28.8,42.0536796 Z" id="Shape1" fill="#00A4DC" fill-rule="nonzero"></path>
                <path d="M62.4819719,25.959486 C61.8926656,25.1923702 61.2401883,24.4908088 60.526573,23.8539022 C60.401683,23.7424596 60.0957027,23.4807559 60.2634328,23.0420552 L61.0426879,19.8292436 C61.2962436,18.7842283 60.621257,17.6444804 59.5061059,17.2345722 L47.58812,12.8532202 C47.1438893,12.6898482 46.5731713,12.6 45.9812511,12.6 C45.3978989,12.6 44.8350228,12.6877916 44.3963105,12.8469218 L32.3002838,17.2377856 C31.1810666,17.6440948 30.5033208,18.7824288 30.7573121,19.8291151 L31.6130986,23.3581305 C31.7414739,23.7056977 31.4966315,23.9825689 31.3882967,24.0824431 C30.767768,24.6541809 30.1887724,25.2751487 29.6536335,25.9470178 C26.7400673,29.6046999 25.2,34.7282312 25.2,40.7641265 C25.2,48.4431252 26.0319703,53.4207658 27.8183322,56.4289445 C29.4082102,59.106266 31.7246283,60.3001285 35.3293006,60.3 C36.8345149,60.3 38.4309278,60.1016656 40.1210083,59.8917628 C41.982885,59.6605226 43.9082232,59.4214416 45.8999274,59.4214416 C47.854455,59.4214416 49.7452307,59.6423987 51.5738518,59.8560292 C53.2396804,60.050636 54.8130032,60.2345741 56.3000649,60.2345741 C58.7641725,60.2345741 61.8578126,59.7987011 63.9267743,56.3997664 C65.7506032,53.4036702 66.6,48.4352844 66.6,40.7641265 C66.6,34.4969911 65.2144477,29.5160085 62.4819719,25.959486 Z" id="Shape6" fill="#00A4DC" fill-rule="nonzero"></path>
                <rect id="Rectangle-3" fill="#FFFFFF" x="27.9" y="22.5" width="14.4" height="3.6"></rect>
                <rect id="Rectangle-2" fill="#FFFFFF" x="49.5" y="22.5" width="14.4" height="3.6"></rect>
                <circle id="Oval-2" stroke="#00A4DC" stroke-width="2" fill="#FFFFFF" cx="45.9" cy="22.5" r="6.3"></circle>
                <path d="M45,80 C64.3299662,80 80,64.3299662 80,45 C80,25.6700338 64.3299662,10 45,10 C25.6700338,10 10,25.6700338 10,45 C10,64.3299662 25.6700338,80 45,80 Z M45,90 C20.1471863,90 0,69.8528137 0,45 C0,20.1471863 20.1471863,0 45,0 C69.8528137,0 90,20.1471863 90,45 C90,69.8528137 69.8528137,90 45,90 Z" id="Oval1" fill="#FFFFFF" fill-rule="nonzero"></path>
                <path d="M45,82 C65.4345357,82 82,65.4345357 82,45 C82,24.5654643 65.4345357,8 45,8 C24.5654643,8 8,24.5654643 8,45 C8,65.4345357 24.5654643,82 45,82 Z M45,90 C20.1471863,90 0,69.8528137 0,45 C0,20.1471863 20.1471863,0 45,0 C69.8528137,0 90,20.1471863 90,45 C90,69.8528137 69.8528137,90 45,90 Z" id="Oval" fill="#00A4DC" fill-rule="nonzero"></path>
            </g>
        </g>
    </g>
</svg>