<?xml version="1.0" encoding="UTF-8"?>
<svg width="23px" height="28px" viewBox="0 0 23 28" version="1.1" xmlns="http://www.w3.org/2000/svg" xmlns:xlink="http://www.w3.org/1999/xlink">
    <!-- Generator: Sketch 48.1 (47250) - http://www.bohemiancoding.com/sketch -->
    <title>RI</title>
    <desc>Created with Sketch.</desc>
    <defs></defs>
    <g id="Registration2.1" stroke="none" stroke-width="1" fill="none" fill-rule="evenodd" transform="translate(-21.000000, -2178.000000)">
        <g id="Group" transform="translate(17.000000, 203.000000)" fill="#11C4FF">
            <path fill="#11C4FF" d="M20.3614391,1993.72288 L20.1927003,1990.18072 L19.6866752,1991.53011 L20.3613696,1993.72288 L20.3614391,1993.72288 Z M23.7349285,1991.02408 L21.5421586,1986.80723 L21.3734199,1991.19277 L23.7348589,1991.02403 L23.7349285,1991.02408 Z M22.7228782,1985.79518 L23.9035977,1988.83131 L25.4216731,1991.53011 L26.4337234,1989.50603 L24.915648,1986.63854 L24.4096229,1984.61446 L22.7228782,1984.61446 L22.7228782,1985.79518 Z M4,1978.87951 L4.6746944,1980.73493 L9.90361509,1995.40962 L10.915648,1998.9518 L11.0843868,2003 L11.4217253,2002.49397 L19.5181102,1996.08433 L18.0000521,1984.61446 L21.3735415,1983.93975 L13.951851,1975 L6.19282196,1978.03613 L4.00005213,1978.87951 L4,1978.87951 Z" id="RI"></path>
        </g>
    </g>
</svg>