<?xml version="1.0" encoding="UTF-8"?>
<svg width="26px" height="19px" viewBox="0 0 26 19" version="1.1" xmlns="http://www.w3.org/2000/svg" xmlns:xlink="http://www.w3.org/1999/xlink">
    <!-- Generator: Sketch 48.1 (47250) - http://www.bohemiancoding.com/sketch -->
    <title>SC</title>
    <desc>Created with Sketch.</desc>
    <defs></defs>
    <g id="Registration2.1" stroke="none" stroke-width="1" fill="none" fill-rule="evenodd" transform="translate(-21.000000, -2235.000000)">
        <g id="Group" transform="translate(17.000000, 203.000000)" fill="#11C4FF">
            <polygon fill="#11C4FF" id="SC" points="4.83911751 2035.14669 4.83911751 2035.14669 4 2036.79495 4.14984363 2037.39432 6.87697167 2038.53312 8.28549001 2040.33123 14.0694008 2045.18612 15.4179811 2045.81546 17.8753956 2049.32176 19.6735005 2051 19.6735005 2051 19.9731847 2049.62145 19.4936894 2048.30284 20.7823347 2049.26183 21.5015761 2048.69243 20.2728689 2047.6735 21.7712928 2047.58359 24.1088311 2045.60568 23.8391175 2045.09621 25.2776033 2043.98738 25.1277597 2043.44795 26.1766558 2042.78864 26.2365939 2041.26025 27.8848583 2038.20347 28.9936894 2036.79495 29.1135656 2036.73501 22.4305992 2032.50946 19.9432172 2032.98896 16.5567828 2032.86908 14.8785478 2032 4.92902307 2035.14669 4.83911751 2035.14669"></polygon>
        </g>
    </g>
</svg>