<?xml version="1.0" encoding="UTF-8"?>
<svg width="25px" height="15px" viewBox="0 0 25 15" version="1.1" xmlns="http://www.w3.org/2000/svg" xmlns:xlink="http://www.w3.org/1999/xlink">
    <!-- Generator: Sketch 48.1 (47250) - http://www.bohemiancoding.com/sketch -->
    <title>SD</title>
    <desc>Created with Sketch.</desc>
    <defs></defs>
    <g id="Registration2.1" stroke="none" stroke-width="1" fill="none" fill-rule="evenodd" transform="translate(-21.000000, -2288.000000)">
        <g id="Group" transform="translate(17.000000, 203.000000)" fill="#11C4FF">
            <polygon fill="#11C4FF" id="SD" points="26.6666708 2085.125 23.1458411 2085.22917 14.6666845 2085.29167 5.47919462 2085.04167 4.66669595 2085 4.64585473 2085.47917 4.56252203 2087.375 4.50002196 2088.8125 4.47918074 2089.10416 4.41668068 2089.10416 4.39583945 2089.64583 4.18750663 2094.02082 4.02084122 2097.27082 4 2097.83332 4.62500063 2097.85416 11.6874905 2098.08333 17.666651 2098.14583 21.7708118 2098.10416 23.083311 2098.93749 24.1874773 2098.62499 24.9166433 2098.64584 27.1874739 2099.3125 27.833305 2099.95833 28.229138 2100 28.229138 2099.85417 27.7708049 2099.16667 28.0624726 2098.0625 27.7083049 2095.75 28.1458053 2095.72916 28.1041379 2094.77083 27.0624737 2087.43751 26.520808 2086.52084 27.3541393 2085.14584 27.3749805 2085.08334 26.6666493 2085.12501"></polygon>
        </g>
    </g>
</svg>