<?xml version="1.0" encoding="UTF-8"?>
<svg width="28px" height="13px" viewBox="0 0 28 13" version="1.1" xmlns="http://www.w3.org/2000/svg" xmlns:xlink="http://www.w3.org/1999/xlink">
    <!-- Generator: Sketch 48.1 (47250) - http://www.bohemiancoding.com/sketch -->
    <title>slider_arrow_right</title>
    <desc>Created with Sketch.</desc>
    <defs></defs>
    <g id="Registration3" stroke="none" stroke-width="1" fill="none" fill-rule="evenodd" transform="translate(-323.000000, -487.000000)">
        <g id="slider_arrow_right" transform="translate(323.000000, 487.000000)" fill="#FFFFFF">
            <path fill="#FFFFFF" d="M20.2928932,5.6379899 L25.6657864,0.26509668 C26.0192487,-0.08836556 26.5923242,-0.08836556 26.9457864,0.26509668 L26.9457864,0.26509668 C27.2992487,0.61855892 27.2992487,1.19163444 26.9457864,1.54509668 L22.1457864,6.34509668 L26.9457864,11.1450967 C27.2992487,11.4985589 27.2992487,12.0716344 26.9457864,12.4250967 L26.9457864,12.4250967 C26.5923242,12.7785589 26.0192487,12.7785589 25.6657864,12.4250967 L20.2928932,7.05220346 C19.9023689,6.66167917 19.9023689,6.02851419 20.2928932,5.6379899 Z" id="Chevron" opacity="0.899999976" transform="translate(23.605442, 6.345097) rotate(180.000000) translate(-23.605442, -6.345097) "></path>
            <path fill="#FFFFFF" d="M10.2928932,5.6379899 L15.6657864,0.26509668 C16.0192487,-0.08836556 16.5923242,-0.08836556 16.9457864,0.26509668 L16.9457864,0.26509668 C17.2992487,0.61855892 17.2992487,1.19163444 16.9457864,1.54509668 L12.1457864,6.34509668 L16.9457864,11.1450967 C17.2992487,11.4985589 17.2992487,12.0716344 16.9457864,12.4250967 L16.9457864,12.4250967 C16.5923242,12.7785589 16.0192487,12.7785589 15.6657864,12.4250967 L10.2928932,7.05220346 C9.90236893,6.66167917 9.90236893,6.02851419 10.2928932,5.6379899 Z" id="Chevron" opacity="0.3" transform="translate(13.605442, 6.345097) rotate(180.000000) translate(-13.605442, -6.345097) "></path>
            <path fill="#FFFFFF" d="M0.292893219,5.6379899 L5.66578644,0.26509668 C6.01924868,-0.08836556 6.5923242,-0.08836556 6.94578644,0.26509668 L6.94578644,0.26509668 C7.29924868,0.61855892 7.29924868,1.19163444 6.94578644,1.54509668 L2.14578644,6.34509668 L6.94578644,11.1450967 C7.29924868,11.4985589 7.29924868,12.0716344 6.94578644,12.4250967 L6.94578644,12.4250967 C6.5923242,12.7785589 6.01924868,12.7785589 5.66578644,12.4250967 L0.292893219,7.05220346 C-0.0976310729,6.66167917 -0.0976310729,6.02851419 0.292893219,5.6379899 Z" id="Chevron" opacity="0.1" transform="translate(3.605442, 6.345097) rotate(180.000000) translate(-3.605442, -6.345097) "></path>
        </g>
    </g>
</svg>
