<?xml version="1.0" encoding="UTF-8"?>
<svg width="16px" height="14px" viewBox="0 0 16 14" version="1.1" xmlns="http://www.w3.org/2000/svg" xmlns:xlink="http://www.w3.org/1999/xlink">
    <!-- Generator: Sketch 48.2 (47327) - http://www.bohemiancoding.com/sketch -->
    <title>start_here</title>
    <desc>Created with Sketch.</desc>
    <defs></defs>
    <g id="App-Menu" stroke="none" stroke-width="1" fill="none" fill-rule="evenodd" transform="translate(-24.000000, -196.000000)">
        <g id="menu-1" transform="translate(26.000000, 192.000000)" fill="#11C4FF" fill-rule="nonzero">
            <g id="start_here" transform="translate(0.000000, 6.000000)">
                <path fill="#11C4FF" d="M9.87867966,5 L5.93933983,1.06066017 C5.35355339,0.474873734 5.35355339,-0.474873734 5.93933983,-1.06066017 C6.52512627,-1.64644661 7.47487373,-1.64644661 8.06066017,-1.06066017 L13.0606602,3.93933983 C13.6464466,4.52512627 13.6464466,5.47487373 13.0606602,6.06066017 L8.06066017,11.0606602 C7.47487373,11.6464466 6.52512627,11.6464466 5.93933983,11.0606602 C5.35355339,10.4748737 5.35355339,9.52512627 5.93933983,8.93933983 L9.87867966,5 Z" id="Shape1"></path>
                <path fill="#11C4FF" d="M2.87867966,5 L-1.06066017,1.06066017 C-1.64644661,0.474873734 -1.64644661,-0.474873734 -1.06066017,-1.06066017 C-0.474873734,-1.64644661 0.474873734,-1.64644661 1.06066017,-1.06066017 L6.06066017,3.93933983 C6.64644661,4.52512627 6.64644661,5.47487373 6.06066017,6.06066017 L1.06066017,11.0606602 C0.474873734,11.6464466 -0.474873734,11.6464466 -1.06066017,11.0606602 C-1.64644661,10.4748737 -1.64644661,9.52512627 -1.06066017,8.93933983 L2.87867966,5 Z" id="Shape"></path>
            </g>
        </g>
    </g>
</svg>