<?xml version="1.0" encoding="UTF-8"?>
<svg width="25px" height="11px" viewBox="0 0 25 11" version="1.1" xmlns="http://www.w3.org/2000/svg" xmlns:xlink="http://www.w3.org/1999/xlink">
    <!-- Generator: Sketch 48.1 (47250) - http://www.bohemiancoding.com/sketch -->
    <title>TN</title>
    <desc>Created with Sketch.</desc>
    <defs></defs>
    <g id="Registration2.1" stroke="none" stroke-width="1" fill="none" fill-rule="evenodd" transform="translate(-21.000000, -2341.000000)">
        <g id="Group" transform="translate(17.000000, 203.000000)" fill="#11C4FF">
            <polygon fill="#11C4FF" id="TN" points="23.02719 2140.01036 17.9127371 2140.86873 10.6344764 2141.8344 10.0264637 2141.85229 10.2052905 2142.56759 6.59298431 2143.05043 6.07438597 2143.12196 6.07438597 2143.13985 5.93132525 2143.31867 5.85979305 2143.30079 5.85979305 2143.15772 5.85979305 2143.13983 5.6630841 2143.15772 5.6809736 2143.17561 5.78827006 2143.67633 5.43061642 2144.12339 5.39485032 2144.946 5.39485032 2145.08906 5.39485032 2145.10695 4.85836985 2146.14415 4.96566631 2146.87734 4.46495011 2147.66418 4.64377693 2148.37949 4 2148.96962 4.03576426 2149.00538 4.429184 2148.96962 8.00572597 2148.52255 9.5794031 2148.30795 10.4735391 2148.18278 10.5093033 2148.18278 10.4914138 2148.14701 13.4957092 2147.73571 14.9263238 2147.55688 17.7875566 2147.09193 18.3240389 2147.00252 18.6459265 2146.96675 20.1659572 2146.68063 20.541493 2146.6091 21.9363451 2146.34086 22.1867023 2146.30509 22.1867023 2146.12627 22.1688128 2145.33943 22.8304719 2144.98177 22.866238 2144.51682 23.6173114 2143.8194 24.3326205 2143.64057 25.7990012 2142.31725 26.3533656 2141.49464 26.7825496 2141.65559 27.7482159 2140.70781 28.2668143 2140.65416 28.7317644 2139.70637 28.9284752 2139.72426 28.9105857 2138.95531 29 2138.68707 28.7138767 2138.74072 27.6945622 2139.02684 26.4785387 2139.2772 23.4205969 2139.90309 23.0987075 2139.95674 23.0271772 2140.01039"></polygon>
        </g>
    </g>
</svg>