<?xml version="1.0" encoding="UTF-8"?>
<svg width="25px" height="23px" viewBox="0 0 25 23" version="1.1" xmlns="http://www.w3.org/2000/svg" xmlns:xlink="http://www.w3.org/1999/xlink">
    <!-- Generator: Sketch 48.1 (47250) - http://www.bohemiancoding.com/sketch -->
    <title>TX</title>
    <desc>Created with Sketch.</desc>
    <defs></defs>
    <g id="Registration2.1" stroke="none" stroke-width="1" fill="none" fill-rule="evenodd" transform="translate(-21.000000, -2388.000000)">
        <g id="Group" transform="translate(17.000000, 203.000000)" fill="#11C4FF">
            <path fill="#11C4FF" d="M22.0643358,2207.55432 L21.5631298,2205.66435 L21.5631298,2206.01937 L22.0643358,2207.55432 Z M21.9494763,2204.23382 L21.5944542,2204.9021 L21.5526873,2205.12138 L21.9494763,2204.23382 Z M22.2314048,2203.74306 L22.5655428,2203.3045 L22.3253813,2203.45069 L22.2314048,2203.74306 Z M23.4113305,2202.67799 L22.6281939,2203.08522 L22.8474724,2203.04346 L23.4113305,2202.67799 Z M23.5157485,2202.53181 L23.735026,2202.3543 L23.651492,2202.37518 L23.5157485,2202.53181 Z M11.1317582,2185.01045 L11.0586657,2185 L10.7036437,2194.79442 L8.63616443,2194.70044 L5.32610959,2194.51249 L4,2194.41851 L4.26104554,2194.93016 L4.27149132,2194.94061 L5.39920746,2196.06832 L6.0465995,2196.83058 L6.90282754,2197.46753 L7.50845367,2198.57436 L7.73817263,2199.7334 L8.22893821,2200.0571 L8.61528578,2200.48521 L9.1687013,2200.68361 L9.97272088,2201.19525 L10.3381844,2201.331 L10.8393915,2200.82979 L10.996019,2200.29726 L11.2570646,2199.78561 L12.0715256,2199.46191 L12.3847796,2199.61854 L13.2932172,2199.69163 L14.1181208,2200.20328 L14.6819789,2200.3077 L14.5253513,2200.60007 L14.8490479,2200.80891 L15.1518604,2201.17437 L15.2145114,2201.56072 L15.412906,2201.82176 L15.872345,2202.9286 L16.331785,2203.31494 L16.6868071,2203.89968 L17.1358046,2204.35912 L17.3341991,2204.42178 L17.5012681,2205.61214 L17.9920337,2205.88363 L18.0129167,2206.25953 L18.1382187,2206.22821 L18.9944478,2207.27239 L19.4225624,2207.36637 L19.9655364,2207.69006 L20.8008815,2207.69006 L21.4065066,2208.0242 L22.1269911,2207.86757 L21.8032956,2207.56476 L21.5109246,2206.68765 L21.3960651,2205.9254 L21.2289961,2205.67479 L21.3020886,2205.16314 L21.08281,2205.14226 L20.790439,2204.66194 L21.124577,2205.01696 L21.5109246,2204.88122 L21.7197606,2204.3278 L21.3020886,2203.76394 L21.9285966,2203.83703 L22.2209676,2203.38804 L22.1792006,2203.23141 L22.4402462,2202.88683 L22.3775952,2203.18964 L22.6699662,2202.95992 L22.5551057,2202.55269 L22.9310107,2202.75109 L23.4113348,2202.4796 L22.9414532,2201.98883 L23.2338232,2202.10369 L23.7767983,2202.13502 L24.4868414,2201.97839 L25.2804195,2201.44586 L25.7607425,2201.04907 L25.833835,2200.7567 L26.126206,2200.45389 L25.9695785,2199.95268 L26.000904,2199.63942 L26.5229951,2199.4097 L26.481227,2199.96312 L26.7944821,2199.96312 L26.4499026,2200.25549 L27.8386632,2199.52457 L28.0683832,2199.51412 L28.2145682,2198.84584 L28.2563363,2198.84584 L28.4129628,2198.4595 L28.4860552,2197.26913 L28.5800318,2196.78881 L28.3085448,2195.93258 L27.9744067,2195.34784 L27.9639609,2195.06591 L27.6193803,2194.58558 L27.4105443,2192.57031 L27.4000986,2192.31971 L27.3792145,2192.05866 L27.3165635,2191.13979 L26.6900555,2191.16067 L26.533428,2190.9936 L26.5021025,2190.98315 L26.4916567,2190.98315 L26.0844262,2190.91006 L25.6145446,2190.60725 L25.0924535,2190.38797 L24.1109234,2190.6699 L23.8498779,2190.60725 L23.5261813,2190.73255 L23.1293923,2191.05625 L22.0643272,2190.55504 L21.7301902,2191.01448 L21.2394246,2190.83697 L20.7173336,2190.50283 L20.4354051,2190.74299 L20.163918,2190.75344 L20.163918,2190.55505 L19.432991,2190.21047 L19.1406199,2190.34621 L18.9944349,2190.17914 L18.1904153,2190.09561 L17.5743477,2189.53175 L17.4803723,2189.7197 L17.0313737,2189.69882 L16.6137017,2189.30203 L16.4257486,2188.67552 L16.3944231,2185.10442 L13.7213188,2185.07309 L11.1944006,2185.01044 L11.1317496,2185.01044 L11.1317582,2185.01045 Z" id="TX"></path>
        </g>
    </g>
</svg>