<?xml version="1.0" encoding="UTF-8"?>
<svg width="24px" height="16px" viewBox="0 0 24 16" version="1.1" xmlns="http://www.w3.org/2000/svg" xmlns:xlink="http://www.w3.org/1999/xlink">
    <!-- Generator: Sketch 48.1 (47250) - http://www.bohemiancoding.com/sketch -->
    <title>VA</title>
    <desc>Created with Sketch.</desc>
    <defs></defs>
    <g id="Registration2.1" stroke="none" stroke-width="1" fill="none" fill-rule="evenodd" transform="translate(-21.000000, -2547.000000)">
        <g id="Group" transform="translate(17.000000, 203.000000)" fill="#11C4FF">
            <path fill="#11C4FF" d="M27.4774451,2353.6743 L27.5334328,2353.6743 L27.5894185,2353.65563 L27.5520947,2353.56232 L27.4774451,2353.6743 L27.4774451,2353.6743 Z M26.8429187,2351.5841 L26.8429187,2351.67741 L26.9362321,2351.62142 L26.8429187,2351.5841 Z M27.1788448,2350.93091 L27.1601752,2350.78161 L27.1788448,2350.93091 Z M27.0668694,2351.15486 L27.0295436,2351.39748 L26.973556,2351.49079 L27.0668694,2351.15486 Z M27.2348324,2350.66964 L27.2535021,2350.55766 L27.2161763,2350.66964 L27.2348459,2350.66964 L27.2348324,2350.66964 Z M27.3468059,2350.16575 L27.4027936,2350.03511 L27.309482,2350.37104 L27.3468059,2350.16575 Z M27.3654755,2349.88581 L27.4401251,2349.47523 L27.3468117,2349.56855 L27.3654813,2349.88581 L27.3654755,2349.88581 Z M27.7013997,2348.03822 L27.7387254,2347.87026 L27.7200558,2347.90758 L27.7013862,2348.03822 L27.7013997,2348.03822 Z M27.6267501,2347.60898 L27.3841374,2347.7023 L27.0108875,2347.87026 L26.8802502,2348.03822 L26.9362379,2348.05689 L26.4883364,2350.8376 L26.6562995,2351.28551 L26.917574,2350.12843 L27.4027993,2348.61677 L27.6267501,2347.62765 L27.6267501,2347.60898 Z M28,2347.45968 L27.9440123,2347.47835 L27.9253427,2347.553 L27.8320312,2348.13154 L27.9066808,2347.92625 L27.9999923,2347.45969 L28,2347.45968 Z M8.4976669,2354.60743 L8.36702961,2354.79405 L7.47122862,2355.93247 L6.76205259,2356.49234 L6.61275339,2356.97757 L5.53032742,2358.39592 L4.13063728,2359.14242 L4,2359.29172 L4.33592609,2359.23573 L7.5272163,2358.58255 L8.79626723,2358.32127 L9.86003127,2358.02267 L10.1586316,2357.96668 L10.1773012,2358.00401 L14.9922323,2357.10821 L19.7511738,2355.89514 L27.2161821,2353.76761 L27.1601944,2353.6743 L27.1415248,2353.61832 L27.2721621,2353.74895 L27.4214632,2353.71163 L27.4027936,2353.69296 L27.2721563,2353.05843 L27.3654697,2353.0771 L27.6640701,2353.63698 L27.7200577,2353.61831 L27.7573816,2353.59964 L27.682732,2353.45034 L26.9175683,2352.2746 L25.9657796,2352.44256 L25.536542,2352.79715 L25.1259663,2352.4239 L23.7262781,2351.95734 L22.7558275,2351.92001 L24.640741,2351.75205 L25.6858431,2352.46122 L25.9844434,2351.99466 L25.1446301,2350.9309 L25.7418308,2350.96822 L25.4245666,2350.10975 L24.6780667,2350.14707 L22.9051267,2348.71006 L22.6811759,2348.71006 L25.181954,2349.94178 L25.0139909,2349.08331 L25.181954,2348.80337 L23.912903,2348.31814 L22.8118151,2348.24349 L22.2706022,2347.75827 L21.8227007,2348.03821 L21.6547377,2346.75049 L21.8413626,2346.78782 L21.8040388,2345.74272 L21.766713,2345.70539 L21.7293873,2345.72406 L21.6920634,2345.70539 L21.59875,2345.63074 L21.5427623,2345.57475 L20.9455616,2345.31348 L20.329699,2344.86558 L19.4712238,2344.64163 L19.4152361,2344.62296 L19.4152361,2344.64163 L19.3032608,2345.42545 L17.5676465,2344.67895 L17.6049722,2345.76138 L16.6531835,2347.57164 L16.0746448,2348.20617 L15.7013949,2349.30726 L14.5629812,2348.91534 L14.0031044,2351.45345 L13.5552049,2352.31192 L13.4805553,2353.43168 L13.1446292,2353.97289 L11.8942401,2354.34614 L10.8678019,2355.14863 L10.3825766,2355.22328 L9.91601319,2355.63385 L8.74027378,2355.20461 L8.53498689,2354.62607 L8.49766113,2354.60741 L8.4976669,2354.60743 Z" id="VA"></path>
        </g>
    </g>
</svg>