<?xml version="1.0" encoding="UTF-8"?>
<svg width="25px" height="19px" viewBox="0 0 25 19" version="1.1" xmlns="http://www.w3.org/2000/svg" xmlns:xlink="http://www.w3.org/1999/xlink">
    <!-- Generator: Sketch 48.1 (47250) - http://www.bohemiancoding.com/sketch -->
    <title>WA</title>
    <desc>Created with Sketch.</desc>
    <defs></defs>
    <g id="Registration2.1" stroke="none" stroke-width="1" fill="none" fill-rule="evenodd" transform="translate(-20.000000, -2597.000000)">
        <g id="Group" transform="translate(17.000000, 203.000000)" fill="#11C4FF">
            <path fill="#11C4FF" d="M3.45703784,2405.16178 L3.47989844,2404.7733 L3.43419607,2404.79615 L3.45705667,2405.16178 L3.45703784,2405.16178 Z M8.32449814,2403.08226 L8.46160761,2402.85374 L8.3016446,2402.83089 L8.3245052,2403.08226 L8.32449814,2403.08226 Z M7.89031148,2402.67092 L8.02742095,2402.21388 L7.89031148,2402.16818 L7.89031148,2402.67092 Z M9.55849984,2402.00822 L9.53563923,2401.55118 L9.1471573,2402.14533 L9.55849042,2402.00822 L9.55849984,2402.00822 Z M9.60420456,2401.04844 L9.67276047,2400.5914 L9.62705575,2400.47714 L9.60419514,2401.04844 L9.60420456,2401.04844 Z M9.67276047,2398.80895 L9.64989987,2398.55758 L9.55849042,2398.53473 L9.67275106,2398.80895 L9.67276047,2398.80895 Z M10.404022,2397.30072 L10.1983542,2397.27787 L9.78702111,2397.91772 L10.404022,2397.30072 L10.404022,2397.30072 Z M9.83272348,2396.68372 L9.94698412,2396.59231 L9.96984472,2396.52376 L9.8327329,2396.68372 L9.83272348,2396.68372 Z M9.7184652,2396.75228 L9.64990929,2396.29524 L9.44424155,2396.68372 L9.7184652,2396.75228 Z M9.60420456,2396.11242 L9.39853683,2396.02101 L9.55849984,2396.24953 L9.60420456,2396.11242 Z M10.2897613,2396.5009 L10.2897613,2396.20383 L10.2212054,2396.31809 L10.2897613,2396.5009 Z M10.4954291,2396.20383 L10.404022,2396.13527 L10.3811614,2396.13527 L10.4954196,2396.20383 L10.4954291,2396.20383 Z M9.19286909,2395.70109 L9.07861081,2395.60968 L9.03290608,2395.58683 L9.19286909,2395.70109 L9.19286909,2395.70109 Z M10.0383912,2395.60968 L9.42139037,2395.76964 L9.58135338,2395.81535 L10.0383912,2395.60968 Z M9.53564865,2395.56398 L9.42139037,2395.42686 L9.39852976,2395.44972 L9.53564159,2395.56398 L9.53564865,2395.56398 Z M10.01554,2395.28975 L9.92413058,2395.28975 L10.0383912,2395.33546 L10.0155306,2395.28975 L10.01554,2395.28975 Z M5.53656166,2407.01279 L6.3592326,2407.90401 L6.22212078,2409.61791 L6.38208379,2410.05209 L7.61608784,2410.7148 L11.0895787,2411.03473 L11.2266905,2411.44606 L12.8720301,2411.46892 L14.4259601,2411.67459 L16.9625218,2411.40037 L18.2193794,2411.60603 L18.5621566,2411.44607 L24.983547,2412.90859 L25.4177336,2413 L25.3720289,2412.77148 L25.4634383,2411.74314 L25.3491777,2410.76051 L28,2398.83181 L27.6343693,2398.76325 L22.2870199,2397.5064 L17.6252297,2396.3181 L12.346434,2394.85558 L10.7696527,2394.46709 L11.1352834,2396.45521 L10.7925039,2397.09506 L10.175503,2396.77514 L10.7696527,2399.54022 L10.1297983,2400.4543 L9.83272348,2401.29982 L9.83272348,2402.16819 L8.48446115,2403.10512 L7.91316267,2402.73949 L7.36471538,2403.01371 L8.37020051,2401.71115 L8.1188304,2402.60238 L8.69012888,2401.98537 L9.14716672,2402.07678 L9.0100549,2400.93419 L9.30712973,2400.97989 L9.92413058,2399.60878 L9.7184652,2399.40311 L8.9186478,2400.43144 L8.3930517,2400.4543 L8.96435017,2399.81444 L9.60420456,2399.65448 L9.37568564,2398.48903 L8.73583125,2398.32907 L8.41590524,2397.78062 L8.02742095,2397.98629 L5.92504594,2397.07221 L4.07404104,2395.63254 L3.57129848,2397.02651 L3.52559375,2397.62066 L3.91407568,2398.67185 L3.66270557,2402.07678 L3.47988903,2402.60238 L4.50822534,2402.69378 L3.47988903,2403.42505 L4.02833632,2403.69927 L3.59414966,2405.16179 L3.38848193,2404.0192 L3,2405.34461 L3.52559375,2405.98446 L4.09689223,2405.93876 L4.78244899,2406.35009 L5.12522855,2407.0128 L5.53656166,2407.0128 L5.53656166,2407.01279 Z" id="WA"></path>
        </g>
    </g>
</svg>