<?xml version="1.0" encoding="UTF-8"?>
<svg width="24px" height="27px" viewBox="0 0 24 27" version="1.1" xmlns="http://www.w3.org/2000/svg" xmlns:xlink="http://www.w3.org/1999/xlink">
    <!-- Generator: Sketch 48.1 (47250) - http://www.bohemiancoding.com/sketch -->
    <title>WI</title>
    <desc>Created with Sketch.</desc>
    <defs></defs>
    <g id="Registration2.1" stroke="none" stroke-width="1" fill="none" fill-rule="evenodd" transform="translate(-20.000000, -2697.000000)">
        <g id="Group" transform="translate(17.000000, 203.000000)" fill="#11C4FF">
            <path fill="#11C4FF" d="M27,2502.48542 L26.2998827,2503.35356 L25.8798146,2504.61377 L26.0758468,2505.31389 L27,2502.48542 Z M10.9253204,2495.90432 L11.3453914,2495.31622 L11.0373384,2495.59627 L10.9253204,2495.90432 Z M11.5694273,2494.98016 L11.4294055,2494.81214 L11.1213525,2495.00817 L11.5694273,2494.98015 L11.5694273,2494.98016 Z M5.46440953,2496.54843 L4.82030266,2497.27655 L5.12835565,2500.63711 L3.33605676,2502.26138 L3,2503.82964 L3.98016364,2504.72579 L3.7001173,2508.59043 L4.73628847,2509.37457 L5.408402,2509.43057 L7.53675477,2510.71879 L8.88097893,2512.11902 L10.5892636,2512.98717 L10.9813308,2515.14353 L10.9813308,2515.28355 L11.7934661,2516.26371 L11.5694273,2517.01984 L11.8494736,2518.67211 L12.6896155,2519.82031 L14.2298718,2520.63244 L14.2018565,2520.77247 L20.3068743,2520.07235 L22.5752517,2519.7923 L26.3558816,2519.26021 L26.2438636,2518.84014 L26.2438636,2517.52392 L25.4877359,2516.12369 L25.2917038,2514.35939 L25.6557643,2512.39907 L25.4597321,2510.88681 L26.1318457,2509.0105 L25.8798031,2508.70245 L25.9358106,2506.96616 L26.2998712,2505.64994 L25.8798031,2505.20187 L25.0676678,2505.48191 L24.6195931,2506.65811 L23.5554153,2507.27421 L23.8914721,2505.78997 L24.843629,2504.52976 L24.8996395,2503.96966 L24.9276548,2503.94165 L23.5834306,2502.59742 L23.5834306,2500.69311 L22.071178,2499.4609 L19.9988328,2499.32088 L17.8704772,2498.76078 L13.277712,2497.36055 L12.3815625,2496.85647 L12.2975483,2496.94048 L10.86931,2496.74445 L10.3932315,2497.02449 L10.5892636,2494.98015 L8.29288248,2496.15635 L5.49241619,2496.60442 L5.46440088,2496.54842 L5.46440953,2496.54843 Z M10.9533242,2495.06418 L10.8973166,2494.86815 L10.7012845,2494.95216 L10.9533242,2495.06418 Z M9.94515676,2494.86815 L10.029171,2494.70012 L9.97316053,2494.64411 L9.94514522,2494.86815 L9.94515676,2494.86815 Z M11.9894982,2494.39207 L11.905484,2494 L11.8214698,2494.47608 L11.9894982,2494.39207 Z" id="WI"></path>
        </g>
    </g>
</svg>