<?xml version="1.0" encoding="UTF-8"?>
<svg width="26px" height="27px" viewBox="0 0 26 27" version="1.1" xmlns="http://www.w3.org/2000/svg" xmlns:xlink="http://www.w3.org/1999/xlink">
    <!-- Generator: Sketch 48.1 (47250) - http://www.bohemiancoding.com/sketch -->
    <title>WV</title>
    <desc>Created with Sketch.</desc>
    <defs></defs>
    <g id="Registration2.1" stroke="none" stroke-width="1" fill="none" fill-rule="evenodd" transform="translate(-20.000000, -2644.000000)">
        <g id="Group" transform="translate(17.000000, 203.000000)" fill="#11C4FF">
            <polygon fill="#11C4FF" id="WV" points="17.6192251 2446.49995 12.5805606 2447.74188 11.0192829 2441 11.0192829 2441 10.9483144 2441.0355 10.7708986 2448.8064 9.63542464 2450.50961 8.32253122 2451.50315 8.07414696 2451.21928 6.6193202 2453.20636 6.72577112 2454.76763 5.83868137 2454.90957 4.63224252 2456.75471 5.05804618 2457.96115 4.5257916 2459.13211 3 2459.87727 3 2459.87727 3 2459.94823 3.70967034 2462.43208 5.7322341 2464.88045 6.86770811 2465.51915 7.75479421 2465.51915 7.86124513 2465.55465 7.93221363 2465.59015 8.32253122 2466.69014 10.5579968 2467.50626 11.4450866 2466.72562 12.3676587 2466.58369 14.319254 2465.0579 16.6966529 2464.34823 17.3353584 2463.3192 17.4772918 2461.19019 18.3288955 2459.55794 19.3934046 2454.73218 21.5579017 2455.47734 22.2675721 2453.3838 23.3675637 2452.17736 25.1772256 2448.73546 25.1062571 2446.67741 28.4062282 2448.09675 28.61913 2446.60645 28.61913 2446.57095 28.61913 2446.57095 27.5901069 2444.79677 25.4610923 2444.54838 24.2191673 2445.50644 24.2191673 2446.21611 23.1546618 2446.4645 21.5933841 2447.56449 20.7772629 2447.74191 19.1450167 2450.04834 18.3288955 2446.32256 17.6192251 2446.49998"></polygon>
        </g>
    </g>
</svg>