<?xml version="1.0" encoding="UTF-8"?>
<svg width="24px" height="19px" viewBox="0 0 24 19" version="1.1" xmlns="http://www.w3.org/2000/svg" xmlns:xlink="http://www.w3.org/1999/xlink">
    <!-- Generator: Sketch 48.1 (47250) - http://www.bohemiancoding.com/sketch -->
    <title>WY</title>
    <desc>Created with Sketch.</desc>
    <defs></defs>
    <g id="Registration2.1" stroke="none" stroke-width="1" fill="none" fill-rule="evenodd" transform="translate(-20.000000, -2753.000000)">
        <g id="Group" transform="translate(17.000000, 203.000000)" fill="#11C4FF">
            <polygon fill="#11C4FF" id="WY" points="25.8285009 2559.93784 25.9914151 2556.76099 26.1950589 2552.48447 26.215431 2551.95499 25.9506939 2551.93462 20.7170416 2551.62915 17.7845669 2551.38478 12.2250841 2550.8553 5.26045625 2550 4.97535533 2551.99571 4.95498318 2552.1179 4.87352607 2552.78992 4.50696594 2555.41693 3.81457528 2560.71168 3.63129521 2562.03536 3.5498381 2562.70739 3.5091106 2562.97213 3 2566.94319 3.79421152 2567.04501 8.98713625 2567.67631 9.39442389 2567.71703 9.88316864 2567.77813 14.9131771 2568.26687 18.9453301 2568.5927 24.9935597 2568.97963 25.4008474 2569 25.4212195 2568.47053 25.5230425 2566.33226 25.7063225 2562.60558 25.7877797 2561.01715 25.8081518 2560.48768 25.8285239 2559.93784"></polygon>
        </g>
    </g>
</svg>